999
dxflib 3.26.4.0
  0
SECTION
  2
HEADER
  9
$ACADVER
  1
AC1015
  9
$HANDSEED
  5
FFFF
  9
$DIMADEC
 70
0
  9
$DIMASZ
 40
2.5
  9
$DIMATFIT
 70
0
  9
$DIMAUNIT
 70
0
  9
$DIMAZIN
 70
2
  9
$DIMBLK
  1
0
  9
$DIMBLK1
  1
0
  9
$DIMBLK2
  1
0
  9
$DIMDEC
 70
4
  9
$DIMDLI
 40
5.0
  9
$DIMDSEP
 70
46
  9
$DIMEXE
 40
1.25
  9
$DIMEXO
 40
0.625
  9
$DIMGAP
 40
0.625
  9
$DIMLFAC
 40
1.0
  9
$DIMLUNIT
 70
2
  9
$DIMSCALE
 40
1.0
  9
$DIMTAD
 70
1
  9
$DIMTIH
 70
0
  9
$DIMTSZ
 40
0.0
  9
$DIMTXT
 40
2.5
  9
$DIMZIN
 70
8
  9
$DWGCODEPAGE
  3
ANSI_1252
  9
$INSUNITS
 70
4
  9
$LTSCALE
 40
1.0
  9
$MAXACTVP
 70
64
  9
$MEASUREMENT
 70
1
  9
$MIRRTEXT
 70
0
  9
$PDMODE
 70
0
  9
$PDSIZE
 40
0.0
  0
ENDSEC
  0
SECTION
  2
TABLES
  0
TABLE
  2
VPORT
  5
8
100
AcDbSymbolTable
 70
1
  0
VPORT
  5
30
100
AcDbSymbolTableRecord
100
AcDbViewportTableRecord
  2
*Active
 70
0
 10
0.0
 20
0.0
 11
1.0
 21
1.0
 12
286.3055555555554861
 22
148.5
 13
0.0
 23
0.0
 14
10.0
 24
10.0
 15
10.0
 25
10.0
 16
0.0
 26
0.0
 36
1.0
 17
0.0
 27
0.0
 37
0.0
 40
297.0
 41
1.92798353909465
 42
50.0
 43
0.0
 44
0.0
 50
0.0
 51
0.0
 71
0
 72
100
 73
1
 74
3
 75
1
 76
1
 77
0
 78
0
281
0
 65
1
110
0.0
120
0.0
130
0.0
111
1.0
121
0.0
131
0.0
112
0.0
122
1.0
132
0.0
 79
0
146
0.0
  0
ENDTAB
  0
TABLE
  2
LTYPE
  5
5
100
AcDbSymbolTable
 70
41
  0
LTYPE
  5
16
100
AcDbSymbolTableRecord
100
AcDbLinetypeTableRecord
  2
Continuous
 70
0
  3
Solid line
 72
65
 73
0
 40
0.0
  0
LTYPE
  5
31
100
AcDbSymbolTableRecord
100
AcDbLinetypeTableRecord
  2
DOT2
 70
0
  3
Dot (.5x) ........................................
 72
65
 73
2
 40
3.1749999999999998
 49
0.1
 74
0
 49
-3.0749999999999997
 74
0
  0
LTYPE
  5
32
100
AcDbSymbolTableRecord
100
AcDbLinetypeTableRecord
  2
HIDDEN2
 70
0
  3
Hidden (.5x) _ _ _ _ _ _ _ _ _ _ _ _ _ _ _ _ _ 
 72
65
 73
2
 40
4.7624999999999993
 49
3.1749999999999998
 74
0
 49
-1.5874999999999999
 74
0
  0
LTYPE
  5
33
100
AcDbSymbolTableRecord
100
AcDbLinetypeTableRecord
  2
DASHEDX2
 70
0
  3
Dashed (2x) ____  ____  ____  ____  ____  ___
 72
65
 73
2
 40
38.0999999999999943
 49
25.3999999999999986
 74
0
 49
-12.6999999999999993
 74
0
  0
LTYPE
  5
34
100
AcDbSymbolTableRecord
100
AcDbLinetypeTableRecord
  2
ACAD_ISO12W100
 70
0
  3
ISO dash double-dot __ . . __ . . __ . . __ . . 
 72
65
 73
6
 40
21.0
 49
12.0
 74
0
 49
-2.9500000000000002
 74
0
 49
0.1
 74
0
 49
-2.9000000000000004
 74
0
 49
0.1
 74
0
 49
-2.9500000000000002
 74
0
  0
LTYPE
  5
35
100
AcDbSymbolTableRecord
100
AcDbLinetypeTableRecord
  2
HIDDEN
 70
0
  3
Hidden __ __ __ __ __ __ __ __ __ __ __ __ __ __
 72
65
 73
2
 40
9.5249999999999986
 49
6.3499999999999996
 74
0
 49
-3.1749999999999998
 74
0
  0
LTYPE
  5
36
100
AcDbSymbolTableRecord
100
AcDbLinetypeTableRecord
  2
ACAD_ISO09W100
 70
0
  3
ISO long-dash double-short-dash ____ __ __ ____
 72
65
 73
6
 40
45.0
 49
24.0
 74
0
 49
-3.0
 74
0
 49
6.0
 74
0
 49
-3.0
 74
0
 49
6.0
 74
0
 49
-3.0
 74
0
  0
LTYPE
  5
37
100
AcDbSymbolTableRecord
100
AcDbLinetypeTableRecord
  2
DIVIDEX2
 70
0
  3
Divide (2x) ________  .  .  ________  .  .  _
 72
65
 73
6
 40
63.5
 49
25.3999999999999986
 74
0
 49
-12.6499999999999986
 74
0
 49
0.1
 74
0
 49
-12.5999999999999979
 74
0
 49
0.1
 74
0
 49
-12.6499999999999986
 74
0
  0
LTYPE
  5
38
100
AcDbSymbolTableRecord
100
AcDbLinetypeTableRecord
  2
BORDERX2
 70
0
  3
Border (2x) ____  ____  .  ____  ____  .  ___
 72
65
 73
6
 40
88.8999999999999773
 49
25.3999999999999986
 74
0
 49
-12.6999999999999993
 74
0
 49
25.3999999999999986
 74
0
 49
-12.6499999999999986
 74
0
 49
0.1
 74
0
 49
-12.6499999999999986
 74
0
  0
LTYPE
  5
39
100
AcDbSymbolTableRecord
100
AcDbLinetypeTableRecord
  2
DASHDOT
 70
0
  3
Dash dot __ . __ . __ . __ . __ . __ . __ . __
 72
65
 73
4
 40
25.4000000000000021
 49
12.6999999999999993
 74
0
 49
-6.2999999999999998
 74
0
 49
0.1
 74
0
 49
-6.2999999999999998
 74
0
  0
LTYPE
  5
3A
100
AcDbSymbolTableRecord
100
AcDbLinetypeTableRecord
  2
PHANTOM
 70
0
  3
Phantom ______  __  __  ______  __  __  ______ 
 72
65
 73
6
 40
63.5000000000000071
 49
31.75
 74
0
 49
-6.3499999999999996
 74
0
 49
6.3499999999999996
 74
0
 49
-6.3499999999999996
 74
0
 49
6.3499999999999996
 74
0
 49
-6.3499999999999996
 74
0
  0
LTYPE
  5
14
100
AcDbSymbolTableRecord
100
AcDbLinetypeTableRecord
  2
BYBLOCK
 70
0
  3

 72
65
 73
0
 40
0.0
  0
LTYPE
  5
3B
100
AcDbSymbolTableRecord
100
AcDbLinetypeTableRecord
  2
BORDER2
 70
0
  3
Border (.5x) __.__.__.__.__.__.__.__.__.__.__.
 72
65
 73
6
 40
22.2250000000000014
 49
6.3499999999999996
 74
0
 49
-3.1749999999999998
 74
0
 49
6.3499999999999996
 74
0
 49
-3.125
 74
0
 49
0.1
 74
0
 49
-3.125
 74
0
  0
LTYPE
  5
3C
100
AcDbSymbolTableRecord
100
AcDbLinetypeTableRecord
  2
ACAD_ISO03W100
 70
0
  3
ISO dash space __    __    __    __    __    __
 72
65
 73
2
 40
30.0
 49
12.0
 74
0
 49
-18.0
 74
0
  0
LTYPE
  5
3D
100
AcDbSymbolTableRecord
100
AcDbLinetypeTableRecord
  2
ACAD_ISO08W100
 70
0
  3
ISO long-dash short-dash ____ __ ____ __ ____ _
 72
65
 73
4
 40
36.0
 49
24.0
 74
0
 49
-3.0
 74
0
 49
6.0
 74
0
 49
-3.0
 74
0
  0
LTYPE
  5
3E
100
AcDbSymbolTableRecord
100
AcDbLinetypeTableRecord
  2
DIVIDE
 70
0
  3
Divide ____ . . ____ . . ____ . . ____ . . ____
 72
65
 73
6
 40
31.7500000000000036
 49
12.6999999999999993
 74
0
 49
-6.2999999999999998
 74
0
 49
0.1
 74
0
 49
-6.25
 74
0
 49
0.1
 74
0
 49
-6.2999999999999998
 74
0
  0
LTYPE
  5
3F
100
AcDbSymbolTableRecord
100
AcDbLinetypeTableRecord
  2
DIVIDE2
 70
0
  3
Divide (.5x) __..__..__..__..__..__..__..__.._
 72
65
 73
6
 40
15.8749999999999982
 49
6.3499999999999996
 74
0
 49
-3.125
 74
0
 49
0.1
 74
0
 49
-3.0750000000000002
 74
0
 49
0.1
 74
0
 49
-3.125
 74
0
  0
LTYPE
  5
40
100
AcDbSymbolTableRecord
100
AcDbLinetypeTableRecord
  2
DOTX2
 70
0
  3
Dot (2x) .  .  .  .  .  .  .  .  .  .  .  .  .  .
 72
65
 73
2
 40
12.6999999999999993
 49
0.1
 74
0
 49
-12.5999999999999996
 74
0
  0
LTYPE
  5
41
100
AcDbSymbolTableRecord
100
AcDbLinetypeTableRecord
  2
ACAD_ISO10W100
 70
0
  3
ISO dash dot __ . __ . __ . __ . __ . __ . __ . 
 72
65
 73
4
 40
18.0
 49
12.0
 74
0
 49
-2.9500000000000002
 74
0
 49
0.1
 74
0
 49
-2.9500000000000002
 74
0
  0
LTYPE
  5
42
100
AcDbSymbolTableRecord
100
AcDbLinetypeTableRecord
  2
ACAD_ISO07W100
 70
0
  3
ISO dot . . . . . . . . . . . . . . . . . . . . 
 72
65
 73
2
 40
3.0
 49
0.1
 74
0
 49
-2.8999999999999999
 74
0
  0
LTYPE
  5
43
100
AcDbSymbolTableRecord
100
AcDbLinetypeTableRecord
  2
DASHED2
 70
0
  3
Dashed (.5x) _ _ _ _ _ _ _ _ _ _ _ _ _ _ _ _ _ 
 72
65
 73
2
 40
9.5249999999999986
 49
6.3499999999999996
 74
0
 49
-3.1749999999999998
 74
0
  0
LTYPE
  5
44
100
AcDbSymbolTableRecord
100
AcDbLinetypeTableRecord
  2
ACAD_ISO04W100
 70
0
  3
ISO long-dash dot ____ . ____ . ____ . ____ . _
 72
65
 73
4
 40
30.0
 49
24.0
 74
0
 49
-2.9500000000000002
 74
0
 49
0.1
 74
0
 49
-2.9500000000000002
 74
0
  0
LTYPE
  5
45
100
AcDbSymbolTableRecord
100
AcDbLinetypeTableRecord
  2
BORDER
 70
0
  3
Border __ __ . __ __ . __ __ . __ __ . __ __ .
 72
65
 73
6
 40
44.4499999999999957
 49
12.6999999999999993
 74
0
 49
-6.3499999999999996
 74
0
 49
12.6999999999999993
 74
0
 49
-6.2999999999999998
 74
0
 49
0.1
 74
0
 49
-6.2999999999999998
 74
0
  0
LTYPE
  5
46
100
AcDbSymbolTableRecord
100
AcDbLinetypeTableRecord
  2
ACAD_ISO11W100
 70
0
  3
ISO double-dash dot __ __ . __ __ . __ __ . __ _
 72
65
 73
6
 40
33.0
 49
12.0
 74
0
 49
-3.0
 74
0
 49
12.0
 74
0
 49
-2.9500000000000002
 74
0
 49
0.1
 74
0
 49
-2.9500000000000002
 74
0
  0
LTYPE
  5
47
100
AcDbSymbolTableRecord
100
AcDbLinetypeTableRecord
  2
DASHDOT2
 70
0
  3
Dash dot (.5x) _._._._._._._._._._._._._._._.
 72
65
 73
4
 40
12.6999999999999993
 49
6.3499999999999996
 74
0
 49
-3.125
 74
0
 49
0.1
 74
0
 49
-3.125
 74
0
  0
LTYPE
  5
48
100
AcDbSymbolTableRecord
100
AcDbLinetypeTableRecord
  2
PHANTOM2
 70
0
  3
Phantom (.5x) ___ _ _ ___ _ _ ___ _ _ ___ _ _
 72
65
 73
6
 40
31.7500000000000036
 49
15.875
 74
0
 49
-3.1749999999999998
 74
0
 49
3.1749999999999998
 74
0
 49
-3.1749999999999998
 74
0
 49
3.1749999999999998
 74
0
 49
-3.1749999999999998
 74
0
  0
LTYPE
  5
49
100
AcDbSymbolTableRecord
100
AcDbLinetypeTableRecord
  2
DASHDOTX2
 70
0
  3
Dash dot (2x) ____  .  ____  .  ____  .  ___
 72
65
 73
4
 40
50.7999999999999972
 49
25.3999999999999986
 74
0
 49
-12.6499999999999986
 74
0
 49
0.1
 74
0
 49
-12.6499999999999986
 74
0
  0
LTYPE
  5
4A
100
AcDbSymbolTableRecord
100
AcDbLinetypeTableRecord
  2
DOT
 70
0
  3
Dot . . . . . . . . . . . . . . . . . . . . . . . .
 72
65
 73
2
 40
6.3499999999999996
 49
0.1
 74
0
 49
-6.25
 74
0
  0
LTYPE
  5
4B
100
AcDbSymbolTableRecord
100
AcDbLinetypeTableRecord
  2
CENTERX2
 70
0
  3
Center (2x) ________  __  ________  __  _____
 72
65
 73
4
 40
101.6000000000000085
 49
63.5
 74
0
 49
-12.6999999999999993
 74
0
 49
12.6999999999999993
 74
0
 49
-12.6999999999999993
 74
0
  0
LTYPE
  5
4C
100
AcDbSymbolTableRecord
100
AcDbLinetypeTableRecord
  2
ACAD_ISO06W100
 70
0
  3
ISO long-dash triple-dot ____ ... ____ ... ____
 72
65
 73
8
 40
36.0000000000000071
 49
24.0
 74
0
 49
-2.9500000000000002
 74
0
 49
0.1
 74
0
 49
-2.9000000000000004
 74
0
 49
0.1
 74
0
 49
-2.9000000000000004
 74
0
 49
0.1
 74
0
 49
-2.9500000000000002
 74
0
  0
LTYPE
  5
4D
100
AcDbSymbolTableRecord
100
AcDbLinetypeTableRecord
  2
CENTER2
 70
0
  3
Center (.5x) ___ _ ___ _ ___ _ ___ _ ___ _ ___
 72
65
 73
4
 40
28.5750000000000028
 49
19.0500000000000007
 74
0
 49
-3.1749999999999998
 74
0
 49
3.1749999999999998
 74
0
 49
-3.1749999999999998
 74
0
  0
LTYPE
  5
4E
100
AcDbSymbolTableRecord
100
AcDbLinetypeTableRecord
  2
ACAD_ISO13W100
 70
0
  3
ISO double-dash double-dot __ __ . . __ __ . . _
 72
65
 73
8
 40
36.0000000000000071
 49
12.0
 74
0
 49
-3.0
 74
0
 49
12.0
 74
0
 49
-2.9500000000000002
 74
0
 49
0.1
 74
0
 49
-2.9000000000000004
 74
0
 49
0.1
 74
0
 49
-2.9500000000000002
 74
0
  0
LTYPE
  5
4F
100
AcDbSymbolTableRecord
100
AcDbLinetypeTableRecord
  2
PHANTOMX2
 70
0
  3
Phantom (2x) ____________    ____    ____   _
 72
65
 73
6
 40
127.0000000000000142
 49
63.5
 74
0
 49
-12.6999999999999993
 74
0
 49
12.6999999999999993
 74
0
 49
-12.6999999999999993
 74
0
 49
12.6999999999999993
 74
0
 49
-12.6999999999999993
 74
0
  0
LTYPE
  5
50
100
AcDbSymbolTableRecord
100
AcDbLinetypeTableRecord
  2
ACAD_ISO02W100
 70
0
  3
ISO dash __ __ __ __ __ __ __ __ __ __ __ __ __
 72
65
 73
2
 40
15.0
 49
12.0
 74
0
 49
-3.0
 74
0
  0
LTYPE
  5
51
100
AcDbSymbolTableRecord
100
AcDbLinetypeTableRecord
  2
DASHED
 70
0
  3
Dashed __ __ __ __ __ __ __ __ __ __ __ __ __ _
 72
65
 73
2
 40
19.0499999999999972
 49
12.6999999999999993
 74
0
 49
-6.3499999999999996
 74
0
  0
LTYPE
  5
52
100
AcDbSymbolTableRecord
100
AcDbLinetypeTableRecord
  2
HIDDENX2
 70
0
  3
Hidden (2x) ____ ____ ____ ____ ____ ____ ____ 
 72
65
 73
2
 40
19.0499999999999972
 49
12.6999999999999993
 74
0
 49
-6.3499999999999996
 74
0
  0
LTYPE
  5
53
100
AcDbSymbolTableRecord
100
AcDbLinetypeTableRecord
  2
ACAD_ISO15W100
 70
0
  3
ISO double-dash triple-dot __ __ . . . __ __ . .
 72
65
 73
10
 40
39.0000000000000071
 49
12.0
 74
0
 49
-3.0
 74
0
 49
12.0
 74
0
 49
-2.9500000000000002
 74
0
 49
0.1
 74
0
 49
-2.9000000000000004
 74
0
 49
0.1
 74
0
 49
-2.9000000000000004
 74
0
 49
0.1
 74
0
 49
-2.9500000000000002
 74
0
  0
LTYPE
  5
54
100
AcDbSymbolTableRecord
100
AcDbLinetypeTableRecord
  2
CENTER
 70
0
  3
Center ____ _ ____ _ ____ _ ____ _ ____ _ ____
 72
65
 73
4
 40
50.8000000000000043
 49
31.75
 74
0
 49
-6.3499999999999996
 74
0
 49
6.3499999999999996
 74
0
 49
-6.3499999999999996
 74
0
  0
LTYPE
  5
15
100
AcDbSymbolTableRecord
100
AcDbLinetypeTableRecord
  2
BYLAYER
 70
0
  3

 72
65
 73
0
 40
0.0
  0
LTYPE
  5
55
100
AcDbSymbolTableRecord
100
AcDbLinetypeTableRecord
  2
ACAD_ISO05W100
 70
0
  3
ISO long-dash double-dot ____ .. ____ .. ____ . 
 72
65
 73
6
 40
33.0000000000000071
 49
24.0
 74
0
 49
-2.9500000000000002
 74
0
 49
0.1
 74
0
 49
-2.9000000000000004
 74
0
 49
0.1
 74
0
 49
-2.9500000000000002
 74
0
  0
LTYPE
  5
56
100
AcDbSymbolTableRecord
100
AcDbLinetypeTableRecord
  2
ACAD_ISO14W100
 70
0
  3
ISO dash triple-dot __ . . . __ . . . __ . . . _
 72
65
 73
8
 40
24.0000000000000036
 49
12.0
 74
0
 49
-2.9500000000000002
 74
0
 49
0.1
 74
0
 49
-2.9000000000000004
 74
0
 49
0.1
 74
0
 49
-2.9000000000000004
 74
0
 49
0.1
 74
0
 49
-2.9500000000000002
 74
0
  0
ENDTAB
  0
TABLE
  2
LAYER
  5
2
100
AcDbSymbolTable
 70
1
  0
LAYER
  5
10
100
AcDbSymbolTableRecord
100
AcDbLayerTableRecord
  2
0
 70
0
 62
7
420
16777215
  6
Continuous
370
25
390
F
  0
ENDTAB
  0
TABLE
  2
STYLE
  5
3
100
AcDbSymbolTable
 70
1
  0
STYLE
  5
57
100
AcDbSymbolTableRecord
100
AcDbTextStyleTableRecord
  2
Standard
 70
0
 40
0.0
 41
1.0
 50
0.0
 71
0
 42
2.5
  3

  4

1001
ACAD
1000
txt
1071
0
  0
ENDTAB
  0
TABLE
  2
VIEW
  5
6
100
AcDbSymbolTable
 70
0
  0
ENDTAB
  0
TABLE
  2
UCS
  5
7
100
AcDbSymbolTable
 70
0
  0
ENDTAB
  0
TABLE
  2
APPID
  5
9
100
AcDbSymbolTable
 70
1
  0
APPID
  5
12
100
AcDbSymbolTableRecord
100
AcDbRegAppTableRecord
  2
ACAD
 70
0
  0
APPID
  5
58
100
AcDbSymbolTableRecord
100
AcDbRegAppTableRecord
  2
QCAD
 70
0
  0
ENDTAB
  0
TABLE
  2
DIMSTYLE
  5
A
100
AcDbSymbolTable
 70
1
100
AcDbDimStyleTable
 71
0
  0
DIMSTYLE
105
27
100
AcDbSymbolTableRecord
100
AcDbDimStyleTableRecord
  2
Standard
 41
2.5
 42
0.625
 43
3.75
 44
1.25
 70
0
 73
0
 74
0
 77
1
 78
8
140
2.5
141
2.5
143
0.03937007874016
147
0.625
171
3
172
1
271
2
272
2
274
3
278
44
283
0
284
8
340
57
  0
ENDTAB
  0
TABLE
  2
BLOCK_RECORD
  5
1
100
AcDbSymbolTable
 70
1
  0
BLOCK_RECORD
  5
1F
100
AcDbSymbolTableRecord
100
AcDbBlockTableRecord
  2
*Model_Space
340
22
  0
BLOCK_RECORD
  5
1B
100
AcDbSymbolTableRecord
100
AcDbBlockTableRecord
  2
*Paper_Space
340
1E
  0
BLOCK_RECORD
  5
23
100
AcDbSymbolTableRecord
100
AcDbBlockTableRecord
  2
*Paper_Space0
340
26
  0
ENDTAB
  0
ENDSEC
  0
SECTION
  2
BLOCKS
  0
BLOCK
  5
20
100
AcDbEntity
  8
0
100
AcDbBlockBegin
  2
*Model_Space
 70
0
 10
0.0
 20
0.0
 30
0.0
  3
*Model_Space
  1

  0
ENDBLK
  5
21
100
AcDbEntity
  8
0
100
AcDbBlockEnd
  0
BLOCK
  5
1C
100
AcDbEntity
 67
1
  8
0
100
AcDbBlockBegin
  2
*Paper_Space
 70
0
 10
0.0
 20
0.0
 30
0.0
  3
*Paper_Space
  1

  0
ENDBLK
  5
1D
100
AcDbEntity
 67
1
  8
0
100
AcDbBlockEnd
  0
BLOCK
  5
24
100
AcDbEntity
  8
0
100
AcDbBlockBegin
  2
*Paper_Space0
 70
0
 10
0.0
 20
0.0
 30
0.0
  3
*Paper_Space0
  1

  0
ENDBLK
  5
25
100
AcDbEntity
  8
0
100
AcDbBlockEnd
  0
ENDSEC
  0
SECTION
  2
ENTITIES
  0
LINE
  5
59
100
AcDbEntity
  8
0
 62
256
370
-1
 48
1.0
  6
BYLAYER
100
AcDbLine
 10
120.0
 20
75.0
 30
0.0
 11
-95.0
 21
75.0
 31
0.0
  0
LINE
  5
5A
100
AcDbEntity
  8
0
 62
256
370
-1
 48
1.0
  6
BYLAYER
100
AcDbLine
 10
-95.0
 20
75.0
 30
0.0
 11
-95.0
 21
-75.0
 31
0.0
  0
CIRCLE
  5
5B
100
AcDbEntity
  8
0
 62
256
370
-1
 48
1.0
  6
BYLAYER
100
AcDbCircle
 10
-80.0
 20
57.5
 30
0.0
 40
1.5
  0
CIRCLE
  5
5C
100
AcDbEntity
  8
0
 62
256
370
-1
 48
1.0
  6
BYLAYER
100
AcDbCircle
 10
-80.0
 20
-57.4999999999999787
 30
0.0
 40
1.5
  0
CIRCLE
  5
5D
100
AcDbEntity
  8
0
 62
256
370
-1
 48
1.0
  6
BYLAYER
100
AcDbCircle
 10
-80.0
 20
17.5
 30
0.0
 40
1.5
  0
CIRCLE
  5
5E
100
AcDbEntity
  8
0
 62
256
370
-1
 48
1.0
  6
BYLAYER
100
AcDbCircle
 10
-80.0
 20
-17.5000000000000391
 30
0.0
 40
1.5
  0
CIRCLE
  5
5F
100
AcDbEntity
  8
0
 62
5
420
255
370
-1
 48
1.0
  6
BYLAYER
100
AcDbCircle
 10
198.0636899030159839
 20
171.0104206033238086
 30
0.0
 40
11.5
  0
CIRCLE
  5
60
100
AcDbEntity
  8
0
 62
3
420
65280
370
-1
 48
1.0
  6
BYLAYER
100
AcDbCircle
 10
400.0
 20
200.0
 30
0.0
 40
11.5
  0
CIRCLE
  5
61
100
AcDbEntity
  8
0
 62
1
420
16711680
370
-1
 48
1.0
  6
BYLAYER
100
AcDbCircle
 10
302.9135029720844159
 20
-2.2888011360062137
 30
0.0
 40
11.5
  0
CIRCLE
  5
62
100
AcDbEntity
  8
0
 62
5
420
255
370
-1
 48
1.0
  6
BYLAYER
100
AcDbCircle
 10
177.5
 20
251.5
 30
0.0
 40
3.6000000000000227
  0
LINE
  5
63
100
AcDbEntity
  8
0
 62
5
420
255
370
-1
 48
1.0
  6
BYLAYER
100
AcDbLine
 10
98.8614216403992714
 20
138.5
 30
0.0
 11
98.8614216403992714
 21
288.5
 31
0.0
  0
LINE
  5
64
100
AcDbEntity
  8
0
 62
5
420
255
370
-1
 48
1.0
  6
BYLAYER
100
AcDbLine
 10
-128.6385783596008991
 20
138.5
 30
0.0
 11
-128.6385783596008991
 21
288.5
 31
0.0
  0
CIRCLE
  5
65
100
AcDbEntity
  8
0
 62
5
420
255
370
-1
 48
1.0
  6
BYLAYER
100
AcDbCircle
 10
-50.0
 20
251.5
 30
0.0
 40
3.5999999999999091
  0
LINE
  5
66
100
AcDbEntity
  8
0
 62
5
420
255
370
-1
 48
1.0
  6
BYLAYER
100
AcDbLine
 10
98.8614216403992714
 20
138.5
 30
0.0
 11
105.5280883070660138
 21
138.5
 31
0.0
  0
LINE
  5
67
100
AcDbEntity
  8
0
 62
5
420
255
370
-1
 48
1.0
  6
BYLAYER
100
AcDbLine
 10
-128.6385783596008991
 20
138.5
 30
0.0
 11
-121.9719116929341567
 21
138.5
 31
0.0
  0
LINE
  5
68
100
AcDbEntity
  8
0
 62
5
420
255
370
-1
 48
1.0
  6
BYLAYER
100
AcDbLine
 10
-53.1499999999999702
 20
-28.5210662302994109
 30
0.0
 11
-49.1499999999999773
 21
-28.5210662302994074
 31
0.0
  0
LINE
  5
69
100
AcDbEntity
  8
0
 62
5
420
255
370
-1
 48
1.0
  6
BYLAYER
100
AcDbLine
 10
-263.1499999999999773
 20
125.4929779232333829
 30
0.0
 11
-259.1499999999999773
 21
125.4929779232333829
 31
0.0
  0
LINE
  5
6A
100
AcDbEntity
  8
0
 62
5
420
255
370
-1
 48
1.0
  6
BYLAYER
100
AcDbLine
 10
9.1499999999999524
 20
-28.5210662302994358
 30
0.0
 11
13.1499999999999773
 21
-28.5210662302994109
 31
0.0
  0
LINE
  5
6B
100
AcDbEntity
  8
0
 62
5
420
255
370
-1
 48
1.0
  6
BYLAYER
100
AcDbLine
 10
192.9929779232339229
 20
274.5
 30
0.0
 11
192.9929779232338944
 21
278.5
 31
0.0
  0
LINE
  5
6C
100
AcDbEntity
  8
0
 62
5
420
255
370
-1
 48
1.0
  6
BYLAYER
100
AcDbLine
 10
-34.5070220767662761
 20
274.5
 30
0.0
 11
-34.5070220767663045
 21
278.5
 31
0.0
  0
LINE
  5
6D
100
AcDbEntity
  8
0
 62
5
420
255
370
-1
 48
1.0
  6
BYLAYER
100
AcDbLine
 10
-200.8500000000000512
 20
125.4929779232333544
 30
0.0
 11
-196.8500000000000227
 21
125.4929779232333829
 31
0.0
  0
LINE
  5
6E
100
AcDbEntity
  8
0
 62
5
420
255
370
-1
 48
1.0
  6
BYLAYER
100
AcDbLine
 10
9.1499999999999773
 20
25.7982229495012589
 30
0.0
 11
13.1500000000000057
 21
25.7982229495012874
 31
0.0
  0
LINE
  5
6F
100
AcDbEntity
  8
0
 62
5
420
255
370
-1
 48
1.0
  6
BYLAYER
100
AcDbLine
 10
9.1500000000000021
 20
44.6245342060681267
 30
0.0
 11
13.1500000000000323
 21
44.6245342060681551
 31
0.0
  0
LINE
  5
70
100
AcDbEntity
  8
0
 62
5
420
255
370
-1
 48
1.0
  6
BYLAYER
100
AcDbLine
 10
-53.1499999999999702
 20
25.7982229495012589
 30
0.0
 11
-49.1499999999999417
 21
25.7982229495012874
 31
0.0
  0
LINE
  5
71
100
AcDbEntity
  8
0
 62
5
420
255
370
-1
 48
1.0
  6
BYLAYER
100
AcDbLine
 10
-53.1499999999999488
 20
44.6245342060681267
 30
0.0
 11
-49.1499999999999133
 21
44.6245342060681551
 31
0.0
  0
LINE
  5
72
100
AcDbEntity
  8
0
 62
5
420
255
370
-1
 48
1.0
  6
BYLAYER
100
AcDbLine
 10
138.6736887434332459
 20
274.5000000000000568
 30
0.0
 11
138.6736887434332175
 21
278.5000000000000568
 31
0.0
  0
LINE
  5
73
100
AcDbEntity
  8
0
 62
5
420
255
370
-1
 48
1.0
  6
BYLAYER
100
AcDbLine
 10
119.8473774868663781
 20
274.5000000000000568
 30
0.0
 11
119.8473774868663497
 21
278.5000000000000568
 31
0.0
  0
LINE
  5
74
100
AcDbEntity
  8
0
 62
5
420
255
370
-1
 48
1.0
  6
BYLAYER
100
AcDbLine
 10
-88.826311256566953
 20
274.5000000000000568
 30
0.0
 11
-88.8263112565669815
 21
278.5000000000000568
 31
0.0
  0
LINE
  5
75
100
AcDbEntity
  8
0
 62
5
420
255
370
-1
 48
1.0
  6
BYLAYER
100
AcDbLine
 10
-107.6526225131338208
 20
274.5000000000000568
 30
0.0
 11
-107.6526225131338492
 21
278.5000000000000568
 31
0.0
  0
LINE
  5
76
100
AcDbEntity
  8
0
 62
5
420
255
370
-1
 48
1.0
  6
BYLAYER
100
AcDbLine
 10
-200.8499999999999375
 20
179.8122671030340314
 30
0.0
 11
-196.8499999999999375
 21
179.8122671030340598
 31
0.0
  0
LINE
  5
77
100
AcDbEntity
  8
0
 62
5
420
255
370
-1
 48
1.0
  6
BYLAYER
100
AcDbLine
 10
-200.8499999999999375
 20
198.6385783596008991
 30
0.0
 11
-196.8499999999999375
 21
198.6385783596009276
 31
0.0
  0
LINE
  5
78
100
AcDbEntity
  8
0
 62
5
420
255
370
-1
 48
1.0
  6
BYLAYER
100
AcDbLine
 10
-259.1500000000000909
 20
179.8122671030340598
 30
0.0
 11
-263.1500000000000909
 21
179.8122671030340882
 31
0.0
  0
LINE
  5
79
100
AcDbEntity
  8
0
 62
5
420
255
370
-1
 48
1.0
  6
BYLAYER
100
AcDbLine
 10
-259.1500000000000341
 20
198.6385783596009276
 30
0.0
 11
-263.1500000000000341
 21
198.638578359600956
 31
0.0
  0
LINE
  5
7A
100
AcDbEntity
  8
0
 62
5
420
255
370
-1
 48
1.0
  6
BYLAYER
100
AcDbLine
 10
190.8333333333334849
 20
138.5
 30
0.0
 11
190.8333333333335133
 21
134.5
 31
0.0
  0
LINE
  5
7B
100
AcDbEntity
  8
0
 62
5
420
255
370
-1
 48
1.0
  6
BYLAYER
100
AcDbLine
 10
-36.666666666666714
 20
138.5
 30
0.0
 11
-36.6666666666666856
 21
134.5
 31
0.0
  0
LINE
  5
7C
100
AcDbEntity
  8
0
 62
5
420
255
370
-1
 48
1.0
  6
BYLAYER
100
AcDbLine
 10
153.1807108201997494
 20
138.5
 30
0.0
 11
153.1807108201997778
 21
134.5
 31
0.0
  0
LINE
  5
7D
100
AcDbEntity
  8
0
 62
5
420
255
370
-1
 48
1.0
  6
BYLAYER
100
AcDbLine
 10
115.5280883070660138
 20
138.5
 30
0.0
 11
115.5280883070660423
 21
134.5
 31
0.0
  0
LINE
  5
7E
100
AcDbEntity
  8
0
 62
5
420
255
370
-1
 48
1.0
  6
BYLAYER
100
AcDbLine
 10
-74.3192891798004212
 20
138.5
 30
0.0
 11
-74.3192891798003927
 21
134.5
 31
0.0
  0
LINE
  5
7F
100
AcDbEntity
  8
0
 62
5
420
255
370
-1
 48
1.0
  6
BYLAYER
100
AcDbLine
 10
-111.9719116929341567
 20
138.5
 30
0.0
 11
-111.9719116929341283
 21
134.5
 31
0.0
  0
LINE
  5
80
100
AcDbEntity
  8
0
 62
5
420
255
370
-1
 48
1.0
  6
BYLAYER
100
AcDbLine
 10
-49.1499999999999773
 20
-28.5210662302994074
 30
0.0
 11
-49.1499999999999773
 21
-18.5210662302994145
 31
0.0
  0
LINE
  5
81
100
AcDbEntity
  8
0
 62
5
420
255
370
-1
 48
1.0
  6
BYLAYER
100
AcDbLine
 10
-259.1499999999999773
 20
142.1596445899003527
 30
0.0
 11
-259.1499999999999773
 21
135.4929779232333829
 31
0.0
  0
LINE
  5
82
100
AcDbEntity
  8
0
 62
5
420
255
370
-1
 48
1.0
  6
BYLAYER
100
AcDbLine
 10
13.1499999999999773
 20
-28.5210662302994109
 30
0.0
 11
13.1499999999999773
 21
-18.5210662302994251
 31
0.0
  0
LINE
  5
83
100
AcDbEntity
  8
0
 62
5
420
255
370
-1
 48
1.0
  6
BYLAYER
100
AcDbLine
 10
192.9929779232338944
 20
278.5
 30
0.0
 11
182.9929779232339229
 21
278.5
 31
0.0
  0
LINE
  5
84
100
AcDbEntity
  8
0
 62
5
420
255
370
-1
 48
1.0
  6
BYLAYER
100
AcDbLine
 10
-34.5070220767663045
 20
278.5
 30
0.0
 11
-44.5070220767662761
 21
278.5
 31
0.0
  0
LINE
  5
85
100
AcDbEntity
  8
0
 62
5
420
255
370
-1
 48
1.0
  6
BYLAYER
100
AcDbLine
 10
-196.8500000000000227
 20
125.4929779232333829
 30
0.0
 11
-196.8500000000000227
 21
135.4929779232333544
 31
0.0
  0
LINE
  5
86
100
AcDbEntity
  8
0
 62
5
420
255
370
-1
 48
1.0
  6
BYLAYER
100
AcDbLine
 10
13.1500000000000057
 20
25.7982229495012874
 30
0.0
 11
13.1500000000000057
 21
35.7982229495012731
 31
0.0
  0
LINE
  5
87
100
AcDbEntity
  8
0
 62
5
420
255
370
-1
 48
1.0
  6
BYLAYER
100
AcDbLine
 10
13.1500000000000323
 20
44.6245342060681551
 30
0.0
 11
13.1500000000000323
 21
54.6245342060681338
 31
0.0
  0
LINE
  5
88
100
AcDbEntity
  8
0
 62
5
420
255
370
-1
 48
1.0
  6
BYLAYER
100
AcDbLine
 10
-49.1499999999999417
 20
25.7982229495012874
 30
0.0
 11
-49.1499999999999417
 21
35.7982229495012731
 31
0.0
  0
LINE
  5
89
100
AcDbEntity
  8
0
 62
5
420
255
370
-1
 48
1.0
  6
BYLAYER
100
AcDbLine
 10
-49.1499999999999133
 20
44.6245342060681551
 30
0.0
 11
-49.1499999999999133
 21
54.6245342060681338
 31
0.0
  0
LINE
  5
8A
100
AcDbEntity
  8
0
 62
5
420
255
370
-1
 48
1.0
  6
BYLAYER
100
AcDbLine
 10
138.6736887434332175
 20
278.5000000000000568
 30
0.0
 11
128.6736887434332175
 21
278.5000000000000568
 31
0.0
  0
LINE
  5
8B
100
AcDbEntity
  8
0
 62
5
420
255
370
-1
 48
1.0
  6
BYLAYER
100
AcDbLine
 10
119.8473774868663497
 20
278.5000000000000568
 30
0.0
 11
109.8473774868663781
 21
278.5000000000001137
 31
0.0
  0
LINE
  5
8C
100
AcDbEntity
  8
0
 62
5
420
255
370
-1
 48
1.0
  6
BYLAYER
100
AcDbLine
 10
-88.8263112565669815
 20
278.5000000000000568
 30
0.0
 11
-98.8263112565669815
 21
278.5000000000000568
 31
0.0
  0
LINE
  5
8D
100
AcDbEntity
  8
0
 62
5
420
255
370
-1
 48
1.0
  6
BYLAYER
100
AcDbLine
 10
-107.6526225131338492
 20
278.5000000000000568
 30
0.0
 11
-117.6526225131338208
 21
278.5000000000001137
 31
0.0
  0
LINE
  5
8E
100
AcDbEntity
  8
0
 62
5
420
255
370
-1
 48
1.0
  6
BYLAYER
100
AcDbLine
 10
-196.8499999999999375
 20
179.8122671030340598
 30
0.0
 11
-196.8499999999999375
 21
189.8122671030340598
 31
0.0
  0
LINE
  5
8F
100
AcDbEntity
  8
0
 62
5
420
255
370
-1
 48
1.0
  6
BYLAYER
100
AcDbLine
 10
-196.8499999999999375
 20
198.6385783596009276
 30
0.0
 11
-196.8499999999999375
 21
208.6385783596008991
 31
0.0
  0
LINE
  5
90
100
AcDbEntity
  8
0
 62
5
420
255
370
-1
 48
1.0
  6
BYLAYER
100
AcDbLine
 10
-263.1500000000000909
 20
179.8122671030340882
 30
0.0
 11
-263.1500000000000341
 21
189.8122671030340882
 31
0.0
  0
LINE
  5
91
100
AcDbEntity
  8
0
 62
5
420
255
370
-1
 48
1.0
  6
BYLAYER
100
AcDbLine
 10
-263.1500000000000341
 20
198.638578359600956
 30
0.0
 11
-263.1500000000000341
 21
208.6385783596009276
 31
0.0
  0
LINE
  5
92
100
AcDbEntity
  8
0
 62
5
420
255
370
-1
 48
1.0
  6
BYLAYER
100
AcDbLine
 10
190.8333333333335133
 20
134.5
 30
0.0
 11
180.8333333333334849
 21
134.5
 31
0.0
  0
LINE
  5
93
100
AcDbEntity
  8
0
 62
5
420
255
370
-1
 48
1.0
  6
BYLAYER
100
AcDbLine
 10
153.1807108201997778
 20
134.5
 30
0.0
 11
143.1807108201997494
 21
134.5
 31
0.0
  0
LINE
  5
94
100
AcDbEntity
  8
0
 62
5
420
255
370
-1
 48
1.0
  6
BYLAYER
100
AcDbLine
 10
115.5280883070660423
 20
134.5
 30
0.0
 11
105.5280883070660138
 21
134.5
 31
0.0
  0
LINE
  5
95
100
AcDbEntity
  8
0
 62
5
420
255
370
-1
 48
1.0
  6
BYLAYER
100
AcDbLine
 10
-74.3192891798003927
 20
134.5
 30
0.0
 11
-84.3192891798004212
 21
134.5
 31
0.0
  0
LINE
  5
96
100
AcDbEntity
  8
0
 62
5
420
255
370
-1
 48
1.0
  6
BYLAYER
100
AcDbLine
 10
-111.9719116929341283
 20
134.5
 30
0.0
 11
-121.9719116929341567
 21
134.5
 31
0.0
  0
LINE
  5
97
100
AcDbEntity
  8
0
 62
5
420
255
370
-1
 48
1.0
  6
BYLAYER
100
AcDbLine
 10
-49.1499999999999773
 20
-18.5210662302994145
 30
0.0
 11
-53.1499999999999773
 21
-18.5210662302994109
 31
0.0
  0
LINE
  5
98
100
AcDbEntity
  8
0
 62
5
420
255
370
-1
 48
1.0
  6
BYLAYER
100
AcDbLine
 10
-259.1499999999999773
 20
135.4929779232333829
 30
0.0
 11
-263.1499999999999773
 21
135.4929779232333829
 31
0.0
  0
LINE
  5
99
100
AcDbEntity
  8
0
 62
5
420
255
370
-1
 48
1.0
  6
BYLAYER
100
AcDbLine
 10
13.1499999999999773
 20
-18.5210662302994251
 30
0.0
 11
9.1499999999999666
 21
-18.5210662302994251
 31
0.0
  0
LINE
  5
9A
100
AcDbEntity
  8
0
 62
5
420
255
370
-1
 48
1.0
  6
BYLAYER
100
AcDbLine
 10
182.9929779232339229
 20
278.5
 30
0.0
 11
182.9929779232339229
 21
274.5
 31
0.0
  0
LINE
  5
9B
100
AcDbEntity
  8
0
 62
5
420
255
370
-1
 48
1.0
  6
BYLAYER
100
AcDbLine
 10
-44.5070220767662761
 20
278.5
 30
0.0
 11
-44.5070220767662761
 21
274.5
 31
0.0
  0
LINE
  5
9C
100
AcDbEntity
  8
0
 62
5
420
255
370
-1
 48
1.0
  6
BYLAYER
100
AcDbLine
 10
-196.8500000000000227
 20
135.4929779232333544
 30
0.0
 11
-200.8500000000000227
 21
135.4929779232333544
 31
0.0
  0
LINE
  5
9D
100
AcDbEntity
  8
0
 62
5
420
255
370
-1
 48
1.0
  6
BYLAYER
100
AcDbLine
 10
13.1500000000000057
 20
35.7982229495012731
 30
0.0
 11
9.1499999999999915
 21
35.7982229495012731
 31
0.0
  0
LINE
  5
9E
100
AcDbEntity
  8
0
 62
5
420
255
370
-1
 48
1.0
  6
BYLAYER
100
AcDbLine
 10
13.1500000000000323
 20
54.6245342060681338
 30
0.0
 11
9.1500000000000163
 21
54.6245342060681338
 31
0.0
  0
LINE
  5
9F
100
AcDbEntity
  8
0
 62
5
420
255
370
-1
 48
1.0
  6
BYLAYER
100
AcDbLine
 10
-49.1499999999999417
 20
35.7982229495012731
 30
0.0
 11
-53.1499999999999559
 21
35.7982229495012731
 31
0.0
  0
LINE
  5
A0
100
AcDbEntity
  8
0
 62
5
420
255
370
-1
 48
1.0
  6
BYLAYER
100
AcDbLine
 10
-49.1499999999999133
 20
54.6245342060681338
 30
0.0
 11
-53.1499999999999346
 21
54.6245342060681338
 31
0.0
  0
LINE
  5
A1
100
AcDbEntity
  8
0
 62
5
420
255
370
-1
 48
1.0
  6
BYLAYER
100
AcDbLine
 10
128.6736887434332175
 20
278.5000000000000568
 30
0.0
 11
128.6736887434332175
 21
274.5000000000000568
 31
0.0
  0
LINE
  5
A2
100
AcDbEntity
  8
0
 62
5
420
255
370
-1
 48
1.0
  6
BYLAYER
100
AcDbLine
 10
109.8473774868663781
 20
278.5000000000001137
 30
0.0
 11
109.8473774868663781
 21
274.5000000000000568
 31
0.0
  0
LINE
  5
A3
100
AcDbEntity
  8
0
 62
5
420
255
370
-1
 48
1.0
  6
BYLAYER
100
AcDbLine
 10
-98.8263112565669815
 20
278.5000000000000568
 30
0.0
 11
-98.8263112565669815
 21
274.5000000000000568
 31
0.0
  0
LINE
  5
A4
100
AcDbEntity
  8
0
 62
5
420
255
370
-1
 48
1.0
  6
BYLAYER
100
AcDbLine
 10
-117.6526225131338208
 20
278.5000000000001137
 30
0.0
 11
-117.6526225131338208
 21
274.5000000000000568
 31
0.0
  0
LINE
  5
A5
100
AcDbEntity
  8
0
 62
5
420
255
370
-1
 48
1.0
  6
BYLAYER
100
AcDbLine
 10
-196.8499999999999375
 20
189.8122671030340598
 30
0.0
 11
-200.8499999999999375
 21
189.8122671030340598
 31
0.0
  0
LINE
  5
A6
100
AcDbEntity
  8
0
 62
5
420
255
370
-1
 48
1.0
  6
BYLAYER
100
AcDbLine
 10
-263.1500000000000341
 20
189.8122671030340882
 30
0.0
 11
-259.1500000000000341
 21
189.8122671030340882
 31
0.0
  0
LINE
  5
A7
100
AcDbEntity
  8
0
 62
5
420
255
370
-1
 48
1.0
  6
BYLAYER
100
AcDbLine
 10
-263.1500000000000341
 20
208.6385783596009276
 30
0.0
 11
-196.8499999999999375
 21
208.6385783596008991
 31
0.0
  0
LINE
  5
A8
100
AcDbEntity
  8
0
 62
5
420
255
370
-1
 48
1.0
  6
BYLAYER
100
AcDbLine
 10
-53.1499999999999773
 20
-11.8543995636324428
 30
0.0
 11
-49.1499999999999773
 21
-11.8543995636324393
 31
0.0
  0
LINE
  5
A9
100
AcDbEntity
  8
0
 62
5
420
255
370
-1
 48
1.0
  6
BYLAYER
100
AcDbLine
 10
-263.1499999999999773
 20
142.1596445899003527
 30
0.0
 11
-259.1499999999999773
 21
142.1596445899003527
 31
0.0
  0
LINE
  5
AA
100
AcDbEntity
  8
0
 62
5
420
255
370
-1
 48
1.0
  6
BYLAYER
100
AcDbLine
 10
9.1499999999999773
 20
-11.85439956363245
 30
0.0
 11
13.1499999999999702
 21
-11.8543995636324553
 31
0.0
  0
LINE
  5
AB
100
AcDbEntity
  8
0
 62
5
420
255
370
-1
 48
1.0
  6
BYLAYER
100
AcDbLine
 10
176.3263112565669246
 20
274.5
 30
0.0
 11
176.326311256566953
 21
278.5
 31
0.0
  0
LINE
  5
AC
100
AcDbEntity
  8
0
 62
5
420
255
370
-1
 48
1.0
  6
BYLAYER
100
AcDbLine
 10
-51.1736887434332743
 20
274.5
 30
0.0
 11
-51.1736887434332459
 21
278.5
 31
0.0
  0
LINE
  5
AD
100
AcDbEntity
  8
0
 62
5
420
255
370
-1
 48
1.0
  6
BYLAYER
100
AcDbLine
 10
-200.8500000000000227
 20
142.1596445899003527
 30
0.0
 11
-196.8500000000000227
 21
142.1596445899003243
 31
0.0
  0
LINE
  5
AE
100
AcDbEntity
  8
0
 62
5
420
255
370
-1
 48
1.0
  6
BYLAYER
100
AcDbLine
 10
-49.1499999999999773
 20
-11.8543995636324393
 30
0.0
 11
-49.1499999999999773
 21
-1.8543995636324475
 31
0.0
  0
LINE
  5
AF
100
AcDbEntity
  8
0
 62
5
420
255
370
-1
 48
1.0
  6
BYLAYER
100
AcDbLine
 10
13.1499999999999773
 20
-11.8543995636324553
 30
0.0
 11
13.1499999999999773
 21
-1.8543995636324482
 31
0.0
  0
LINE
  5
B0
100
AcDbEntity
  8
0
 62
5
420
255
370
-1
 48
1.0
  6
BYLAYER
100
AcDbLine
 10
176.326311256566953
 20
278.5
 30
0.0
 11
166.3263112565669246
 21
278.5
 31
0.0
  0
LINE
  5
B1
100
AcDbEntity
  8
0
 62
5
420
255
370
-1
 48
1.0
  6
BYLAYER
100
AcDbLine
 10
237.3122671030343156
 20
288.5
 30
0.0
 11
98.8614216403992714
 21
288.5
 31
0.0
  0
LINE
  5
B2
100
AcDbEntity
  8
0
 62
5
420
255
370
-1
 48
1.0
  6
BYLAYER
100
AcDbLine
 10
-51.1736887434332459
 20
278.5
 30
0.0
 11
-61.1736887434332743
 21
278.5
 31
0.0
  0
LINE
  5
B3
100
AcDbEntity
  8
0
 62
5
420
255
370
-1
 48
1.0
  6
BYLAYER
100
AcDbLine
 10
9.8122671030341166
 20
288.5
 30
0.0
 11
-128.6385783596008991
 21
288.5
 31
0.0
  0
LINE
  5
B4
100
AcDbEntity
  8
0
 62
5
420
255
370
-1
 48
1.0
  6
BYLAYER
100
AcDbLine
 10
-196.8500000000000227
 20
142.1596445899003243
 30
0.0
 11
-196.8500000000000227
 21
152.1596445899003527
 31
0.0
  0
LINE
  5
B5
100
AcDbEntity
  8
0
 62
5
420
255
370
-1
 48
1.0
  6
BYLAYER
100
AcDbLine
 10
13.1499999999999702
 20
-1.8543995636324497
 30
0.0
 11
9.1499999999999773
 21
-1.8543995636324584
 31
0.0
  0
LINE
  5
B6
100
AcDbEntity
  8
0
 62
5
420
255
370
-1
 48
1.0
  6
BYLAYER
100
AcDbLine
 10
166.3263112565669246
 20
278.5
 30
0.0
 11
166.326311256566953
 21
274.5
 31
0.0
  0
LINE
  5
B7
100
AcDbEntity
  8
0
 62
5
420
255
370
-1
 48
1.0
  6
BYLAYER
100
AcDbLine
 10
-61.1736887434332743
 20
278.5
 30
0.0
 11
-61.1736887434332459
 21
274.5
 31
0.0
  0
LINE
  5
B8
100
AcDbEntity
  8
0
 62
5
420
255
370
-1
 48
1.0
  6
BYLAYER
100
AcDbLine
 10
-49.1499999999999773
 20
-1.8543995636324482
 30
0.0
 11
-53.1499999999999702
 21
-1.8543995636324588
 31
0.0
  0
LINE
  5
B9
100
AcDbEntity
  8
0
 62
5
420
255
370
-1
 48
1.0
  6
BYLAYER
100
AcDbLine
 10
-196.8500000000000227
 20
152.1596445899003527
 30
0.0
 11
-200.8499999999999375
 21
152.1596445899003243
 31
0.0
  0
LINE
  5
BA
100
AcDbEntity
  8
0
 62
5
420
255
370
-1
 48
1.0
  6
BYLAYER
100
AcDbLine
 10
-263.1499999999999773
 20
152.1596445899003527
 30
0.0
 11
-259.1500000000000909
 21
152.1596445899003527
 31
0.0
  0
CIRCLE
  5
BB
100
AcDbEntity
  8
0
 62
5
420
255
370
-1
 48
1.0
  6
BYLAYER
100
AcDbCircle
 10
213.5636899030159839
 20
186.5104206033238086
 30
0.0
 40
2.0
  0
CIRCLE
  5
BC
100
AcDbEntity
  8
0
 62
3
420
65280
370
-1
 48
1.0
  6
BYLAYER
100
AcDbCircle
 10
384.5
 20
215.5
 30
0.0
 40
2.0
  0
CIRCLE
  5
BD
100
AcDbEntity
  8
0
 62
3
420
65280
370
-1
 48
1.0
  6
BYLAYER
100
AcDbCircle
 10
384.5
 20
70.5
 30
0.0
 40
2.0
  0
CIRCLE
  5
BE
100
AcDbEntity
  8
0
 62
1
420
16711680
370
-1
 48
1.0
  6
BYLAYER
100
AcDbCircle
 10
287.4135029720844159
 20
13.2111988639937863
 30
0.0
 40
2.0
  0
CIRCLE
  5
BF
100
AcDbEntity
  8
0
 62
1
420
16711680
370
-1
 48
1.0
  6
BYLAYER
100
AcDbCircle
 10
287.4135029720844159
 20
-131.7888011360062137
 30
0.0
 40
2.0
  0
CIRCLE
  5
C0
100
AcDbEntity
  8
0
 62
5
420
255
370
-1
 48
1.0
  6
BYLAYER
100
AcDbCircle
 10
182.5636899030159839
 20
186.5104206033238086
 30
0.0
 40
2.0
  0
CIRCLE
  5
C1
100
AcDbEntity
  8
0
 62
3
420
65280
370
-1
 48
1.0
  6
BYLAYER
100
AcDbCircle
 10
384.5
 20
184.5
 30
0.0
 40
2.0
  0
CIRCLE
  5
C2
100
AcDbEntity
  8
0
 62
3
420
65280
370
-1
 48
1.0
  6
BYLAYER
100
AcDbCircle
 10
384.5
 20
101.5
 30
0.0
 40
2.0
  0
CIRCLE
  5
C3
100
AcDbEntity
  8
0
 62
1
420
16711680
370
-1
 48
1.0
  6
BYLAYER
100
AcDbCircle
 10
287.4135029720844159
 20
-17.7888011360062137
 30
0.0
 40
2.0
  0
CIRCLE
  5
C4
100
AcDbEntity
  8
0
 62
1
420
16711680
370
-1
 48
1.0
  6
BYLAYER
100
AcDbCircle
 10
287.4135029720844159
 20
-100.7888011360062137
 30
0.0
 40
2.0
  0
CIRCLE
  5
C5
100
AcDbEntity
  8
0
 62
5
420
255
370
-1
 48
1.0
  6
BYLAYER
100
AcDbCircle
 10
182.5636899030159839
 20
155.5104206033238086
 30
0.0
 40
2.0
  0
CIRCLE
  5
C6
100
AcDbEntity
  8
0
 62
3
420
65280
370
-1
 48
1.0
  6
BYLAYER
100
AcDbCircle
 10
415.5
 20
184.5
 30
0.0
 40
2.0
  0
CIRCLE
  5
C7
100
AcDbEntity
  8
0
 62
3
420
65280
370
-1
 48
1.0
  6
BYLAYER
100
AcDbCircle
 10
415.5
 20
101.5
 30
0.0
 40
2.0
  0
CIRCLE
  5
C8
100
AcDbEntity
  8
0
 62
1
420
16711680
370
-1
 48
1.0
  6
BYLAYER
100
AcDbCircle
 10
318.4135029720844159
 20
-17.7888011360062137
 30
0.0
 40
2.0
  0
CIRCLE
  5
C9
100
AcDbEntity
  8
0
 62
1
420
16711680
370
-1
 48
1.0
  6
BYLAYER
100
AcDbCircle
 10
318.4135029720844159
 20
-100.7888011360062137
 30
0.0
 40
2.0
  0
CIRCLE
  5
CA
100
AcDbEntity
  8
0
 62
5
420
255
370
-1
 48
1.0
  6
BYLAYER
100
AcDbCircle
 10
213.5636899030159839
 20
155.5104206033238086
 30
0.0
 40
2.0
  0
CIRCLE
  5
CB
100
AcDbEntity
  8
0
 62
3
420
65280
370
-1
 48
1.0
  6
BYLAYER
100
AcDbCircle
 10
415.5
 20
215.5
 30
0.0
 40
2.0
  0
CIRCLE
  5
CC
100
AcDbEntity
  8
0
 62
3
420
65280
370
-1
 48
1.0
  6
BYLAYER
100
AcDbCircle
 10
415.5
 20
70.5
 30
0.0
 40
2.0
  0
CIRCLE
  5
CD
100
AcDbEntity
  8
0
 62
1
420
16711680
370
-1
 48
1.0
  6
BYLAYER
100
AcDbCircle
 10
318.4135029720844159
 20
13.2111988639937863
 30
0.0
 40
2.0
  0
CIRCLE
  5
CE
100
AcDbEntity
  8
0
 62
1
420
16711680
370
-1
 48
1.0
  6
BYLAYER
100
AcDbCircle
 10
318.4135029720844159
 20
-131.7888011360062137
 30
0.0
 40
2.0
  0
LINE
  5
CF
100
AcDbEntity
  8
0
 62
5
420
255
370
-1
 48
1.0
  6
BYLAYER
100
AcDbLine
 10
-53.1499999999999702
 20
-28.5210662302994109
 30
0.0
 11
-53.1499999999999773
 21
-18.5210662302994109
 31
0.0
  0
LINE
  5
D0
100
AcDbEntity
  8
0
 62
5
420
255
370
-1
 48
1.0
  6
BYLAYER
100
AcDbLine
 10
190.8333333333334849
 20
134.5
 30
0.0
 11
180.8333333333334849
 21
134.5
 31
0.0
  0
LINE
  5
D1
100
AcDbEntity
  8
0
 62
5
420
255
370
-1
 48
1.0
  6
BYLAYER
100
AcDbLine
 10
-263.1499999999999773
 20
125.4929779232333829
 30
0.0
 11
-263.1499999999999773
 21
135.4929779232333829
 31
0.0
  0
LINE
  5
D2
100
AcDbEntity
  8
0
 62
5
420
255
370
-1
 48
1.0
  6
BYLAYER
100
AcDbLine
 10
153.1807108201997494
 20
134.5
 30
0.0
 11
143.1807108201997494
 21
134.5
 31
0.0
  0
LINE
  5
D3
100
AcDbEntity
  8
0
 62
5
420
255
370
-1
 48
1.0
  6
BYLAYER
100
AcDbLine
 10
115.5280883070660138
 20
134.5
 30
0.0
 11
105.5280883070660138
 21
134.5
 31
0.0
  0
LINE
  5
D4
100
AcDbEntity
  8
0
 62
5
420
255
370
-1
 48
1.0
  6
BYLAYER
100
AcDbLine
 10
-36.6666666666666856
 20
134.5
 30
0.0
 11
-46.6666666666666856
 21
134.5
 31
0.0
  0
LINE
  5
D5
100
AcDbEntity
  8
0
 62
5
420
255
370
-1
 48
1.0
  6
BYLAYER
100
AcDbLine
 10
-74.3192891798004212
 20
134.5
 30
0.0
 11
-84.3192891798004212
 21
134.5
 31
0.0
  0
LINE
  5
D6
100
AcDbEntity
  8
0
 62
5
420
255
370
-1
 48
1.0
  6
BYLAYER
100
AcDbLine
 10
-111.9719116929341567
 20
134.5
 30
0.0
 11
-121.9719116929341567
 21
134.5
 31
0.0
  0
LINE
  5
D7
100
AcDbEntity
  8
0
 62
5
420
255
370
-1
 48
1.0
  6
BYLAYER
100
AcDbLine
 10
9.1499999999999524
 20
-28.5210662302994358
 30
0.0
 11
9.1499999999999666
 21
-18.5210662302994251
 31
0.0
  0
LINE
  5
D8
100
AcDbEntity
  8
0
 62
5
420
255
370
-1
 48
1.0
  6
BYLAYER
100
AcDbLine
 10
192.9929779232339229
 20
274.5
 30
0.0
 11
182.9929779232339229
 21
274.5
 31
0.0
  0
LINE
  5
D9
100
AcDbEntity
  8
0
 62
5
420
255
370
-1
 48
1.0
  6
BYLAYER
100
AcDbLine
 10
-34.5070220767662761
 20
274.5
 30
0.0
 11
-44.5070220767662761
 21
274.5
 31
0.0
  0
LINE
  5
DA
100
AcDbEntity
  8
0
 62
5
420
255
370
-1
 48
1.0
  6
BYLAYER
100
AcDbLine
 10
-200.8500000000000227
 20
142.1596445899003527
 30
0.0
 11
-200.8500000000000227
 21
135.4929779232333544
 31
0.0
  0
LINE
  5
DB
100
AcDbEntity
  8
0
 62
5
420
255
370
-1
 48
1.0
  6
BYLAYER
100
AcDbLine
 10
9.1499999999999773
 20
25.7982229495012589
 30
0.0
 11
9.1499999999999915
 21
35.7982229495012731
 31
0.0
  0
LINE
  5
DC
100
AcDbEntity
  8
0
 62
5
420
255
370
-1
 48
1.0
  6
BYLAYER
100
AcDbLine
 10
9.1500000000000021
 20
44.6245342060681267
 30
0.0
 11
9.1500000000000163
 21
54.6245342060681338
 31
0.0
  0
LINE
  5
DD
100
AcDbEntity
  8
0
 62
5
420
255
370
-1
 48
1.0
  6
BYLAYER
100
AcDbLine
 10
-53.1499999999999702
 20
25.7982229495012589
 30
0.0
 11
-53.1499999999999559
 21
35.7982229495012731
 31
0.0
  0
LINE
  5
DE
100
AcDbEntity
  8
0
 62
5
420
255
370
-1
 48
1.0
  6
BYLAYER
100
AcDbLine
 10
-53.1499999999999488
 20
44.6245342060681267
 30
0.0
 11
-53.1499999999999346
 21
54.6245342060681338
 31
0.0
  0
LINE
  5
DF
100
AcDbEntity
  8
0
 62
5
420
255
370
-1
 48
1.0
  6
BYLAYER
100
AcDbLine
 10
138.6736887434332459
 20
274.5000000000000568
 30
0.0
 11
128.6736887434332175
 21
274.5000000000000568
 31
0.0
  0
LINE
  5
E0
100
AcDbEntity
  8
0
 62
5
420
255
370
-1
 48
1.0
  6
BYLAYER
100
AcDbLine
 10
119.8473774868663781
 20
274.5000000000000568
 30
0.0
 11
109.8473774868663781
 21
274.5000000000000568
 31
0.0
  0
LINE
  5
E1
100
AcDbEntity
  8
0
 62
5
420
255
370
-1
 48
1.0
  6
BYLAYER
100
AcDbLine
 10
-88.826311256566953
 20
274.5000000000000568
 30
0.0
 11
-98.8263112565669815
 21
274.5000000000000568
 31
0.0
  0
LINE
  5
E2
100
AcDbEntity
  8
0
 62
5
420
255
370
-1
 48
1.0
  6
BYLAYER
100
AcDbLine
 10
-107.6526225131338208
 20
274.5000000000000568
 30
0.0
 11
-117.6526225131338208
 21
274.5000000000000568
 31
0.0
  0
LINE
  5
E3
100
AcDbEntity
  8
0
 62
5
420
255
370
-1
 48
1.0
  6
BYLAYER
100
AcDbLine
 10
-200.8499999999999375
 20
179.8122671030340314
 30
0.0
 11
-200.8499999999999943
 21
170.9859558464671636
 31
0.0
  0
LINE
  5
E4
100
AcDbEntity
  8
0
 62
5
420
255
370
-1
 48
1.0
  6
BYLAYER
100
AcDbLine
 10
-200.8499999999999375
 20
198.6385783596008991
 30
0.0
 11
-200.8499999999999375
 21
189.8122671030340598
 31
0.0
  0
LINE
  5
E5
100
AcDbEntity
  8
0
 62
5
420
255
370
-1
 48
1.0
  6
BYLAYER
100
AcDbLine
 10
-259.1500000000000909
 20
179.8122671030340598
 30
0.0
 11
-259.1499999999999773
 21
170.985955846467192
 31
0.0
  0
LINE
  5
E6
100
AcDbEntity
  8
0
 62
5
420
255
370
-1
 48
1.0
  6
BYLAYER
100
AcDbLine
 10
-259.1500000000000341
 20
198.6385783596009276
 30
0.0
 11
-259.1500000000000341
 21
189.8122671030340882
 31
0.0
  0
LINE
  5
E7
100
AcDbEntity
  8
0
 62
5
420
255
370
-1
 48
1.0
  6
BYLAYER
100
AcDbLine
 10
-53.1499999999999773
 20
-11.8543995636324428
 30
0.0
 11
-53.1499999999999702
 21
-1.8543995636324375
 31
0.0
  0
LINE
  5
E8
100
AcDbEntity
  8
0
 62
5
420
255
370
-1
 48
1.0
  6
BYLAYER
100
AcDbLine
 10
-263.1499999999999773
 20
142.1596445899003527
 30
0.0
 11
-263.1499999999999773
 21
152.1596445899003527
 31
0.0
  0
LINE
  5
E9
100
AcDbEntity
  8
0
 62
5
420
255
370
-1
 48
1.0
  6
BYLAYER
100
AcDbLine
 10
9.1499999999999773
 20
-11.85439956363245
 30
0.0
 11
9.1499999999999773
 21
-1.8543995636324584
 31
0.0
  0
LINE
  5
EA
100
AcDbEntity
  8
0
 62
5
420
255
370
-1
 48
1.0
  6
BYLAYER
100
AcDbLine
 10
176.3263112565669246
 20
274.5
 30
0.0
 11
166.326311256566953
 21
274.5
 31
0.0
  0
LINE
  5
EB
100
AcDbEntity
  8
0
 62
5
420
255
370
-1
 48
1.0
  6
BYLAYER
100
AcDbLine
 10
-51.1736887434332743
 20
274.5
 30
0.0
 11
-61.1736887434332459
 21
274.5
 31
0.0
  0
LINE
  5
EC
100
AcDbEntity
  8
0
 62
5
420
255
370
-1
 48
1.0
  6
BYLAYER
100
AcDbLine
 10
237.3122671030343156
 20
138.5
 30
0.0
 11
237.3122671030343156
 21
288.5
 31
0.0
  0
LINE
  5
ED
100
AcDbEntity
  8
0
 62
5
420
255
370
-1
 48
1.0
  6
BYLAYER
100
AcDbLine
 10
9.8122671030341166
 20
138.5
 30
0.0
 11
9.8122671030341166
 21
288.5
 31
0.0
  0
LINE
  5
EE
100
AcDbEntity
  8
0
 62
256
370
-1
 48
1.0
  6
BYLAYER
100
AcDbLine
 10
120.0
 20
75.0
 30
0.0
 11
120.0
 21
-75.0
 31
0.0
  0
LINE
  5
EF
100
AcDbEntity
  8
0
 62
3
420
65280
370
-1
 48
1.0
  6
BYLAYER
100
AcDbLine
 10
421.0
 20
179.0
 30
0.0
 11
421.0
 21
221.0
 31
0.0
  0
LINE
  5
F0
100
AcDbEntity
  8
0
 62
3
420
65280
370
-1
 48
1.0
  6
BYLAYER
100
AcDbLine
 10
421.0
 20
107.0
 30
0.0
 11
421.0
 21
65.0
 31
0.0
  0
LINE
  5
F1
100
AcDbEntity
  8
0
 62
1
420
16711680
370
-1
 48
1.0
  6
BYLAYER
100
AcDbLine
 10
323.9135029720844159
 20
-23.2888011360062137
 30
0.0
 11
323.9135029720844159
 21
28.7111988639937863
 31
0.0
  0
LINE
  5
F2
100
AcDbEntity
  8
0
 62
1
420
16711680
370
-1
 48
1.0
  6
BYLAYER
100
AcDbLine
 10
323.9135029720844159
 20
-95.2888011360062137
 30
0.0
 11
323.9135029720844159
 21
-147.2888011360062137
 31
0.0
  0
LINE
  5
F3
100
AcDbEntity
  8
0
 62
3
420
65280
370
-1
 48
1.0
  6
BYLAYER
100
AcDbLine
 10
379.0
 20
221.0
 30
0.0
 11
379.0
 21
179.0
 31
0.0
  0
LINE
  5
F4
100
AcDbEntity
  8
0
 62
3
420
65280
370
-1
 48
1.0
  6
BYLAYER
100
AcDbLine
 10
379.0
 20
65.0
 30
0.0
 11
379.0
 21
107.0
 31
0.0
  0
LINE
  5
F5
100
AcDbEntity
  8
0
 62
1
420
16711680
370
-1
 48
1.0
  6
BYLAYER
100
AcDbLine
 10
281.9135029720844159
 20
28.7111988639937863
 30
0.0
 11
281.9135029720844159
 21
-23.2888011360062137
 31
0.0
  0
LINE
  5
F6
100
AcDbEntity
  8
0
 62
1
420
16711680
370
-1
 48
1.0
  6
BYLAYER
100
AcDbLine
 10
281.9135029720844159
 20
-147.2888011360062137
 30
0.0
 11
281.9135029720844159
 21
-95.2888011360062279
 31
0.0
  0
LINE
  5
F7
100
AcDbEntity
  8
0
 62
3
420
65280
370
-1
 48
1.0
  6
BYLAYER
100
AcDbLine
 10
421.0
 20
120.0
 30
0.0
 11
421.0
 21
161.0
 31
0.0
  0
LINE
  5
F8
100
AcDbEntity
  8
0
 62
1
420
16711680
370
-1
 48
1.0
  6
BYLAYER
100
AcDbLine
 10
323.9135029720844159
 20
-82.2888011360062137
 30
0.0
 11
323.9135029720844159
 21
-41.2888011360062137
 31
0.0
  0
LINE
  5
F9
100
AcDbEntity
  8
0
 62
3
420
65280
370
-1
 48
1.0
  6
BYLAYER
100
AcDbLine
 10
421.0
 20
161.0
 30
0.0
 11
420.9999999999999432
 21
165.0
 31
0.0
  0
LINE
  5
FA
100
AcDbEntity
  8
0
 62
3
420
65280
370
-1
 48
1.0
  6
BYLAYER
100
AcDbLine
 10
421.0
 20
120.0
 30
0.0
 11
420.9999999999999432
 21
115.9999999999999716
 31
0.0
  0
LINE
  5
FB
100
AcDbEntity
  8
0
 62
1
420
16711680
370
-1
 48
1.0
  6
BYLAYER
100
AcDbLine
 10
323.9135029720844159
 20
-41.2888011360062137
 30
0.0
 11
323.913502972084359
 21
-37.2888011360062137
 31
0.0
  0
LINE
  5
FC
100
AcDbEntity
  8
0
 62
1
420
16711680
370
-1
 48
1.0
  6
BYLAYER
100
AcDbLine
 10
323.9135029720844159
 20
-82.2888011360062137
 30
0.0
 11
323.913502972084359
 21
-86.2888011360062421
 31
0.0
  0
LINE
  5
FD
100
AcDbEntity
  8
0
 62
3
420
65280
370
-1
 48
1.0
  6
BYLAYER
100
AcDbLine
 10
379.0
 20
161.0
 30
0.0
 11
379.0
 21
120.0
 31
0.0
  0
LINE
  5
FE
100
AcDbEntity
  8
0
 62
1
420
16711680
370
-1
 48
1.0
  6
BYLAYER
100
AcDbLine
 10
281.9135029720844159
 20
-41.2888011360062137
 30
0.0
 11
281.9135029720844159
 21
-82.2888011360062137
 31
0.0
  0
LINE
  5
FF
100
AcDbEntity
  8
0
 62
3
420
65280
370
-1
 48
1.0
  6
BYLAYER
100
AcDbLine
 10
379.0
 20
179.0
 30
0.0
 11
386.3333333333333144
 21
179.0
 31
0.0
  0
LINE
  5
100
100
AcDbEntity
  8
0
 62
3
420
65280
370
-1
 48
1.0
  6
BYLAYER
100
AcDbLine
 10
379.0
 20
165.0
 30
0.0
 11
386.3333333333333144
 21
165.0
 31
0.0
  0
LINE
  5
101
100
AcDbEntity
  8
0
 62
3
420
65280
370
-1
 48
1.0
  6
BYLAYER
100
AcDbLine
 10
379.0
 20
115.9999999999999716
 30
0.0
 11
386.3333333333333144
 21
115.9999999999999716
 31
0.0
  0
LINE
  5
102
100
AcDbEntity
  8
0
 62
3
420
65280
370
-1
 48
1.0
  6
BYLAYER
100
AcDbLine
 10
379.0
 20
107.0
 30
0.0
 11
386.3333333333333144
 21
107.0
 31
0.0
  0
LINE
  5
103
100
AcDbEntity
  8
0
 62
1
420
16711680
370
-1
 48
1.0
  6
BYLAYER
100
AcDbLine
 10
23.1499999966761152
 20
-39.4180894666484036
 30
0.0
 11
23.1499999966761152
 21
-49.4180894666484036
 31
0.0
  0
LINE
  5
104
100
AcDbEntity
  8
0
 62
1
420
16711680
370
-1
 48
1.0
  6
BYLAYER
100
AcDbLine
 10
281.9135029720844159
 20
-23.2888011360062137
 30
0.0
 11
289.2468363054177303
 21
-23.2888011360062137
 31
0.0
  0
LINE
  5
105
100
AcDbEntity
  8
0
 62
1
420
16711680
370
-1
 48
1.0
  6
BYLAYER
100
AcDbLine
 10
281.9135029720844159
 20
-37.2888011360062137
 30
0.0
 11
289.2468363054177303
 21
-37.2888011360062137
 31
0.0
  0
LINE
  5
106
100
AcDbEntity
  8
0
 62
1
420
16711680
370
-1
 48
1.0
  6
BYLAYER
100
AcDbLine
 10
281.9135029720844159
 20
-86.2888011360062421
 30
0.0
 11
289.2468363054177303
 21
-86.2888011360062421
 31
0.0
  0
LINE
  5
107
100
AcDbEntity
  8
0
 62
1
420
16711680
370
-1
 48
1.0
  6
BYLAYER
100
AcDbLine
 10
281.9135029720844159
 20
-95.2888011360062137
 30
0.0
 11
289.2468363054177303
 21
-95.2888011360062137
 31
0.0
  0
LINE
  5
108
100
AcDbEntity
  8
0
 62
3
420
65280
370
-1
 48
1.0
  6
BYLAYER
100
AcDbLine
 10
386.3333333333333144
 20
179.0
 30
0.0
 11
386.3333333333333144
 21
175.0
 31
0.0
  0
LINE
  5
109
100
AcDbEntity
  8
0
 62
3
420
65280
370
-1
 48
1.0
  6
BYLAYER
100
AcDbLine
 10
379.0
 20
161.0
 30
0.0
 11
379.0
 21
165.0
 31
0.0
  0
LINE
  5
10A
100
AcDbEntity
  8
0
 62
3
420
65280
370
-1
 48
1.0
  6
BYLAYER
100
AcDbLine
 10
386.3333333333333144
 20
165.0
 30
0.0
 11
386.3333333333333144
 21
161.0
 31
0.0
  0
LINE
  5
10B
100
AcDbEntity
  8
0
 62
3
420
65280
370
-1
 48
1.0
  6
BYLAYER
100
AcDbLine
 10
379.0
 20
119.9999999999999858
 30
0.0
 11
379.0
 21
115.9999999999999716
 31
0.0
  0
LINE
  5
10C
100
AcDbEntity
  8
0
 62
3
420
65280
370
-1
 48
1.0
  6
BYLAYER
100
AcDbLine
 10
386.3333333333333144
 20
115.9999999999999716
 30
0.0
 11
386.3333333333333144
 21
120.9999999999999716
 31
0.0
  0
LINE
  5
10D
100
AcDbEntity
  8
0
 62
3
420
65280
370
-1
 48
1.0
  6
BYLAYER
100
AcDbLine
 10
386.3333333333333144
 20
107.0
 30
0.0
 11
386.3333333333333144
 21
111.0
 31
0.0
  0
LINE
  5
10E
100
AcDbEntity
  8
0
 62
1
420
16711680
370
-1
 48
1.0
  6
BYLAYER
100
AcDbLine
 10
23.1499999966761152
 20
-49.4180894666484036
 30
0.0
 11
27.1499999966761152
 21
-49.4180894666484178
 31
0.0
  0
LINE
  5
10F
100
AcDbEntity
  8
0
 62
1
420
16711680
370
-1
 48
1.0
  6
BYLAYER
100
AcDbLine
 10
289.2468363054177303
 20
-23.2888011360062137
 30
0.0
 11
289.2468363054177303
 21
-27.2888011360062137
 31
0.0
  0
LINE
  5
110
100
AcDbEntity
  8
0
 62
1
420
16711680
370
-1
 48
1.0
  6
BYLAYER
100
AcDbLine
 10
281.9135029720844159
 20
-41.2888011360062137
 30
0.0
 11
281.9135029720844159
 21
-37.2888011360062137
 31
0.0
  0
LINE
  5
111
100
AcDbEntity
  8
0
 62
1
420
16711680
370
-1
 48
1.0
  6
BYLAYER
100
AcDbLine
 10
289.2468363054177303
 20
-37.2888011360062137
 30
0.0
 11
289.2468363054177303
 21
-41.2888011360062137
 31
0.0
  0
LINE
  5
112
100
AcDbEntity
  8
0
 62
1
420
16711680
370
-1
 48
1.0
  6
BYLAYER
100
AcDbLine
 10
281.9135029720844159
 20
-82.2888011360062279
 30
0.0
 11
281.9135029720844159
 21
-86.2888011360062421
 31
0.0
  0
LINE
  5
113
100
AcDbEntity
  8
0
 62
1
420
16711680
370
-1
 48
1.0
  6
BYLAYER
100
AcDbLine
 10
289.2468363054177303
 20
-86.2888011360062421
 30
0.0
 11
289.2468363054177303
 21
-81.2888011360062421
 31
0.0
  0
LINE
  5
114
100
AcDbEntity
  8
0
 62
1
420
16711680
370
-1
 48
1.0
  6
BYLAYER
100
AcDbLine
 10
289.2468363054177303
 20
-95.2888011360062137
 30
0.0
 11
289.2468363054177303
 21
-91.2888011360062137
 31
0.0
  0
LINE
  5
115
100
AcDbEntity
  8
0
 62
3
420
65280
370
-1
 48
1.0
  6
BYLAYER
100
AcDbLine
 10
386.3333333333333144
 20
175.0
 30
0.0
 11
396.3333333333333144
 21
175.0
 31
0.0
  0
LINE
  5
116
100
AcDbEntity
  8
0
 62
3
420
65280
370
-1
 48
1.0
  6
BYLAYER
100
AcDbLine
 10
386.3333333333333144
 20
161.0
 30
0.0
 11
396.3333333333333144
 21
161.0
 31
0.0
  0
LINE
  5
117
100
AcDbEntity
  8
0
 62
3
420
65280
370
-1
 48
1.0
  6
BYLAYER
100
AcDbLine
 10
386.3333333333333144
 20
120.9999999999999716
 30
0.0
 11
391.0
 21
120.9999999999999574
 31
0.0
  0
LINE
  5
118
100
AcDbEntity
  8
0
 62
3
420
65280
370
-1
 48
1.0
  6
BYLAYER
100
AcDbLine
 10
386.3333333333333144
 20
111.0
 30
0.0
 11
413.6666666666666288
 21
111.0
 31
0.0
  0
LINE
  5
119
100
AcDbEntity
  8
0
 62
1
420
16711680
370
-1
 48
1.0
  6
BYLAYER
100
AcDbLine
 10
27.1499999966761152
 20
-49.4180894666484178
 30
0.0
 11
27.1499999966761152
 21
-39.4180894666484036
 31
0.0
  0
LINE
  5
11A
100
AcDbEntity
  8
0
 62
1
420
16711680
370
-1
 48
1.0
  6
BYLAYER
100
AcDbLine
 10
289.2468363054177303
 20
-27.2888011360062137
 30
0.0
 11
299.2468363054177303
 21
-27.2888011360062137
 31
0.0
  0
LINE
  5
11B
100
AcDbEntity
  8
0
 62
1
420
16711680
370
-1
 48
1.0
  6
BYLAYER
100
AcDbLine
 10
289.2468363054177303
 20
-41.2888011360062137
 30
0.0
 11
299.2468363054177303
 21
-41.2888011360062137
 31
0.0
  0
LINE
  5
11C
100
AcDbEntity
  8
0
 62
1
420
16711680
370
-1
 48
1.0
  6
BYLAYER
100
AcDbLine
 10
289.2468363054177303
 20
-81.2888011360062421
 30
0.0
 11
293.9135029720844159
 21
-81.2888011360062563
 31
0.0
  0
LINE
  5
11D
100
AcDbEntity
  8
0
 62
1
420
16711680
370
-1
 48
1.0
  6
BYLAYER
100
AcDbLine
 10
289.2468363054177303
 20
-91.2888011360062137
 30
0.0
 11
316.5801696387510447
 21
-91.2888011360062137
 31
0.0
  0
LINE
  5
11E
100
AcDbEntity
  8
0
 62
3
420
65280
370
-1
 48
1.0
  6
BYLAYER
100
AcDbLine
 10
396.3333333333333144
 20
175.0
 30
0.0
 11
396.3333333333333144
 21
179.0
 31
0.0
  0
LINE
  5
11F
100
AcDbEntity
  8
0
 62
3
420
65280
370
-1
 48
1.0
  6
BYLAYER
100
AcDbLine
 10
396.3333333333333144
 20
161.0
 30
0.0
 11
396.3333333333333144
 21
165.0
 31
0.0
  0
LINE
  5
120
100
AcDbEntity
  8
0
 62
1
420
16711680
370
-1
 48
1.0
  6
BYLAYER
100
AcDbLine
 10
27.1499999966761152
 20
-39.4180894666484036
 30
0.0
 11
23.1499999966761152
 21
-39.4180894666484036
 31
0.0
  0
LINE
  5
121
100
AcDbEntity
  8
0
 62
1
420
16711680
370
-1
 48
1.0
  6
BYLAYER
100
AcDbLine
 10
299.2468363054177303
 20
-27.2888011360062137
 30
0.0
 11
299.2468363054177303
 21
-23.2888011360062137
 31
0.0
  0
LINE
  5
122
100
AcDbEntity
  8
0
 62
1
420
16711680
370
-1
 48
1.0
  6
BYLAYER
100
AcDbLine
 10
299.2468363054177303
 20
-41.2888011360062137
 30
0.0
 11
299.2468363054177303
 21
-37.2888011360062137
 31
0.0
  0
LINE
  5
123
100
AcDbEntity
  8
0
 62
3
420
65280
370
-1
 48
1.0
  6
BYLAYER
100
AcDbLine
 10
396.3333333333333144
 20
179.0
 30
0.0
 11
403.6666666666666288
 21
179.0
 31
0.0
  0
LINE
  5
124
100
AcDbEntity
  8
0
 62
3
420
65280
370
-1
 48
1.0
  6
BYLAYER
100
AcDbLine
 10
396.3333333333333144
 20
165.0
 30
0.0
 11
403.6666666666666288
 21
165.0
 31
0.0
  0
LINE
  5
125
100
AcDbEntity
  8
0
 62
1
420
16711680
370
-1
 48
1.0
  6
BYLAYER
100
AcDbLine
 10
299.2468363054177303
 20
-23.2888011360062137
 30
0.0
 11
306.5801696387510447
 21
-23.2888011360062137
 31
0.0
  0
LINE
  5
126
100
AcDbEntity
  8
0
 62
1
420
16711680
370
-1
 48
1.0
  6
BYLAYER
100
AcDbLine
 10
299.2468363054177303
 20
-37.2888011360062137
 30
0.0
 11
306.5801696387510447
 21
-37.2888011360062137
 31
0.0
  0
LINE
  5
127
100
AcDbEntity
  8
0
 62
3
420
65280
370
-1
 48
1.0
  6
BYLAYER
100
AcDbLine
 10
403.6666666666666288
 20
179.0
 30
0.0
 11
403.6666666666666288
 21
175.0
 31
0.0
  0
LINE
  5
128
100
AcDbEntity
  8
0
 62
3
420
65280
370
-1
 48
1.0
  6
BYLAYER
100
AcDbLine
 10
403.6666666666666288
 20
165.0
 30
0.0
 11
403.6666666666666288
 21
161.0
 31
0.0
  0
LINE
  5
129
100
AcDbEntity
  8
0
 62
1
420
16711680
370
-1
 48
1.0
  6
BYLAYER
100
AcDbLine
 10
23.1499999966761152
 20
-32.0847561333150892
 30
0.0
 11
27.1499999966761152
 21
-32.0847561333150892
 31
0.0
  0
LINE
  5
12A
100
AcDbEntity
  8
0
 62
1
420
16711680
370
-1
 48
1.0
  6
BYLAYER
100
AcDbLine
 10
306.5801696387510447
 20
-23.2888011360062137
 30
0.0
 11
306.5801696387510447
 21
-27.2888011360062137
 31
0.0
  0
LINE
  5
12B
100
AcDbEntity
  8
0
 62
1
420
16711680
370
-1
 48
1.0
  6
BYLAYER
100
AcDbLine
 10
306.5801696387510447
 20
-37.2888011360062137
 30
0.0
 11
306.5801696387510447
 21
-41.2888011360062137
 31
0.0
  0
LINE
  5
12C
100
AcDbEntity
  8
0
 62
3
420
65280
370
-1
 48
1.0
  6
BYLAYER
100
AcDbLine
 10
403.6666666666666288
 20
175.0
 30
0.0
 11
413.6666666666666288
 21
175.0
 31
0.0
  0
LINE
  5
12D
100
AcDbEntity
  8
0
 62
3
420
65280
370
-1
 48
1.0
  6
BYLAYER
100
AcDbLine
 10
403.6666666666666288
 20
161.0
 30
0.0
 11
413.6666666666666288
 21
161.0
 31
0.0
  0
LINE
  5
12E
100
AcDbEntity
  8
0
 62
3
420
65280
370
-1
 48
1.0
  6
BYLAYER
100
AcDbLine
 10
409.0
 20
120.9999999999999574
 30
0.0
 11
413.6666666666666288
 21
120.9999999999999716
 31
0.0
  0
LINE
  5
12F
100
AcDbEntity
  8
0
 62
1
420
16711680
370
-1
 48
1.0
  6
BYLAYER
100
AcDbLine
 10
27.1499999966761152
 20
-32.0847561333150892
 30
0.0
 11
27.1499999966761152
 21
-22.0847561333150892
 31
0.0
  0
LINE
  5
130
100
AcDbEntity
  8
0
 62
1
420
16711680
370
-1
 48
1.0
  6
BYLAYER
100
AcDbLine
 10
306.5801696387510447
 20
-27.2888011360062137
 30
0.0
 11
316.5801696387510447
 21
-27.2888011360062137
 31
0.0
  0
LINE
  5
131
100
AcDbEntity
  8
0
 62
1
420
16711680
370
-1
 48
1.0
  6
BYLAYER
100
AcDbLine
 10
306.5801696387510447
 20
-41.2888011360062137
 30
0.0
 11
316.5801696387510447
 21
-41.2888011360062137
 31
0.0
  0
LINE
  5
132
100
AcDbEntity
  8
0
 62
1
420
16711680
370
-1
 48
1.0
  6
BYLAYER
100
AcDbLine
 10
311.9135029720844159
 20
-81.2888011360062563
 30
0.0
 11
316.5801696387510447
 21
-81.2888011360062421
 31
0.0
  0
LINE
  5
133
100
AcDbEntity
  8
0
 62
3
420
65280
370
-1
 48
1.0
  6
BYLAYER
100
AcDbLine
 10
413.6666666666666288
 20
175.0
 30
0.0
 11
413.6666666666666288
 21
179.0
 31
0.0
  0
LINE
  5
134
100
AcDbEntity
  8
0
 62
3
420
65280
370
-1
 48
1.0
  6
BYLAYER
100
AcDbLine
 10
413.6666666666666288
 20
161.0
 30
0.0
 11
413.6666666666666288
 21
165.0
 31
0.0
  0
LINE
  5
135
100
AcDbEntity
  8
0
 62
3
420
65280
370
-1
 48
1.0
  6
BYLAYER
100
AcDbLine
 10
413.6666666666666288
 20
120.9999999999999716
 30
0.0
 11
413.6666666666666288
 21
115.9999999999999858
 31
0.0
  0
LINE
  5
136
100
AcDbEntity
  8
0
 62
3
420
65280
370
-1
 48
1.0
  6
BYLAYER
100
AcDbLine
 10
413.6666666666666288
 20
111.0
 30
0.0
 11
413.6666666666666288
 21
107.0
 31
0.0
  0
LINE
  5
137
100
AcDbEntity
  8
0
 62
1
420
16711680
370
-1
 48
1.0
  6
BYLAYER
100
AcDbLine
 10
27.1499999966761152
 20
-22.0847561333150892
 30
0.0
 11
23.1499999966761152
 21
-22.0847561333151035
 31
0.0
  0
LINE
  5
138
100
AcDbEntity
  8
0
 62
1
420
16711680
370
-1
 48
1.0
  6
BYLAYER
100
AcDbLine
 10
316.5801696387510447
 20
-27.2888011360062137
 30
0.0
 11
316.5801696387510447
 21
-23.2888011360062137
 31
0.0
  0
LINE
  5
139
100
AcDbEntity
  8
0
 62
1
420
16711680
370
-1
 48
1.0
  6
BYLAYER
100
AcDbLine
 10
316.5801696387510447
 20
-41.2888011360062137
 30
0.0
 11
316.5801696387510447
 21
-37.2888011360062137
 31
0.0
  0
LINE
  5
13A
100
AcDbEntity
  8
0
 62
1
420
16711680
370
-1
 48
1.0
  6
BYLAYER
100
AcDbLine
 10
316.5801696387510447
 20
-81.2888011360062421
 30
0.0
 11
316.5801696387510447
 21
-86.2888011360062279
 31
0.0
  0
LINE
  5
13B
100
AcDbEntity
  8
0
 62
1
420
16711680
370
-1
 48
1.0
  6
BYLAYER
100
AcDbLine
 10
316.5801696387510447
 20
-91.2888011360062137
 30
0.0
 11
316.5801696387510447
 21
-95.2888011360062137
 31
0.0
  0
LINE
  5
13C
100
AcDbEntity
  8
0
 62
3
420
65280
370
-1
 48
1.0
  6
BYLAYER
100
AcDbLine
 10
413.6666666666666288
 20
179.0
 30
0.0
 11
420.9999999999999432
 21
179.0
 31
0.0
  0
LINE
  5
13D
100
AcDbEntity
  8
0
 62
3
420
65280
370
-1
 48
1.0
  6
BYLAYER
100
AcDbLine
 10
413.6666666666666288
 20
165.0
 30
0.0
 11
420.9999999999999432
 21
165.0
 31
0.0
  0
LINE
  5
13E
100
AcDbEntity
  8
0
 62
3
420
65280
370
-1
 48
1.0
  6
BYLAYER
100
AcDbLine
 10
413.6666666666666288
 20
115.9999999999999858
 30
0.0
 11
420.9999999999999432
 21
115.9999999999999716
 31
0.0
  0
LINE
  5
13F
100
AcDbEntity
  8
0
 62
3
420
65280
370
-1
 48
1.0
  6
BYLAYER
100
AcDbLine
 10
413.6666666666666288
 20
107.0
 30
0.0
 11
420.9999999999999432
 21
107.0
 31
0.0
  0
LINE
  5
140
100
AcDbEntity
  8
0
 62
1
420
16711680
370
-1
 48
1.0
  6
BYLAYER
100
AcDbLine
 10
23.1499999966761152
 20
-22.0847561333151035
 30
0.0
 11
23.1499999966761152
 21
-32.0847561333150892
 31
0.0
  0
LINE
  5
141
100
AcDbEntity
  8
0
 62
1
420
16711680
370
-1
 48
1.0
  6
BYLAYER
100
AcDbLine
 10
316.5801696387510447
 20
-23.2888011360062137
 30
0.0
 11
323.913502972084359
 21
-23.2888011360062137
 31
0.0
  0
LINE
  5
142
100
AcDbEntity
  8
0
 62
1
420
16711680
370
-1
 48
1.0
  6
BYLAYER
100
AcDbLine
 10
316.5801696387510447
 20
-37.2888011360062137
 30
0.0
 11
323.913502972084359
 21
-37.2888011360062137
 31
0.0
  0
LINE
  5
143
100
AcDbEntity
  8
0
 62
1
420
16711680
370
-1
 48
1.0
  6
BYLAYER
100
AcDbLine
 10
316.5801696387510447
 20
-86.2888011360062279
 30
0.0
 11
323.913502972084359
 21
-86.2888011360062421
 31
0.0
  0
LINE
  5
144
100
AcDbEntity
  8
0
 62
1
420
16711680
370
-1
 48
1.0
  6
BYLAYER
100
AcDbLine
 10
316.5801696387510447
 20
-95.2888011360062137
 30
0.0
 11
323.913502972084359
 21
-95.2888011360062137
 31
0.0
  0
LINE
  5
145
100
AcDbEntity
  8
0
 62
3
420
65280
370
-1
 48
1.0
  6
BYLAYER
100
AcDbLine
 10
421.0
 20
221.0
 30
0.0
 11
413.6666666666666856
 21
221.0
 31
0.0
  0
LINE
  5
146
100
AcDbEntity
  8
0
 62
3
420
65280
370
-1
 48
1.0
  6
BYLAYER
100
AcDbLine
 10
421.0
 20
65.0
 30
0.0
 11
413.6666666666666856
 21
65.0
 31
0.0
  0
LINE
  5
147
100
AcDbEntity
  8
0
 62
3
420
65280
370
-1
 48
1.0
  6
BYLAYER
100
AcDbLine
 10
102.6666666666666856
 20
69.0
 30
0.0
 11
112.6666666666666856
 21
69.0
 31
0.0
  0
LINE
  5
148
100
AcDbEntity
  8
0
 62
3
420
65280
370
-1
 48
1.0
  6
BYLAYER
100
AcDbLine
 10
102.6666666666666998
 20
24.0
 30
0.0
 11
112.6666666666666998
 21
24.0
 31
0.0
  0
LINE
  5
149
100
AcDbEntity
  8
0
 62
3
420
65280
370
-1
 48
1.0
  6
BYLAYER
100
AcDbLine
 10
102.6666666666666998
 20
-24.0000000000000107
 30
0.0
 11
112.6666666666666998
 21
-23.9999999999999716
 31
0.0
  0
LINE
  5
14A
100
AcDbEntity
  8
0
 62
3
420
65280
370
-1
 48
1.0
  6
BYLAYER
100
AcDbLine
 10
102.6666666666666856
 20
-69.0
 30
0.0
 11
112.6666666666666856
 21
-69.0000000000000284
 31
0.0
  0
LINE
  5
14B
100
AcDbEntity
  8
0
 62
1
420
16711680
370
-1
 48
1.0
  6
BYLAYER
100
AcDbLine
 10
72.1499999966761152
 20
-32.084756133315075
 30
0.0
 11
72.1499999966761152
 21
-22.0847561333150821
 31
0.0
  0
LINE
  5
14C
100
AcDbEntity
  8
0
 62
1
420
16711680
370
-1
 48
1.0
  6
BYLAYER
100
AcDbLine
 10
323.9135029720844159
 20
28.7111988639937863
 30
0.0
 11
316.5801696387511015
 21
28.7111988639937863
 31
0.0
  0
LINE
  5
14D
100
AcDbEntity
  8
0
 62
1
420
16711680
370
-1
 48
1.0
  6
BYLAYER
100
AcDbLine
 10
323.9135029720844159
 20
-147.2888011360062137
 30
0.0
 11
316.5801696387511015
 21
-147.2888011360062137
 31
0.0
  0
LINE
  5
14E
100
AcDbEntity
  8
0
 62
3
420
65280
370
-1
 48
1.0
  6
BYLAYER
100
AcDbLine
 10
413.6666666666666856
 20
221.0
 30
0.0
 11
413.6666666666666856
 21
225.0
 31
0.0
  0
LINE
  5
14F
100
AcDbEntity
  8
0
 62
3
420
65280
370
-1
 48
1.0
  6
BYLAYER
100
AcDbLine
 10
413.6666666666666856
 20
65.0
 30
0.0
 11
413.6666666666666856
 21
61.0
 31
0.0
  0
LINE
  5
150
100
AcDbEntity
  8
0
 62
3
420
65280
370
-1
 48
1.0
  6
BYLAYER
100
AcDbLine
 10
112.6666666666666856
 20
69.0
 30
0.0
 11
112.6666666666666856
 21
73.0
 31
0.0
  0
LINE
  5
151
100
AcDbEntity
  8
0
 62
3
420
65280
370
-1
 48
1.0
  6
BYLAYER
100
AcDbLine
 10
112.6666666666666998
 20
24.0
 30
0.0
 11
112.6666666666666998
 21
28.0
 31
0.0
  0
LINE
  5
152
100
AcDbEntity
  8
0
 62
3
420
65280
370
-1
 48
1.0
  6
BYLAYER
100
AcDbLine
 10
112.6666666666666856
 20
-69.0000000000000284
 30
0.0
 11
112.6666666666666856
 21
-73.0000000000000284
 31
0.0
  0
LINE
  5
153
100
AcDbEntity
  8
0
 62
3
420
65280
370
-1
 48
1.0
  6
BYLAYER
100
AcDbLine
 10
112.6666666666666998
 20
-23.9999999999999716
 30
0.0
 11
112.6666666666666998
 21
-28.0000000000000249
 31
0.0
  0
LINE
  5
154
100
AcDbEntity
  8
0
 62
1
420
16711680
370
-1
 48
1.0
  6
BYLAYER
100
AcDbLine
 10
72.1499999966761152
 20
-22.0847561333150821
 30
0.0
 11
68.1499999966761152
 21
-22.0847561333150679
 31
0.0
  0
LINE
  5
155
100
AcDbEntity
  8
0
 62
1
420
16711680
370
-1
 48
1.0
  6
BYLAYER
100
AcDbLine
 10
316.5801696387511015
 20
28.7111988639937863
 30
0.0
 11
316.5801696387511015
 21
32.7111988639937863
 31
0.0
  0
LINE
  5
156
100
AcDbEntity
  8
0
 62
1
420
16711680
370
-1
 48
1.0
  6
BYLAYER
100
AcDbLine
 10
316.5801696387511015
 20
-147.2888011360062137
 30
0.0
 11
316.5801696387511015
 21
-151.2888011360062137
 31
0.0
  0
LINE
  5
157
100
AcDbEntity
  8
0
 62
3
420
65280
370
-1
 48
1.0
  6
BYLAYER
100
AcDbLine
 10
413.6666666666666856
 20
225.0
 30
0.0
 11
403.6666666666666856
 21
225.0
 31
0.0
  0
LINE
  5
158
100
AcDbEntity
  8
0
 62
3
420
65280
370
-1
 48
1.0
  6
BYLAYER
100
AcDbLine
 10
413.6666666666666856
 20
61.0
 30
0.0
 11
403.6666666666666856
 21
61.0
 31
0.0
  0
LINE
  5
159
100
AcDbEntity
  8
0
 62
3
420
65280
370
-1
 48
1.0
  6
BYLAYER
100
AcDbLine
 10
112.6666666666666856
 20
73.0
 30
0.0
 11
102.6666666666666856
 21
73.0
 31
0.0
  0
LINE
  5
15A
100
AcDbEntity
  8
0
 62
3
420
65280
370
-1
 48
1.0
  6
BYLAYER
100
AcDbLine
 10
112.6666666666666998
 20
28.0
 30
0.0
 11
102.6666666666666998
 21
28.0
 31
0.0
  0
LINE
  5
15B
100
AcDbEntity
  8
0
 62
3
420
65280
370
-1
 48
1.0
  6
BYLAYER
100
AcDbLine
 10
112.6666666666666998
 20
-28.0000000000000249
 30
0.0
 11
102.6666666666666998
 21
-27.9999999999999858
 31
0.0
  0
LINE
  5
15C
100
AcDbEntity
  8
0
 62
3
420
65280
370
-1
 48
1.0
  6
BYLAYER
100
AcDbLine
 10
112.6666666666666856
 20
-73.0000000000000284
 30
0.0
 11
102.6666666666666856
 21
-72.9999999999999858
 31
0.0
  0
LINE
  5
15D
100
AcDbEntity
  8
0
 62
1
420
16711680
370
-1
 48
1.0
  6
BYLAYER
100
AcDbLine
 10
68.1499999966761152
 20
-22.0847561333150679
 30
0.0
 11
68.1499999966761152
 21
-32.0847561333150821
 31
0.0
  0
LINE
  5
15E
100
AcDbEntity
  8
0
 62
1
420
16711680
370
-1
 48
1.0
  6
BYLAYER
100
AcDbLine
 10
316.5801696387511015
 20
32.7111988639937863
 30
0.0
 11
306.5801696387511015
 21
32.7111988639937863
 31
0.0
  0
LINE
  5
15F
100
AcDbEntity
  8
0
 62
1
420
16711680
370
-1
 48
1.0
  6
BYLAYER
100
AcDbLine
 10
316.5801696387511015
 20
-151.2888011360062137
 30
0.0
 11
306.5801696387511015
 21
-151.2888011360062137
 31
0.0
  0
LINE
  5
160
100
AcDbEntity
  8
0
 62
3
420
65280
370
-1
 48
1.0
  6
BYLAYER
100
AcDbLine
 10
403.6666666666666856
 20
225.0
 30
0.0
 11
403.6666666666666856
 21
221.0
 31
0.0
  0
LINE
  5
161
100
AcDbEntity
  8
0
 62
3
420
65280
370
-1
 48
1.0
  6
BYLAYER
100
AcDbLine
 10
403.6666666666666856
 20
61.0
 30
0.0
 11
403.6666666666666856
 21
65.0
 31
0.0
  0
LINE
  5
162
100
AcDbEntity
  8
0
 62
3
420
65280
370
-1
 48
1.0
  6
BYLAYER
100
AcDbLine
 10
102.6666666666666856
 20
73.0
 30
0.0
 11
102.6666666666666856
 21
69.0
 31
0.0
  0
LINE
  5
163
100
AcDbEntity
  8
0
 62
3
420
65280
370
-1
 48
1.0
  6
BYLAYER
100
AcDbLine
 10
102.6666666666666998
 20
28.0
 30
0.0
 11
102.6666666666666998
 21
24.0
 31
0.0
  0
LINE
  5
164
100
AcDbEntity
  8
0
 62
3
420
65280
370
-1
 48
1.0
  6
BYLAYER
100
AcDbLine
 10
102.6666666666666998
 20
-27.9999999999999858
 30
0.0
 11
102.6666666666666998
 21
-24.0000000000000107
 31
0.0
  0
LINE
  5
165
100
AcDbEntity
  8
0
 62
3
420
65280
370
-1
 48
1.0
  6
BYLAYER
100
AcDbLine
 10
102.6666666666666856
 20
-72.9999999999999858
 30
0.0
 11
102.6666666666666856
 21
-69.0
 31
0.0
  0
LINE
  5
166
100
AcDbEntity
  8
0
 62
1
420
16711680
370
-1
 48
1.0
  6
BYLAYER
100
AcDbLine
 10
68.1499999966761152
 20
-32.0847561333150821
 30
0.0
 11
72.1499999966761152
 21
-32.084756133315075
 31
0.0
  0
LINE
  5
167
100
AcDbEntity
  8
0
 62
1
420
16711680
370
-1
 48
1.0
  6
BYLAYER
100
AcDbLine
 10
306.5801696387511015
 20
32.7111988639937863
 30
0.0
 11
306.5801696387511015
 21
28.7111988639937863
 31
0.0
  0
LINE
  5
168
100
AcDbEntity
  8
0
 62
1
420
16711680
370
-1
 48
1.0
  6
BYLAYER
100
AcDbLine
 10
306.5801696387511015
 20
-151.2888011360062137
 30
0.0
 11
306.5801696387511015
 21
-147.2888011360062137
 31
0.0
  0
LINE
  5
169
100
AcDbEntity
  8
0
 62
3
420
65280
370
-1
 48
1.0
  6
BYLAYER
100
AcDbLine
 10
403.6666666666666856
 20
221.0
 30
0.0
 11
396.3333333333333712
 21
221.0
 31
0.0
  0
LINE
  5
16A
100
AcDbEntity
  8
0
 62
3
420
65280
370
-1
 48
1.0
  6
BYLAYER
100
AcDbLine
 10
403.6666666666666856
 20
65.0
 30
0.0
 11
396.3333333333333712
 21
65.0
 31
0.0
  0
LINE
  5
16B
100
AcDbEntity
  8
0
 62
1
420
16711680
370
-1
 48
1.0
  6
BYLAYER
100
AcDbLine
 10
306.5801696387511015
 20
28.7111988639937863
 30
0.0
 11
299.2468363054177871
 21
28.7111988639937863
 31
0.0
  0
LINE
  5
16C
100
AcDbEntity
  8
0
 62
1
420
16711680
370
-1
 48
1.0
  6
BYLAYER
100
AcDbLine
 10
306.5801696387511015
 20
-147.2888011360062137
 30
0.0
 11
299.2468363054177871
 21
-147.2888011360062137
 31
0.0
  0
LINE
  5
16D
100
AcDbEntity
  8
0
 62
3
420
65280
370
-1
 48
1.0
  6
BYLAYER
100
AcDbLine
 10
396.3333333333333712
 20
221.0
 30
0.0
 11
396.3333333333333712
 21
225.0
 31
0.0
  0
LINE
  5
16E
100
AcDbEntity
  8
0
 62
3
420
65280
370
-1
 48
1.0
  6
BYLAYER
100
AcDbLine
 10
396.3333333333333712
 20
65.0
 30
0.0
 11
396.3333333333333712
 21
61.0
 31
0.0
  0
LINE
  5
16F
100
AcDbEntity
  8
0
 62
3
420
65280
370
-1
 48
1.0
  6
BYLAYER
100
AcDbLine
 10
95.3333333333333712
 20
69.0
 30
0.0
 11
95.3333333333333712
 21
73.0
 31
0.0
  0
LINE
  5
170
100
AcDbEntity
  8
0
 62
3
420
65280
370
-1
 48
1.0
  6
BYLAYER
100
AcDbLine
 10
95.3333333333333854
 20
24.0
 30
0.0
 11
95.3333333333333854
 21
28.0
 31
0.0
  0
LINE
  5
171
100
AcDbEntity
  8
0
 62
3
420
65280
370
-1
 48
1.0
  6
BYLAYER
100
AcDbLine
 10
95.3333333333333712
 20
-69.0
 30
0.0
 11
95.3333333333333712
 21
-73.0
 31
0.0
  0
LINE
  5
172
100
AcDbEntity
  8
0
 62
3
420
65280
370
-1
 48
1.0
  6
BYLAYER
100
AcDbLine
 10
95.3333333333333854
 20
-23.9999999999999964
 30
0.0
 11
95.3333333333333854
 21
-27.9999999999999893
 31
0.0
  0
LINE
  5
173
100
AcDbEntity
  8
0
 62
1
420
16711680
370
-1
 48
1.0
  6
BYLAYER
100
AcDbLine
 10
72.1499999966761152
 20
-39.4180894666483894
 30
0.0
 11
68.1499999966761152
 21
-39.4180894666483894
 31
0.0
  0
LINE
  5
174
100
AcDbEntity
  8
0
 62
1
420
16711680
370
-1
 48
1.0
  6
BYLAYER
100
AcDbLine
 10
299.2468363054177871
 20
28.7111988639937863
 30
0.0
 11
299.2468363054177871
 21
32.7111988639937863
 31
0.0
  0
LINE
  5
175
100
AcDbEntity
  8
0
 62
1
420
16711680
370
-1
 48
1.0
  6
BYLAYER
100
AcDbLine
 10
299.2468363054177871
 20
-147.2888011360062137
 30
0.0
 11
299.2468363054177871
 21
-151.2888011360062137
 31
0.0
  0
LINE
  5
176
100
AcDbEntity
  8
0
 62
3
420
65280
370
-1
 48
1.0
  6
BYLAYER
100
AcDbLine
 10
396.3333333333333712
 20
225.0
 30
0.0
 11
386.3333333333333712
 21
225.0
 31
0.0
  0
LINE
  5
177
100
AcDbEntity
  8
0
 62
3
420
65280
370
-1
 48
1.0
  6
BYLAYER
100
AcDbLine
 10
396.3333333333333712
 20
61.0
 30
0.0
 11
386.3333333333333712
 21
61.0
 31
0.0
  0
LINE
  5
178
100
AcDbEntity
  8
0
 62
3
420
65280
370
-1
 48
1.0
  6
BYLAYER
100
AcDbLine
 10
95.3333333333333712
 20
73.0
 30
0.0
 11
85.3333333333333712
 21
73.0
 31
0.0
  0
LINE
  5
179
100
AcDbEntity
  8
0
 62
3
420
65280
370
-1
 48
1.0
  6
BYLAYER
100
AcDbLine
 10
95.3333333333333854
 20
28.0
 30
0.0
 11
85.3333333333333854
 21
28.0
 31
0.0
  0
LINE
  5
17A
100
AcDbEntity
  8
0
 62
3
420
65280
370
-1
 48
1.0
  6
BYLAYER
100
AcDbLine
 10
95.3333333333333854
 20
-27.9999999999999893
 30
0.0
 11
85.3333333333333854
 21
-28.0000000000000071
 31
0.0
  0
LINE
  5
17B
100
AcDbEntity
  8
0
 62
3
420
65280
370
-1
 48
1.0
  6
BYLAYER
100
AcDbLine
 10
95.3333333333333712
 20
-73.0
 30
0.0
 11
85.3333333333333712
 21
-72.9999999999999858
 31
0.0
  0
LINE
  5
17C
100
AcDbEntity
  8
0
 62
1
420
16711680
370
-1
 48
1.0
  6
BYLAYER
100
AcDbLine
 10
68.1499999966761152
 20
-39.4180894666483894
 30
0.0
 11
68.1499999966761152
 21
-49.4180894666483965
 31
0.0
  0
LINE
  5
17D
100
AcDbEntity
  8
0
 62
1
420
16711680
370
-1
 48
1.0
  6
BYLAYER
100
AcDbLine
 10
299.2468363054177871
 20
32.7111988639937863
 30
0.0
 11
289.2468363054177871
 21
32.7111988639937863
 31
0.0
  0
LINE
  5
17E
100
AcDbEntity
  8
0
 62
1
420
16711680
370
-1
 48
1.0
  6
BYLAYER
100
AcDbLine
 10
299.2468363054177871
 20
-151.2888011360062137
 30
0.0
 11
289.2468363054177871
 21
-151.2888011360062137
 31
0.0
  0
LINE
  5
17F
100
AcDbEntity
  8
0
 62
3
420
65280
370
-1
 48
1.0
  6
BYLAYER
100
AcDbLine
 10
386.3333333333333712
 20
225.0
 30
0.0
 11
386.3333333333333712
 21
221.0
 31
0.0
  0
LINE
  5
180
100
AcDbEntity
  8
0
 62
3
420
65280
370
-1
 48
1.0
  6
BYLAYER
100
AcDbLine
 10
386.3333333333333712
 20
61.0
 30
0.0
 11
386.3333333333333712
 21
65.0
 31
0.0
  0
LINE
  5
181
100
AcDbEntity
  8
0
 62
3
420
65280
370
-1
 48
1.0
  6
BYLAYER
100
AcDbLine
 10
85.3333333333333712
 20
73.0
 30
0.0
 11
85.3333333333333712
 21
69.0
 31
0.0
  0
LINE
  5
182
100
AcDbEntity
  8
0
 62
3
420
65280
370
-1
 48
1.0
  6
BYLAYER
100
AcDbLine
 10
85.3333333333333854
 20
28.0
 30
0.0
 11
85.3333333333333854
 21
24.0
 31
0.0
  0
LINE
  5
183
100
AcDbEntity
  8
0
 62
3
420
65280
370
-1
 48
1.0
  6
BYLAYER
100
AcDbLine
 10
85.3333333333333854
 20
-28.0000000000000071
 30
0.0
 11
85.3333333333333854
 21
-23.9999999999999751
 31
0.0
  0
LINE
  5
184
100
AcDbEntity
  8
0
 62
3
420
65280
370
-1
 48
1.0
  6
BYLAYER
100
AcDbLine
 10
85.3333333333333712
 20
-72.9999999999999858
 30
0.0
 11
85.3333333333333712
 21
-69.0
 31
0.0
  0
LINE
  5
185
100
AcDbEntity
  8
0
 62
1
420
16711680
370
-1
 48
1.0
  6
BYLAYER
100
AcDbLine
 10
68.1499999966761152
 20
-49.4180894666483965
 30
0.0
 11
72.1499999966761152
 21
-49.4180894666483823
 31
0.0
  0
LINE
  5
186
100
AcDbEntity
  8
0
 62
1
420
16711680
370
-1
 48
1.0
  6
BYLAYER
100
AcDbLine
 10
289.2468363054177871
 20
32.7111988639937863
 30
0.0
 11
289.2468363054177871
 21
28.7111988639937863
 31
0.0
  0
LINE
  5
187
100
AcDbEntity
  8
0
 62
1
420
16711680
370
-1
 48
1.0
  6
BYLAYER
100
AcDbLine
 10
289.2468363054177871
 20
-151.2888011360062137
 30
0.0
 11
289.2468363054177871
 21
-147.2888011360062137
 31
0.0
  0
LINE
  5
188
100
AcDbEntity
  8
0
 62
3
420
65280
370
-1
 48
1.0
  6
BYLAYER
100
AcDbLine
 10
386.3333333333333712
 20
221.0
 30
0.0
 11
379.0000000000000568
 21
221.0
 31
0.0
  0
LINE
  5
189
100
AcDbEntity
  8
0
 62
3
420
65280
370
-1
 48
1.0
  6
BYLAYER
100
AcDbLine
 10
386.3333333333333712
 20
65.0
 30
0.0
 11
379.0000000000000568
 21
65.0
 31
0.0
  0
LINE
  5
18A
100
AcDbEntity
  8
0
 62
3
420
65280
370
-1
 48
1.0
  6
BYLAYER
100
AcDbLine
 10
85.3333333333333712
 20
69.0
 30
0.0
 11
95.3333333333333712
 21
69.0
 31
0.0
  0
LINE
  5
18B
100
AcDbEntity
  8
0
 62
3
420
65280
370
-1
 48
1.0
  6
BYLAYER
100
AcDbLine
 10
85.3333333333333854
 20
24.0
 30
0.0
 11
95.3333333333333854
 21
24.0
 31
0.0
  0
LINE
  5
18C
100
AcDbEntity
  8
0
 62
3
420
65280
370
-1
 48
1.0
  6
BYLAYER
100
AcDbLine
 10
85.3333333333333712
 20
-69.0
 30
0.0
 11
95.3333333333333712
 21
-69.0
 31
0.0
  0
LINE
  5
18D
100
AcDbEntity
  8
0
 62
3
420
65280
370
-1
 48
1.0
  6
BYLAYER
100
AcDbLine
 10
85.3333333333333854
 20
-23.9999999999999751
 30
0.0
 11
95.3333333333333854
 21
-23.9999999999999964
 31
0.0
  0
LINE
  5
18E
100
AcDbEntity
  8
0
 62
1
420
16711680
370
-1
 48
1.0
  6
BYLAYER
100
AcDbLine
 10
72.1499999966761152
 20
-49.4180894666483823
 30
0.0
 11
72.1499999966761152
 21
-39.4180894666483894
 31
0.0
  0
LINE
  5
18F
100
AcDbEntity
  8
0
 62
1
420
16711680
370
-1
 48
1.0
  6
BYLAYER
100
AcDbLine
 10
289.2468363054177871
 20
28.7111988639937863
 30
0.0
 11
281.9135029720844727
 21
28.7111988639937863
 31
0.0
  0
LINE
  5
190
100
AcDbEntity
  8
0
 62
1
420
16711680
370
-1
 48
1.0
  6
BYLAYER
100
AcDbLine
 10
289.2468363054177871
 20
-147.2888011360062137
 30
0.0
 11
281.9135029720844727
 21
-147.2888011360062137
 31
0.0
  0
LINE
  5
191
100
AcDbEntity
  8
0
 62
3
420
65280
370
-1
 48
1.0
  6
BYLAYER
100
AcDbLine
 10
409.0
 20
120.9999999999999574
 30
0.0
 11
409.0
 21
136.9999999999999432
 31
0.0
  0
LINE
  5
192
100
AcDbEntity
  8
0
 62
1
420
16711680
370
-1
 48
1.0
  6
BYLAYER
100
AcDbLine
 10
311.9135029720844159
 20
-81.2888011360062563
 30
0.0
 11
311.9135029720844159
 21
-65.2888011360062563
 31
0.0
  0
LINE
  5
193
100
AcDbEntity
  8
0
 62
3
420
65280
370
-1
 48
1.0
  6
BYLAYER
100
AcDbLine
 10
409.0
 20
136.9999999999999432
 30
0.0
 11
391.0
 21
136.9999999999999432
 31
0.0
  0
LINE
  5
194
100
AcDbEntity
  8
0
 62
1
420
16711680
370
-1
 48
1.0
  6
BYLAYER
100
AcDbLine
 10
311.9135029720844159
 20
-65.2888011360062563
 30
0.0
 11
293.9135029720844159
 21
-65.2888011360062563
 31
0.0
  0
LINE
  5
195
100
AcDbEntity
  8
0
 62
3
420
65280
370
-1
 48
1.0
  6
BYLAYER
100
AcDbLine
 10
391.0
 20
136.9999999999999432
 30
0.0
 11
391.0
 21
120.9999999999999574
 31
0.0
  0
LINE
  5
196
100
AcDbEntity
  8
0
 62
1
420
16711680
370
-1
 48
1.0
  6
BYLAYER
100
AcDbLine
 10
293.9135029720844159
 20
-65.2888011360062563
 30
0.0
 11
293.9135029720844159
 21
-81.2888011360062563
 31
0.0
  0
LINE
  5
197
100
AcDbEntity
  8
0
 62
256
370
-1
 48
1.0
  6
BYLAYER
100
AcDbLine
 10
-95.0
 20
-75.0
 30
0.0
 11
120.0
 21
-75.0
 31
0.0
  0
LINE
  5
198
100
AcDbEntity
  8
0
 62
5
420
255
370
-1
 48
1.0
  6
BYLAYER
100
AcDbLine
 10
9.1499999999999488
 20
-56.1736887434331464
 30
0.0
 11
9.1499999999999488
 21
-66.1736887434331464
 31
0.0
  0
LINE
  5
199
100
AcDbEntity
  8
0
 62
5
420
255
370
-1
 48
1.0
  6
BYLAYER
100
AcDbLine
 10
220.64560043636763
 20
274.5
 30
0.0
 11
230.64560043636763
 21
274.5
 31
0.0
  0
LINE
  5
19A
100
AcDbEntity
  8
0
 62
5
420
255
370
-1
 48
1.0
  6
BYLAYER
100
AcDbLine
 10
-6.854399563632569
 20
274.5
 30
0.0
 11
3.145600436367431
 21
274.5
 31
0.0
  0
LINE
  5
19B
100
AcDbEntity
  8
0
 62
5
420
255
370
-1
 48
1.0
  6
BYLAYER
100
AcDbLine
 10
-200.8500000000000512
 20
106.6666666666665009
 30
0.0
 11
-200.8500000000000512
 21
97.8403554100996473
 31
0.0
  0
LINE
  5
19C
100
AcDbEntity
  8
0
 62
5
420
255
370
-1
 48
1.0
  6
BYLAYER
100
AcDbLine
 10
9.1499999999999488
 20
-66.1736887434331464
 30
0.0
 11
13.1499999999999488
 21
-66.1736887434331464
 31
0.0
  0
LINE
  5
19D
100
AcDbEntity
  8
0
 62
5
420
255
370
-1
 48
1.0
  6
BYLAYER
100
AcDbLine
 10
230.64560043636763
 20
274.5
 30
0.0
 11
230.64560043636763
 21
278.5
 31
0.0
  0
LINE
  5
19E
100
AcDbEntity
  8
0
 62
5
420
255
370
-1
 48
1.0
  6
BYLAYER
100
AcDbLine
 10
3.145600436367431
 20
274.5
 30
0.0
 11
3.145600436367431
 21
278.5
 31
0.0
  0
LINE
  5
19F
100
AcDbEntity
  8
0
 62
5
420
255
370
-1
 48
1.0
  6
BYLAYER
100
AcDbLine
 10
13.1499999999999488
 20
-66.1736887434331464
 30
0.0
 11
13.1499999999999488
 21
-56.1736887434331464
 31
0.0
  0
LINE
  5
1A0
100
AcDbEntity
  8
0
 62
5
420
255
370
-1
 48
1.0
  6
BYLAYER
100
AcDbLine
 10
230.64560043636763
 20
278.5
 30
0.0
 11
220.64560043636763
 21
278.5
 31
0.0
  0
LINE
  5
1A1
100
AcDbEntity
  8
0
 62
5
420
255
370
-1
 48
1.0
  6
BYLAYER
100
AcDbLine
 10
3.145600436367431
 20
278.5
 30
0.0
 11
-6.854399563632569
 21
278.5
 31
0.0
  0
LINE
  5
1A2
100
AcDbEntity
  8
0
 62
5
420
255
370
-1
 48
1.0
  6
BYLAYER
100
AcDbLine
 10
-196.8500000000000512
 20
87.8403554100996473
 30
0.0
 11
-196.8500000000000512
 21
97.8403554100996473
 31
0.0
  0
LINE
  5
1A3
100
AcDbEntity
  8
0
 62
5
420
255
370
-1
 48
1.0
  6
BYLAYER
100
AcDbLine
 10
13.1499999999999488
 20
-56.1736887434331464
 30
0.0
 11
9.1499999999999488
 21
-56.1736887434331464
 31
0.0
  0
LINE
  5
1A4
100
AcDbEntity
  8
0
 62
5
420
255
370
-1
 48
1.0
  6
BYLAYER
100
AcDbLine
 10
220.64560043636763
 20
278.5
 30
0.0
 11
220.64560043636763
 21
274.5
 31
0.0
  0
LINE
  5
1A5
100
AcDbEntity
  8
0
 62
5
420
255
370
-1
 48
1.0
  6
BYLAYER
100
AcDbLine
 10
-6.854399563632569
 20
278.5
 30
0.0
 11
-6.854399563632569
 21
274.5
 31
0.0
  0
LINE
  5
1A6
100
AcDbEntity
  8
0
 62
5
420
255
370
-1
 48
1.0
  6
BYLAYER
100
AcDbLine
 10
-196.8500000000000512
 20
97.8403554100996473
 30
0.0
 11
-200.8500000000000512
 21
97.8403554100996473
 31
0.0
  0
LINE
  5
1A7
100
AcDbEntity
  8
0
 62
5
420
255
370
-1
 48
1.0
  6
BYLAYER
100
AcDbLine
 10
9.1499999999999488
 20
-47.3473774868662929
 30
0.0
 11
13.1499999999999488
 21
-47.3473774868662929
 31
0.0
  0
LINE
  5
1A8
100
AcDbEntity
  8
0
 62
5
420
255
370
-1
 48
1.0
  6
BYLAYER
100
AcDbLine
 10
211.8192891798007622
 20
274.5
 30
0.0
 11
211.8192891798007622
 21
278.5
 31
0.0
  0
LINE
  5
1A9
100
AcDbEntity
  8
0
 62
5
420
255
370
-1
 48
1.0
  6
BYLAYER
100
AcDbLine
 10
-15.6807108201994367
 20
274.5
 30
0.0
 11
-15.6807108201994367
 21
278.5
 31
0.0
  0
LINE
  5
1AA
100
AcDbEntity
  8
0
 62
5
420
255
370
-1
 48
1.0
  6
BYLAYER
100
AcDbLine
 10
-200.8500000000000512
 20
106.6666666666665009
 30
0.0
 11
-196.8500000000000512
 21
106.6666666666665009
 31
0.0
  0
LINE
  5
1AB
100
AcDbEntity
  8
0
 62
5
420
255
370
-1
 48
1.0
  6
BYLAYER
100
AcDbLine
 10
9.1499999999999773
 20
6.9719116929344036
 30
0.0
 11
13.1499999999999773
 21
6.9719116929344036
 31
0.0
  0
LINE
  5
1AC
100
AcDbEntity
  8
0
 62
5
420
255
370
-1
 48
1.0
  6
BYLAYER
100
AcDbLine
 10
-53.1499999999999702
 20
6.9719116929344054
 30
0.0
 11
-49.1499999999999702
 21
6.9719116929344054
 31
0.0
  0
LINE
  5
1AD
100
AcDbEntity
  8
0
 62
5
420
255
370
-1
 48
1.0
  6
BYLAYER
100
AcDbLine
 10
157.5000000000000853
 20
274.5
 30
0.0
 11
157.5000000000001137
 21
278.5
 31
0.0
  0
LINE
  5
1AE
100
AcDbEntity
  8
0
 62
5
420
255
370
-1
 48
1.0
  6
BYLAYER
100
AcDbLine
 10
-70.0000000000001137
 20
274.5
 30
0.0
 11
-70.0000000000000853
 21
278.5
 31
0.0
  0
LINE
  5
1AF
100
AcDbEntity
  8
0
 62
5
420
255
370
-1
 48
1.0
  6
BYLAYER
100
AcDbLine
 10
-200.8500000000000227
 20
160.985955846467192
 30
0.0
 11
-196.8499999999999943
 21
160.9859558464671636
 31
0.0
  0
LINE
  5
1B0
100
AcDbEntity
  8
0
 62
5
420
255
370
-1
 48
1.0
  6
BYLAYER
100
AcDbLine
 10
-259.1499999999999773
 20
160.9859558464672205
 30
0.0
 11
-263.1500000000000341
 21
160.985955846467192
 31
0.0
  0
LINE
  5
1B1
100
AcDbEntity
  8
0
 62
5
420
255
370
-1
 48
1.0
  6
BYLAYER
100
AcDbLine
 10
13.1499999999999488
 20
-47.3473774868662929
 30
0.0
 11
13.1499999999999488
 21
-37.3473774868662929
 31
0.0
  0
LINE
  5
1B2
100
AcDbEntity
  8
0
 62
5
420
255
370
-1
 48
1.0
  6
BYLAYER
100
AcDbLine
 10
211.8192891798007622
 20
278.5
 30
0.0
 11
201.8192891798007906
 21
278.5
 31
0.0
  0
LINE
  5
1B3
100
AcDbEntity
  8
0
 62
5
420
255
370
-1
 48
1.0
  6
BYLAYER
100
AcDbLine
 10
-15.6807108201994367
 20
278.5
 30
0.0
 11
-25.6807108201994083
 21
278.5
 31
0.0
  0
LINE
  5
1B4
100
AcDbEntity
  8
0
 62
5
420
255
370
-1
 48
1.0
  6
BYLAYER
100
AcDbLine
 10
-196.8500000000000512
 20
106.6666666666665009
 30
0.0
 11
-196.8500000000000512
 21
116.6666666666665009
 31
0.0
  0
LINE
  5
1B5
100
AcDbEntity
  8
0
 62
5
420
255
370
-1
 48
1.0
  6
BYLAYER
100
AcDbLine
 10
13.1499999999999773
 20
6.9719116929344036
 30
0.0
 11
13.1499999999999773
 21
16.9719116929344054
 31
0.0
  0
LINE
  5
1B6
100
AcDbEntity
  8
0
 62
5
420
255
370
-1
 48
1.0
  6
BYLAYER
100
AcDbLine
 10
-49.1499999999999702
 20
6.9719116929344054
 30
0.0
 11
-49.1499999999999702
 21
16.9719116929344054
 31
0.0
  0
LINE
  5
1B7
100
AcDbEntity
  8
0
 62
5
420
255
370
-1
 48
1.0
  6
BYLAYER
100
AcDbLine
 10
157.5000000000001137
 20
278.5
 30
0.0
 11
147.5000000000001137
 21
278.5
 31
0.0
  0
LINE
  5
1B8
100
AcDbEntity
  8
0
 62
5
420
255
370
-1
 48
1.0
  6
BYLAYER
100
AcDbLine
 10
-70.0000000000000853
 20
278.5
 30
0.0
 11
-80.0000000000000853
 21
278.5
 31
0.0
  0
LINE
  5
1B9
100
AcDbEntity
  8
0
 62
5
420
255
370
-1
 48
1.0
  6
BYLAYER
100
AcDbLine
 10
-196.8499999999999943
 20
160.9859558464671636
 30
0.0
 11
-196.8499999999999943
 21
170.9859558464671636
 31
0.0
  0
LINE
  5
1BA
100
AcDbEntity
  8
0
 62
5
420
255
370
-1
 48
1.0
  6
BYLAYER
100
AcDbLine
 10
-263.1500000000000341
 20
160.985955846467192
 30
0.0
 11
-263.1500000000000341
 21
170.985955846467192
 31
0.0
  0
LINE
  5
1BB
100
AcDbEntity
  8
0
 62
5
420
255
370
-1
 48
1.0
  6
BYLAYER
100
AcDbLine
 10
13.1499999999999488
 20
-37.3473774868662929
 30
0.0
 11
9.1499999999999488
 21
-37.3473774868662929
 31
0.0
  0
LINE
  5
1BC
100
AcDbEntity
  8
0
 62
5
420
255
370
-1
 48
1.0
  6
BYLAYER
100
AcDbLine
 10
201.8192891798007906
 20
278.5
 30
0.0
 11
201.8192891798007622
 21
274.5
 31
0.0
  0
LINE
  5
1BD
100
AcDbEntity
  8
0
 62
5
420
255
370
-1
 48
1.0
  6
BYLAYER
100
AcDbLine
 10
-25.6807108201994083
 20
278.5
 30
0.0
 11
-25.6807108201994367
 21
274.5
 31
0.0
  0
LINE
  5
1BE
100
AcDbEntity
  8
0
 62
5
420
255
370
-1
 48
1.0
  6
BYLAYER
100
AcDbLine
 10
-196.8500000000000512
 20
116.6666666666665009
 30
0.0
 11
-200.8500000000000512
 21
116.6666666666665009
 31
0.0
  0
LINE
  5
1BF
100
AcDbEntity
  8
0
 62
5
420
255
370
-1
 48
1.0
  6
BYLAYER
100
AcDbLine
 10
13.1499999999999773
 20
16.9719116929344054
 30
0.0
 11
9.1499999999999773
 21
16.9719116929344054
 31
0.0
  0
LINE
  5
1C0
100
AcDbEntity
  8
0
 62
5
420
255
370
-1
 48
1.0
  6
BYLAYER
100
AcDbLine
 10
-49.1499999999999702
 20
16.9719116929344054
 30
0.0
 11
-53.1499999999999702
 21
16.9719116929344054
 31
0.0
  0
LINE
  5
1C1
100
AcDbEntity
  8
0
 62
5
420
255
370
-1
 48
1.0
  6
BYLAYER
100
AcDbLine
 10
147.5000000000001137
 20
278.5
 30
0.0
 11
147.5000000000001137
 21
274.5
 31
0.0
  0
LINE
  5
1C2
100
AcDbEntity
  8
0
 62
5
420
255
370
-1
 48
1.0
  6
BYLAYER
100
AcDbLine
 10
-80.0000000000000853
 20
278.5
 30
0.0
 11
-80.0000000000000853
 21
274.5
 31
0.0
  0
LINE
  5
1C3
100
AcDbEntity
  8
0
 62
5
420
255
370
-1
 48
1.0
  6
BYLAYER
100
AcDbLine
 10
-196.8499999999999943
 20
170.9859558464671636
 30
0.0
 11
-200.8499999999999943
 21
170.9859558464671636
 31
0.0
  0
LINE
  5
1C4
100
AcDbEntity
  8
0
 62
5
420
255
370
-1
 48
1.0
  6
BYLAYER
100
AcDbLine
 10
-263.1500000000000341
 20
170.985955846467192
 30
0.0
 11
-259.1499999999999773
 21
170.985955846467192
 31
0.0
  0
LINE
  5
1C5
100
AcDbEntity
  8
0
 62
5
420
255
370
-1
 48
1.0
  6
BYLAYER
100
AcDbLine
 10
9.1499999999999488
 20
-37.3473774868662929
 30
0.0
 11
9.1499999999999488
 21
-47.3473774868662929
 31
0.0
  0
LINE
  5
1C6
100
AcDbEntity
  8
0
 62
5
420
255
370
-1
 48
1.0
  6
BYLAYER
100
AcDbLine
 10
201.8192891798007622
 20
274.5
 30
0.0
 11
211.8192891798007622
 21
274.5
 31
0.0
  0
LINE
  5
1C7
100
AcDbEntity
  8
0
 62
5
420
255
370
-1
 48
1.0
  6
BYLAYER
100
AcDbLine
 10
-25.6807108201994367
 20
274.5
 30
0.0
 11
-15.6807108201994367
 21
274.5
 31
0.0
  0
LINE
  5
1C8
100
AcDbEntity
  8
0
 62
5
420
255
370
-1
 48
1.0
  6
BYLAYER
100
AcDbLine
 10
-200.8500000000000512
 20
116.6666666666665009
 30
0.0
 11
-200.8500000000000512
 21
125.4929779232333544
 31
0.0
  0
LINE
  5
1C9
100
AcDbEntity
  8
0
 62
5
420
255
370
-1
 48
1.0
  6
BYLAYER
100
AcDbLine
 10
9.1499999999999773
 20
16.9719116929344054
 30
0.0
 11
9.1499999999999773
 21
6.9719116929344036
 31
0.0
  0
LINE
  5
1CA
100
AcDbEntity
  8
0
 62
5
420
255
370
-1
 48
1.0
  6
BYLAYER
100
AcDbLine
 10
-53.1499999999999702
 20
16.9719116929344054
 30
0.0
 11
-53.1499999999999702
 21
6.9719116929344054
 31
0.0
  0
LINE
  5
1CB
100
AcDbEntity
  8
0
 62
5
420
255
370
-1
 48
1.0
  6
BYLAYER
100
AcDbLine
 10
147.5000000000001137
 20
274.5
 30
0.0
 11
157.5000000000000853
 21
274.5
 31
0.0
  0
LINE
  5
1CC
100
AcDbEntity
  8
0
 62
5
420
255
370
-1
 48
1.0
  6
BYLAYER
100
AcDbLine
 10
-80.0000000000000853
 20
274.5
 30
0.0
 11
-70.0000000000001137
 21
274.5
 31
0.0
  0
LINE
  5
1CD
100
AcDbEntity
  8
0
 62
5
420
255
370
-1
 48
1.0
  6
BYLAYER
100
AcDbLine
 10
-200.8499999999999375
 20
152.1596445899003243
 30
0.0
 11
-200.8500000000000227
 21
160.985955846467192
 31
0.0
  0
LINE
  5
1CE
100
AcDbEntity
  8
0
 62
5
420
255
370
-1
 48
1.0
  6
BYLAYER
100
AcDbLine
 10
-259.1500000000000909
 20
152.1596445899003527
 30
0.0
 11
-259.1499999999999773
 21
160.9859558464672205
 31
0.0
  0
LINE
  5
1CF
100
AcDbEntity
  8
0
 62
5
420
255
370
-1
 48
1.0
  6
BYLAYER
100
AcDbLine
 10
-49.1499999999999773
 20
-47.3473774868662716
 30
0.0
 11
-49.1499999999999773
 21
-37.3473774868662716
 31
0.0
  0
LINE
  5
1D0
100
AcDbEntity
  8
0
 62
5
420
255
370
-1
 48
1.0
  6
BYLAYER
100
AcDbLine
 10
-259.1499999999999773
 20
125.4929779232333829
 30
0.0
 11
-259.1499999999999773
 21
116.6666666666665151
 31
0.0
  0
LINE
  5
1D1
100
AcDbEntity
  8
0
 62
5
420
255
370
-1
 48
1.0
  6
BYLAYER
100
AcDbLine
 10
-49.1499999999999773
 20
-37.3473774868662716
 30
0.0
 11
-53.1499999999999773
 21
-37.3473774868662716
 31
0.0
  0
LINE
  5
1D2
100
AcDbEntity
  8
0
 62
5
420
255
370
-1
 48
1.0
  6
BYLAYER
100
AcDbLine
 10
199.6596445899003527
 20
138.5
 30
0.0
 11
199.6596445899003527
 21
134.5
 31
0.0
  0
LINE
  5
1D3
100
AcDbEntity
  8
0
 62
5
420
255
370
-1
 48
1.0
  6
BYLAYER
100
AcDbLine
 10
-27.8403554100998463
 20
138.5
 30
0.0
 11
-27.8403554100998463
 21
134.5
 31
0.0
  0
LINE
  5
1D4
100
AcDbEntity
  8
0
 62
5
420
255
370
-1
 48
1.0
  6
BYLAYER
100
AcDbLine
 10
-259.1499999999999773
 20
116.6666666666665151
 30
0.0
 11
-263.1499999999999773
 21
116.6666666666665151
 31
0.0
  0
LINE
  5
1D5
100
AcDbEntity
  8
0
 62
5
420
255
370
-1
 48
1.0
  6
BYLAYER
100
AcDbLine
 10
162.0070220767666171
 20
138.5
 30
0.0
 11
162.0070220767666171
 21
134.5
 31
0.0
  0
LINE
  5
1D6
100
AcDbEntity
  8
0
 62
5
420
255
370
-1
 48
1.0
  6
BYLAYER
100
AcDbLine
 10
124.3543995636328816
 20
138.5
 30
0.0
 11
124.3543995636328816
 21
134.5
 31
0.0
  0
LINE
  5
1D7
100
AcDbEntity
  8
0
 62
5
420
255
370
-1
 48
1.0
  6
BYLAYER
100
AcDbLine
 10
-65.4929779232335534
 20
138.5
 30
0.0
 11
-65.4929779232335534
 21
134.5
 31
0.0
  0
LINE
  5
1D8
100
AcDbEntity
  8
0
 62
5
420
255
370
-1
 48
1.0
  6
BYLAYER
100
AcDbLine
 10
-103.1456004363672889
 20
138.5
 30
0.0
 11
-103.1456004363672889
 21
134.5
 31
0.0
  0
LINE
  5
1D9
100
AcDbEntity
  8
0
 62
5
420
255
370
-1
 48
1.0
  6
BYLAYER
100
AcDbLine
 10
-53.1499999999999773
 20
-37.3473774868662716
 30
0.0
 11
-53.1499999999999773
 21
-47.3473774868662716
 31
0.0
  0
LINE
  5
1DA
100
AcDbEntity
  8
0
 62
5
420
255
370
-1
 48
1.0
  6
BYLAYER
100
AcDbLine
 10
199.6596445899003527
 20
134.5
 30
0.0
 11
209.6596445899003527
 21
134.5
 31
0.0
  0
LINE
  5
1DB
100
AcDbEntity
  8
0
 62
5
420
255
370
-1
 48
1.0
  6
BYLAYER
100
AcDbLine
 10
-27.8403554100998463
 20
134.5
 30
0.0
 11
-17.8403554100998463
 21
134.5
 31
0.0
  0
LINE
  5
1DC
100
AcDbEntity
  8
0
 62
5
420
255
370
-1
 48
1.0
  6
BYLAYER
100
AcDbLine
 10
-263.1499999999999773
 20
116.6666666666665151
 30
0.0
 11
-263.1499999999999773
 21
106.6666666666665151
 31
0.0
  0
LINE
  5
1DD
100
AcDbEntity
  8
0
 62
5
420
255
370
-1
 48
1.0
  6
BYLAYER
100
AcDbLine
 10
162.0070220767666171
 20
134.5
 30
0.0
 11
172.0070220767666171
 21
134.5
 31
0.0
  0
LINE
  5
1DE
100
AcDbEntity
  8
0
 62
5
420
255
370
-1
 48
1.0
  6
BYLAYER
100
AcDbLine
 10
124.3543995636328816
 20
134.5
 30
0.0
 11
134.3543995636328816
 21
134.5
 31
0.0
  0
LINE
  5
1DF
100
AcDbEntity
  8
0
 62
5
420
255
370
-1
 48
1.0
  6
BYLAYER
100
AcDbLine
 10
-65.4929779232335534
 20
134.5
 30
0.0
 11
-55.4929779232335534
 21
134.5
 31
0.0
  0
LINE
  5
1E0
100
AcDbEntity
  8
0
 62
5
420
255
370
-1
 48
1.0
  6
BYLAYER
100
AcDbLine
 10
-103.1456004363672889
 20
134.5
 30
0.0
 11
-93.1456004363672889
 21
134.5
 31
0.0
  0
LINE
  5
1E1
100
AcDbEntity
  8
0
 62
5
420
255
370
-1
 48
1.0
  6
BYLAYER
100
AcDbLine
 10
-53.1499999999999773
 20
-47.3473774868662716
 30
0.0
 11
-49.1499999999999773
 21
-47.3473774868662716
 31
0.0
  0
LINE
  5
1E2
100
AcDbEntity
  8
0
 62
5
420
255
370
-1
 48
1.0
  6
BYLAYER
100
AcDbLine
 10
209.6596445899003527
 20
134.5
 30
0.0
 11
209.6596445899003527
 21
138.5
 31
0.0
  0
LINE
  5
1E3
100
AcDbEntity
  8
0
 62
5
420
255
370
-1
 48
1.0
  6
BYLAYER
100
AcDbLine
 10
-17.8403554100998463
 20
134.5
 30
0.0
 11
-17.8403554100998463
 21
138.5
 31
0.0
  0
LINE
  5
1E4
100
AcDbEntity
  8
0
 62
5
420
255
370
-1
 48
1.0
  6
BYLAYER
100
AcDbLine
 10
-263.1499999999999773
 20
106.6666666666665151
 30
0.0
 11
-259.1499999999999773
 21
106.6666666666665151
 31
0.0
  0
LINE
  5
1E5
100
AcDbEntity
  8
0
 62
5
420
255
370
-1
 48
1.0
  6
BYLAYER
100
AcDbLine
 10
172.0070220767666171
 20
134.5
 30
0.0
 11
172.0070220767666171
 21
138.5
 31
0.0
  0
LINE
  5
1E6
100
AcDbEntity
  8
0
 62
5
420
255
370
-1
 48
1.0
  6
BYLAYER
100
AcDbLine
 10
134.3543995636328816
 20
134.5
 30
0.0
 11
134.3543995636328816
 21
138.5
 31
0.0
  0
LINE
  5
1E7
100
AcDbEntity
  8
0
 62
5
420
255
370
-1
 48
1.0
  6
BYLAYER
100
AcDbLine
 10
-55.4929779232335534
 20
134.5
 30
0.0
 11
-55.4929779232335534
 21
138.5
 31
0.0
  0
LINE
  5
1E8
100
AcDbEntity
  8
0
 62
5
420
255
370
-1
 48
1.0
  6
BYLAYER
100
AcDbLine
 10
-93.1456004363672889
 20
134.5
 30
0.0
 11
-93.1456004363672889
 21
138.5
 31
0.0
  0
LINE
  5
1E9
100
AcDbEntity
  8
0
 62
5
420
255
370
-1
 48
1.0
  6
BYLAYER
100
AcDbLine
 10
-49.1499999999999773
 20
-56.1736887434331322
 30
0.0
 11
-53.1499999999999773
 21
-56.1736887434331322
 31
0.0
  0
LINE
  5
1EA
100
AcDbEntity
  8
0
 62
5
420
255
370
-1
 48
1.0
  6
BYLAYER
100
AcDbLine
 10
218.4859558464672205
 20
138.5
 30
0.0
 11
218.4859558464672205
 21
134.5
 31
0.0
  0
LINE
  5
1EB
100
AcDbEntity
  8
0
 62
5
420
255
370
-1
 48
1.0
  6
BYLAYER
100
AcDbLine
 10
-9.0140441535329785
 20
138.5
 30
0.0
 11
-9.0140441535329785
 21
134.5
 31
0.0
  0
LINE
  5
1EC
100
AcDbEntity
  8
0
 62
5
420
255
370
-1
 48
1.0
  6
BYLAYER
100
AcDbLine
 10
-259.1499999999999773
 20
97.8403554100996615
 30
0.0
 11
-263.1499999999999773
 21
97.8403554100996615
 31
0.0
  0
LINE
  5
1ED
100
AcDbEntity
  8
0
 62
5
420
255
370
-1
 48
1.0
  6
BYLAYER
100
AcDbLine
 10
180.8333333333334849
 20
138.5
 30
0.0
 11
180.8333333333334849
 21
134.5
 31
0.0
  0
LINE
  5
1EE
100
AcDbEntity
  8
0
 62
5
420
255
370
-1
 48
1.0
  6
BYLAYER
100
AcDbLine
 10
143.1807108201997494
 20
138.5
 30
0.0
 11
143.1807108201997494
 21
134.5
 31
0.0
  0
LINE
  5
1EF
100
AcDbEntity
  8
0
 62
5
420
255
370
-1
 48
1.0
  6
BYLAYER
100
AcDbLine
 10
105.5280883070660138
 20
138.5
 30
0.0
 11
105.5280883070660138
 21
134.5
 31
0.0
  0
LINE
  5
1F0
100
AcDbEntity
  8
0
 62
5
420
255
370
-1
 48
1.0
  6
BYLAYER
100
AcDbLine
 10
-46.6666666666666856
 20
138.5
 30
0.0
 11
-46.6666666666666856
 21
134.5
 31
0.0
  0
LINE
  5
1F1
100
AcDbEntity
  8
0
 62
5
420
255
370
-1
 48
1.0
  6
BYLAYER
100
AcDbLine
 10
-84.3192891798004212
 20
138.5
 30
0.0
 11
-84.3192891798004212
 21
134.5
 31
0.0
  0
LINE
  5
1F2
100
AcDbEntity
  8
0
 62
5
420
255
370
-1
 48
1.0
  6
BYLAYER
100
AcDbLine
 10
-121.9719116929341567
 20
138.5
 30
0.0
 11
-121.9719116929341567
 21
134.5
 31
0.0
  0
LINE
  5
1F3
100
AcDbEntity
  8
0
 62
5
420
255
370
-1
 48
1.0
  6
BYLAYER
100
AcDbLine
 10
-53.1499999999999773
 20
-56.1736887434331322
 30
0.0
 11
-53.1499999999999773
 21
-66.1736887434331322
 31
0.0
  0
LINE
  5
1F4
100
AcDbEntity
  8
0
 62
5
420
255
370
-1
 48
1.0
  6
BYLAYER
100
AcDbLine
 10
218.4859558464672205
 20
134.5
 30
0.0
 11
228.4859558464672205
 21
134.5
 31
0.0
  0
LINE
  5
1F5
100
AcDbEntity
  8
0
 62
5
420
255
370
-1
 48
1.0
  6
BYLAYER
100
AcDbLine
 10
-9.0140441535329785
 20
134.5
 30
0.0
 11
0.9859558464670215
 21
134.5
 31
0.0
  0
LINE
  5
1F6
100
AcDbEntity
  8
0
 62
5
420
255
370
-1
 48
1.0
  6
BYLAYER
100
AcDbLine
 10
-263.1499999999999773
 20
97.8403554100996615
 30
0.0
 11
-263.1499999999999773
 21
87.8403554100996615
 31
0.0
  0
LINE
  5
1F7
100
AcDbEntity
  8
0
 62
5
420
255
370
-1
 48
1.0
  6
BYLAYER
100
AcDbLine
 10
-53.1499999999999773
 20
-66.1736887434331322
 30
0.0
 11
-49.1499999999999773
 21
-66.1736887434331322
 31
0.0
  0
LINE
  5
1F8
100
AcDbEntity
  8
0
 62
5
420
255
370
-1
 48
1.0
  6
BYLAYER
100
AcDbLine
 10
228.4859558464672205
 20
134.5
 30
0.0
 11
228.4859558464672205
 21
138.5
 31
0.0
  0
LINE
  5
1F9
100
AcDbEntity
  8
0
 62
5
420
255
370
-1
 48
1.0
  6
BYLAYER
100
AcDbLine
 10
0.9859558464670215
 20
134.5
 30
0.0
 11
0.9859558464670215
 21
138.5
 31
0.0
  0
LINE
  5
1FA
100
AcDbEntity
  8
0
 62
5
420
255
370
-1
 48
1.0
  6
BYLAYER
100
AcDbLine
 10
-263.1499999999999773
 20
87.8403554100996615
 30
0.0
 11
-196.8500000000000512
 21
87.8403554100996473
 31
0.0
  0
LINE
  5
1FB
100
AcDbEntity
  8
0
 62
5
420
255
370
-1
 48
1.0
  6
BYLAYER
100
AcDbLine
 10
-49.1499999999999773
 20
-66.1736887434331322
 30
0.0
 11
-49.1499999999999773
 21
-56.1736887434331322
 31
0.0
  0
LINE
  5
1FC
100
AcDbEntity
  8
0
 62
5
420
255
370
-1
 48
1.0
  6
BYLAYER
100
AcDbLine
 10
-259.1499999999999773
 20
106.6666666666665151
 30
0.0
 11
-259.1499999999999773
 21
97.8403554100996615
 31
0.0
  0
LINE
  5
1FD
100
AcDbEntity
  8
0
 62
5
420
255
370
-1
 48
1.0
  6
BYLAYER
100
AcDbLine
 10
190.8333333333334849
 20
138.5
 30
0.0
 11
199.6596445899003527
 21
138.5
 31
0.0
  0
LINE
  5
1FE
100
AcDbEntity
  8
0
 62
5
420
255
370
-1
 48
1.0
  6
BYLAYER
100
AcDbLine
 10
209.6596445899003527
 20
138.5
 30
0.0
 11
218.4859558464672205
 21
138.5
 31
0.0
  0
LINE
  5
1FF
100
AcDbEntity
  8
0
 62
5
420
255
370
-1
 48
1.0
  6
BYLAYER
100
AcDbLine
 10
228.4859558464672205
 20
138.5
 30
0.0
 11
237.3122671030343156
 21
138.5
 31
0.0
  0
LINE
  5
200
100
AcDbEntity
  8
0
 62
5
420
255
370
-1
 48
1.0
  6
BYLAYER
100
AcDbLine
 10
-36.666666666666714
 20
138.5
 30
0.0
 11
-27.8403554100998463
 21
138.5
 31
0.0
  0
LINE
  5
201
100
AcDbEntity
  8
0
 62
5
420
255
370
-1
 48
1.0
  6
BYLAYER
100
AcDbLine
 10
-17.8403554100998463
 20
138.5
 30
0.0
 11
-9.0140441535329785
 21
138.5
 31
0.0
  0
LINE
  5
202
100
AcDbEntity
  8
0
 62
5
420
255
370
-1
 48
1.0
  6
BYLAYER
100
AcDbLine
 10
0.9859558464670215
 20
138.5
 30
0.0
 11
9.8122671030341166
 21
138.5
 31
0.0
  0
LINE
  5
203
100
AcDbEntity
  8
0
 62
5
420
255
370
-1
 48
1.0
  6
BYLAYER
100
AcDbLine
 10
153.1807108201997494
 20
138.5
 30
0.0
 11
162.0070220767666171
 21
138.5
 31
0.0
  0
LINE
  5
204
100
AcDbEntity
  8
0
 62
5
420
255
370
-1
 48
1.0
  6
BYLAYER
100
AcDbLine
 10
172.0070220767666171
 20
138.5
 30
0.0
 11
180.8333333333334849
 21
138.5
 31
0.0
  0
LINE
  5
205
100
AcDbEntity
  8
0
 62
5
420
255
370
-1
 48
1.0
  6
BYLAYER
100
AcDbLine
 10
115.5280883070660138
 20
138.5
 30
0.0
 11
124.3543995636328816
 21
138.5
 31
0.0
  0
LINE
  5
206
100
AcDbEntity
  8
0
 62
5
420
255
370
-1
 48
1.0
  6
BYLAYER
100
AcDbLine
 10
134.3543995636328816
 20
138.5
 30
0.0
 11
143.1807108201997494
 21
138.5
 31
0.0
  0
LINE
  5
207
100
AcDbEntity
  8
0
 62
5
420
255
370
-1
 48
1.0
  6
BYLAYER
100
AcDbLine
 10
-74.3192891798004212
 20
138.5
 30
0.0
 11
-65.4929779232335534
 21
138.5
 31
0.0
  0
LINE
  5
208
100
AcDbEntity
  8
0
 62
5
420
255
370
-1
 48
1.0
  6
BYLAYER
100
AcDbLine
 10
-55.4929779232335534
 20
138.5
 30
0.0
 11
-46.6666666666666856
 21
138.5
 31
0.0
  0
LINE
  5
209
100
AcDbEntity
  8
0
 62
5
420
255
370
-1
 48
1.0
  6
BYLAYER
100
AcDbLine
 10
-111.9719116929341567
 20
138.5
 30
0.0
 11
-103.1456004363672889
 21
138.5
 31
0.0
  0
LINE
  5
20A
100
AcDbEntity
  8
0
 62
5
420
255
370
-1
 48
1.0
  6
BYLAYER
100
AcDbLine
 10
-93.1456004363672889
 20
138.5
 30
0.0
 11
-84.3192891798004212
 21
138.5
 31
0.0
  0
CIRCLE
  5
20B
100
AcDbEntity
  8
0
 62
256
370
-1
 48
1.0
  6
BYLAYER
100
AcDbCircle
 10
-300.0
 20
270.0
 30
0.0
 40
7.5
  0
CIRCLE
  5
20C
100
AcDbEntity
  8
0
 62
256
370
-1
 48
1.0
  6
BYLAYER
100
AcDbCircle
 10
-300.0
 20
270.0
 30
0.0
 40
10.0
  0
DIMENSION
  5
20D
100
AcDbEntity
  8
0
 62
256
370
-1
 48
1.0
  6
BYLAYER
100
AcDbDimension
 10
-49.1499999999999844
 20
-89.9999999999999858
 30
0.0
 11
-20.0000000000000213
 21
-88.125
 31
0.0
 70
1
 71
8
 72
2
 74
0
 75
0
 41
1.0
 42
0.0
  1

  3
Standard
100
AcDbAlignedDimension
 13
-49.1499999999999773
 23
-66.1736887434331322
 33
0.0
 14
9.1499999999999488
 24
-66.1736887434331464
 34
0.0
1001
ACAD
1000
DSTYLE
1002
{
1070
144
1040
1.0
1070
40
1040
1.0
1002
}
  0
ENDSEC
  0
SECTION
  2
OBJECTS
  0
DICTIONARY
  5
C
100
AcDbDictionary
280
0
281
1
  3
ACAD_GROUP
350
D
  3
ACAD_LAYOUT
350
1A
  3
ACAD_MLINESTYLE
350
17
  3
ACAD_PLOTSETTINGS
350
19
  3
ACAD_PLOTSTYLENAME
350
E
  3
AcDbVariableDictionary
350
20E
  3
QCAD_OBJECTS
350
20F
  0
DICTIONARY
  5
D
100
AcDbDictionary
280
0
281
1
  0
ACDBDICTIONARYWDFLT
  5
E
100
AcDbDictionary
281
1
  3
Normal
350
F
100
AcDbDictionaryWithDefault
340
F
  0
ACDBPLACEHOLDER
  5
F
  0
DICTIONARY
  5
17
100
AcDbDictionary
280
0
281
1
  3
Standard
350
18
  0
MLINESTYLE
  5
18
100
AcDbMlineStyle
  2
STANDARD
 70
0
  3

 62
256
 51
90.0
 52
90.0
 71
2
 49
0.5
 62
256
  6
BYLAYER
 49
-0.5
 62
256
  6
BYLAYER
  0
DICTIONARY
  5
19
100
AcDbDictionary
280
0
281
1
  0
DICTIONARY
  5
1A
100
AcDbDictionary
281
1
  3
Layout1
350
1E
  3
Layout2
350
26
  3
Model
350
22
  0
LAYOUT
  5
1E
100
AcDbPlotSettings
  1

  2
none_device
  4

  6

 40
0.0
 41
0.0
 42
0.0
 43
0.0
 44
0.0
 45
0.0
 46
0.0
 47
0.0
 48
0.0
 49
0.0
140
0.0
141
0.0
142
1.0
143
1.0
 70
688
 72
0
 73
0
 74
5
  7

 75
16
147
1.0
148
0.0
149
0.0
100
AcDbLayout
  1
Layout1
 70
1
 71
1
 10
0.0
 20
0.0
 11
420.0
 21
297.0
 12
0.0
 22
0.0
 32
0.0
 14
100000000000000000000.0
 24
100000000000000000000.0
 34
100000000000000000000.0
 15
-100000000000000000000.0
 25
-100000000000000000000.0
 35
-100000000000000000000.0
146
0.0
 13
0.0
 23
0.0
 33
0.0
 16
1.0
 26
0.0
 36
0.0
 17
0.0
 27
1.0
 37
0.0
 76
0
330
1B
  0
LAYOUT
  5
22
100
AcDbPlotSettings
  1

  2
none_device
  4

  6

 40
0.0
 41
0.0
 42
0.0
 43
0.0
 44
0.0
 45
0.0
 46
0.0
 47
0.0
 48
0.0
 49
0.0
140
0.0
141
0.0
142
1.0
143
1.0
 70
1712
 72
0
 73
0
 74
0
  7

 75
0
147
1.0
148
0.0
149
0.0
100
AcDbLayout
  1
Model
 70
1
 71
0
 10
0.0
 20
0.0
 11
12.0
 21
9.0
 12
0.0
 22
0.0
 32
0.0
 14
0.0
 24
0.0
 34
0.0
 15
0.0
 25
0.0
 35
0.0
146
0.0
 13
0.0
 23
0.0
 33
0.0
 16
1.0
 26
0.0
 36
0.0
 17
0.0
 27
1.0
 37
0.0
 76
0
330
1F
  0
LAYOUT
  5
26
100
AcDbPlotSettings
  1

  2
none_device
  4

  6

 40
0.0
 41
0.0
 42
0.0
 43
0.0
 44
0.0
 45
0.0
 46
0.0
 47
0.0
 48
0.0
 49
0.0
140
0.0
141
0.0
142
1.0
143
1.0
 70
688
 72
0
 73
0
 74
5
  7

 75
16
147
1.0
148
0.0
149
0.0
100
AcDbLayout
  1
Layout2
 70
1
 71
2
 10
0.0
 20
0.0
 11
12.0
 21
9.0
 12
0.0
 22
0.0
 32
0.0
 14
0.0
 24
0.0
 34
0.0
 15
0.0
 25
0.0
 35
0.0
146
0.0
 13
0.0
 23
0.0
 33
0.0
 16
1.0
 26
0.0
 36
0.0
 17
0.0
 27
1.0
 37
0.0
 76
0
330
23
  0
DICTIONARY
  5
20E
100
AcDbDictionary
281
1
  3
DIMASSOC
350
211
  3
HIDETEXT
350
210
  0
DICTIONARYVAR
  5
210
100
DictionaryVariables
280
0
  1
2
  0
DICTIONARYVAR
  5
211
100
DictionaryVariables
280
0
  1
1
  0
DICTIONARY
  5
20F
100
AcDbDictionary
281
1
  3
ColorSettings/BackgroundColor
350
212
  3
ColorSettings/ColorMode
350
213
  3
Grid/DisplayGrid00
350
214
  3
Grid/DisplayGrid01
350
215
  3
Grid/DisplayGrid02
350
216
  3
Grid/DisplayGrid03
350
217
  3
Grid/GridSpacingX00
350
218
  3
Grid/GridSpacingX01
350
219
  3
Grid/GridSpacingX02
350
21A
  3
Grid/GridSpacingX03
350
21B
  3
Grid/GridSpacingY00
350
21C
  3
Grid/GridSpacingY01
350
21D
  3
Grid/GridSpacingY02
350
21E
  3
Grid/GridSpacingY03
350
21F
  3
Grid/IsometricGrid00
350
220
  3
Grid/IsometricGrid01
350
221
  3
Grid/IsometricGrid02
350
222
  3
Grid/IsometricGrid03
350
223
  3
Grid/IsometricProjection00
350
224
  3
Grid/IsometricProjection01
350
225
  3
Grid/IsometricProjection02
350
226
  3
Grid/IsometricProjection03
350
227
  3
Grid/MetaGridSpacingX00
350
228
  3
Grid/MetaGridSpacingX01
350
229
  3
Grid/MetaGridSpacingX02
350
22A
  3
Grid/MetaGridSpacingX03
350
22B
  3
Grid/MetaGridSpacingY00
350
22C
  3
Grid/MetaGridSpacingY01
350
22D
  3
Grid/MetaGridSpacingY02
350
22E
  3
Grid/MetaGridSpacingY03
350
22F
  3
MultiPageSettings/Columns
350
230
  3
MultiPageSettings/GlueMarginsBottom
350
231
  3
MultiPageSettings/GlueMarginsLeft
350
232
  3
MultiPageSettings/GlueMarginsRight
350
233
  3
MultiPageSettings/GlueMarginsTop
350
234
  3
MultiPageSettings/PrintCropMarks
350
235
  3
MultiPageSettings/Rows
350
236
  3
PageSettings/OffsetX
350
237
  3
PageSettings/OffsetY
350
238
  3
PageSettings/PageOrientation
350
239
  3
PageSettings/PaperHeight
350
23A
  3
PageSettings/PaperWidth
350
23B
  3
PageSettings/Scale
350
23C
  3
PageSettings/ShowPaperBorders
350
23D
  3
PageTagSettings/EnablePageTags
350
23E
  3
PageTagSettings/TagAlignment
350
23F
  3
PageTagSettings/TagFont
350
240
  3
PageTagSettings/TagPosition
350
241
  3
QCADVersion
350
242
  3
UnitSettings/PaperUnit
350
243
  3
ViewportCenter
350
244
  3
ViewportHeight
350
245
  3
ViewportWidth
350
246
  0
XRECORD
  5
212
330
20F
100
AcDbXrecord
280
1
1000
\U+0411\U+0435\U+043b\U+044b\U+0439
  0
XRECORD
  5
213
330
20F
100
AcDbXrecord
280
1
1000
FullColor
  0
XRECORD
  5
214
330
20F
100
AcDbXrecord
280
1
290
1
  0
XRECORD
  5
215
330
20F
100
AcDbXrecord
280
1
290
1
  0
XRECORD
  5
216
330
20F
100
AcDbXrecord
280
1
290
1
  0
XRECORD
  5
217
330
20F
100
AcDbXrecord
280
1
290
1
  0
XRECORD
  5
218
330
20F
100
AcDbXrecord
280
1
1000
auto
  0
XRECORD
  5
219
330
20F
100
AcDbXrecord
280
1
1000
auto
  0
XRECORD
  5
21A
330
20F
100
AcDbXrecord
280
1
1000
auto
  0
XRECORD
  5
21B
330
20F
100
AcDbXrecord
280
1
1000
auto
  0
XRECORD
  5
21C
330
20F
100
AcDbXrecord
280
1
1000
auto
  0
XRECORD
  5
21D
330
20F
100
AcDbXrecord
280
1
1000
auto
  0
XRECORD
  5
21E
330
20F
100
AcDbXrecord
280
1
1000
auto
  0
XRECORD
  5
21F
330
20F
100
AcDbXrecord
280
1
1000
auto
  0
XRECORD
  5
220
330
20F
100
AcDbXrecord
280
1
290
0
  0
XRECORD
  5
221
330
20F
100
AcDbXrecord
280
1
290
0
  0
XRECORD
  5
222
330
20F
100
AcDbXrecord
280
1
290
0
  0
XRECORD
  5
223
330
20F
100
AcDbXrecord
280
1
290
0
  0
XRECORD
  5
224
330
20F
100
AcDbXrecord
280
1
 90
65537
  0
XRECORD
  5
225
330
20F
100
AcDbXrecord
280
1
 90
65537
  0
XRECORD
  5
226
330
20F
100
AcDbXrecord
280
1
 90
65537
  0
XRECORD
  5
227
330
20F
100
AcDbXrecord
280
1
 90
65537
  0
XRECORD
  5
228
330
20F
100
AcDbXrecord
280
1
1000
auto
  0
XRECORD
  5
229
330
20F
100
AcDbXrecord
280
1
1000
auto
  0
XRECORD
  5
22A
330
20F
100
AcDbXrecord
280
1
1000
auto
  0
XRECORD
  5
22B
330
20F
100
AcDbXrecord
280
1
1000
auto
  0
XRECORD
  5
22C
330
20F
100
AcDbXrecord
280
1
1000
auto
  0
XRECORD
  5
22D
330
20F
100
AcDbXrecord
280
1
1000
auto
  0
XRECORD
  5
22E
330
20F
100
AcDbXrecord
280
1
1000
auto
  0
XRECORD
  5
22F
330
20F
100
AcDbXrecord
280
1
1000
auto
  0
XRECORD
  5
230
330
20F
100
AcDbXrecord
280
1
 90
1
  0
XRECORD
  5
231
330
20F
100
AcDbXrecord
280
1
 40
10.0
  0
XRECORD
  5
232
330
20F
100
AcDbXrecord
280
1
 40
10.0
  0
XRECORD
  5
233
330
20F
100
AcDbXrecord
280
1
 40
10.0
  0
XRECORD
  5
234
330
20F
100
AcDbXrecord
280
1
 40
10.0
  0
XRECORD
  5
235
330
20F
100
AcDbXrecord
280
1
290
0
  0
XRECORD
  5
236
330
20F
100
AcDbXrecord
280
1
 90
1
  0
XRECORD
  5
237
330
20F
100
AcDbXrecord
280
1
 40
0.0
  0
XRECORD
  5
238
330
20F
100
AcDbXrecord
280
1
 40
0.0
  0
XRECORD
  5
239
330
20F
100
AcDbXrecord
280
1
1000
Portrait
  0
XRECORD
  5
23A
330
20F
100
AcDbXrecord
280
1
 40
297.0
  0
XRECORD
  5
23B
330
20F
100
AcDbXrecord
280
1
 40
210.0
  0
XRECORD
  5
23C
330
20F
100
AcDbXrecord
280
1
1000
1:1
  0
XRECORD
  5
23D
330
20F
100
AcDbXrecord
280
1
290
1
  0
XRECORD
  5
23E
330
20F
100
AcDbXrecord
280
1
290
0
  0
XRECORD
  5
23F
330
20F
100
AcDbXrecord
280
1
1000
Inside
  0
XRECORD
  5
240
330
20F
100
AcDbXrecord
280
1
1000
Arial,10,-1,5,50,0,0,0,0,0
  0
XRECORD
  5
241
330
20F
100
AcDbXrecord
280
1
1000
TopLeft
  0
XRECORD
  5
242
330
20F
100
AcDbXrecord
280
1
1000
3.27.1
  0
XRECORD
  5
243
330
20F
100
AcDbXrecord
280
1
 90
4
  0
XRECORD
  5
245
330
20F
100
AcDbXrecord
280
1
 40
475.8725797301435136
  0
XRECORD
  5
246
330
20F
100
AcDbXrecord
280
1
 40
1051.3630639519888064
  0
ENDSEC
  0
EOF
