999
dxflib 3.26.4.0
  0
SECTION
  2
HEADER
  9
$ACADVER
  1
AC1015
  9
$HANDSEED
  5
FFFF
  9
$DIMADEC
 70
0
  9
$DIMASZ
 40
0.18
  9
$DIMATFIT
 70
0
  9
$DIMAUNIT
 70
0
  9
$DIMAZIN
 70
0
  9
$DIMBLK
  1
0
  9
$DIMBLK1
  1
0
  9
$DIMBLK2
  1
0
  9
$DIMDEC
 70
4
  9
$DIMDLI
 40
0.36
  9
$DIMDSEP
 70
0
  9
$DIMEXE
 40
0.18
  9
$DIMEXO
 40
0.0625
  9
$DIMGAP
 40
0.09
  9
$DIMLFAC
 40
0.0
  9
$DIMLUNIT
 70
2
  9
$DIMSCALE
 40
0.0
  9
$DIMTAD
 70
0
  9
$DIMTIH
 70
0
  9
$DIMTSZ
 40
0.0
  9
$DIMTXT
 40
0.18
  9
$DIMZIN
 70
0
  9
$DWGCODEPAGE
  3
ANSI_1252
  9
$INSUNITS
 70
0
  9
$LTSCALE
 40
1.0
  9
$MAXACTVP
 70
64
  9
$MEASUREMENT
 70
1
  9
$MIRRTEXT
 70
0
  9
$PDMODE
 70
0
  9
$PDSIZE
 40
0.0
  0
ENDSEC
  0
SECTION
  2
TABLES
  0
TABLE
  2
VPORT
  5
8
100
AcDbSymbolTable
 70
1
  0
VPORT
  5
30
100
AcDbSymbolTableRecord
100
AcDbViewportTableRecord
  2
*Active
 70
0
 10
0.0
 20
0.0
 11
1.0
 21
1.0
 12
286.3055555555554861
 22
148.5
 13
0.0
 23
0.0
 14
10.0
 24
10.0
 15
10.0
 25
10.0
 16
0.0
 26
0.0
 36
1.0
 17
0.0
 27
0.0
 37
0.0
 40
297.0
 41
1.92798353909465
 42
50.0
 43
0.0
 44
0.0
 50
0.0
 51
0.0
 71
0
 72
100
 73
1
 74
3
 75
1
 76
1
 77
0
 78
0
281
0
 65
1
110
0.0
120
0.0
130
0.0
111
1.0
121
0.0
131
0.0
112
0.0
122
1.0
132
0.0
 79
0
146
0.0
  0
ENDTAB
  0
TABLE
  2
LTYPE
  5
5
100
AcDbSymbolTable
 70
42
  0
LTYPE
  5
16
100
AcDbSymbolTableRecord
100
AcDbLinetypeTableRecord
  2
Continuous
 70
0
  3
Solid line
 72
65
 73
0
 40
0.0
  0
LTYPE
  5
31
100
AcDbSymbolTableRecord
100
AcDbLinetypeTableRecord
  2
CENTER
 70
0
  3
Center ____ _ ____ _ ____ _ ____ _ ____ _ ____
 72
65
 73
4
 40
50.8000000000000043
 49
31.75
 74
0
 49
-6.3499999999999996
 74
0
 49
6.3499999999999996
 74
0
 49
-6.3499999999999996
 74
0
  0
LTYPE
  5
32
100
AcDbSymbolTableRecord
100
AcDbLinetypeTableRecord
  2
DASHED2
 70
0
  3
Dashed (.5x) _ _ _ _ _ _ _ _ _ _ _ _ _ _ _ _ _ 
 72
65
 73
2
 40
9.5249999999999986
 49
6.3499999999999996
 74
0
 49
-3.1749999999999998
 74
0
  0
LTYPE
  5
33
100
AcDbSymbolTableRecord
100
AcDbLinetypeTableRecord
  2
DOT
 70
0
  3
Dot . . . . . . . . . . . . . . . . . . . . . . . .
 72
65
 73
2
 40
6.3499999999999996
 49
0.1
 74
0
 49
-6.25
 74
0
  0
LTYPE
  5
34
100
AcDbSymbolTableRecord
100
AcDbLinetypeTableRecord
  2
CENTERX2
 70
0
  3
Center (2x) ________  __  ________  __  _____
 72
65
 73
4
 40
101.6000000000000085
 49
63.5
 74
0
 49
-12.6999999999999993
 74
0
 49
12.6999999999999993
 74
0
 49
-12.6999999999999993
 74
0
  0
LTYPE
  5
35
100
AcDbSymbolTableRecord
100
AcDbLinetypeTableRecord
  2
DASHDOTX2
 70
0
  3
Dash dot (2x) ____  .  ____  .  ____  .  ___
 72
65
 73
4
 40
50.7999999999999972
 49
25.3999999999999986
 74
0
 49
-12.6499999999999986
 74
0
 49
0.1
 74
0
 49
-12.6499999999999986
 74
0
  0
LTYPE
  5
36
100
AcDbSymbolTableRecord
100
AcDbLinetypeTableRecord
  2
DIVIDEX2
 70
0
  3
Divide (2x) ________  .  .  ________  .  .  _
 72
65
 73
6
 40
63.5
 49
25.3999999999999986
 74
0
 49
-12.6499999999999986
 74
0
 49
0.1
 74
0
 49
-12.5999999999999979
 74
0
 49
0.1
 74
0
 49
-12.6499999999999986
 74
0
  0
LTYPE
  5
37
100
AcDbSymbolTableRecord
100
AcDbLinetypeTableRecord
  2
ACAD_ISO09W100
 70
0
  3
ISO long-dash double-short-dash ____ __ __ ____
 72
65
 73
6
 40
45.0
 49
24.0
 74
0
 49
-3.0
 74
0
 49
6.0
 74
0
 49
-3.0
 74
0
 49
6.0
 74
0
 49
-3.0
 74
0
  0
LTYPE
  5
38
100
AcDbSymbolTableRecord
100
AcDbLinetypeTableRecord
  2
ACAD_ISO13W100
 70
0
  3
ISO double-dash double-dot __ __ . . __ __ . . _
 72
65
 73
8
 40
36.0000000000000071
 49
12.0
 74
0
 49
-3.0
 74
0
 49
12.0
 74
0
 49
-2.9500000000000002
 74
0
 49
0.1
 74
0
 49
-2.9000000000000004
 74
0
 49
0.1
 74
0
 49
-2.9500000000000002
 74
0
  0
LTYPE
  5
39
100
AcDbSymbolTableRecord
100
AcDbLinetypeTableRecord
  2
ACAD_ISO03W100
 70
0
  3
ISO dash space __    __    __    __    __    __
 72
65
 73
2
 40
30.0
 49
12.0
 74
0
 49
-18.0
 74
0
  0
LTYPE
  5
14
100
AcDbSymbolTableRecord
100
AcDbLinetypeTableRecord
  2
BYBLOCK
 70
0
  3

 72
65
 73
0
 40
0.0
  0
LTYPE
  5
3A
100
AcDbSymbolTableRecord
100
AcDbLinetypeTableRecord
  2
HIDDEN2
 70
0
  3
Hidden (.5x) _ _ _ _ _ _ _ _ _ _ _ _ _ _ _ _ _ 
 72
65
 73
2
 40
4.7624999999999993
 49
3.1749999999999998
 74
0
 49
-1.5874999999999999
 74
0
  0
LTYPE
  5
3B
100
AcDbSymbolTableRecord
100
AcDbLinetypeTableRecord
  2
DOT2
 70
0
  3
Dot (.5x) ........................................
 72
65
 73
2
 40
3.1749999999999998
 49
0.1
 74
0
 49
-3.0749999999999997
 74
0
  0
LTYPE
  5
3C
100
AcDbSymbolTableRecord
100
AcDbLinetypeTableRecord
  2
CENTER2
 70
0
  3
Center (.5x) ___ _ ___ _ ___ _ ___ _ ___ _ ___
 72
65
 73
4
 40
28.5750000000000028
 49
19.0500000000000007
 74
0
 49
-3.1749999999999998
 74
0
 49
3.1749999999999998
 74
0
 49
-3.1749999999999998
 74
0
  0
LTYPE
  5
3D
100
AcDbSymbolTableRecord
100
AcDbLinetypeTableRecord
  2
ACAD_ISO11W100
 70
0
  3
ISO double-dash dot __ __ . __ __ . __ __ . __ _
 72
65
 73
6
 40
33.0
 49
12.0
 74
0
 49
-3.0
 74
0
 49
12.0
 74
0
 49
-2.9500000000000002
 74
0
 49
0.1
 74
0
 49
-2.9500000000000002
 74
0
  0
LTYPE
  5
3E
100
AcDbSymbolTableRecord
100
AcDbLinetypeTableRecord
  2
ACAD_ISO08W100
 70
0
  3
ISO long-dash short-dash ____ __ ____ __ ____ _
 72
65
 73
4
 40
36.0
 49
24.0
 74
0
 49
-3.0
 74
0
 49
6.0
 74
0
 49
-3.0
 74
0
  0
LTYPE
  5
3F
100
AcDbSymbolTableRecord
100
AcDbLinetypeTableRecord
  2
DASHDOT2
 70
0
  3
Dash dot (.5x) _._._._._._._._._._._._._._._.
 72
65
 73
4
 40
12.6999999999999993
 49
6.3499999999999996
 74
0
 49
-3.125
 74
0
 49
0.1
 74
0
 49
-3.125
 74
0
  0
LTYPE
  5
40
100
AcDbSymbolTableRecord
100
AcDbLinetypeTableRecord
  2
DASHED
 70
0
  3
Dashed __ __ __ __ __ __ __ __ __ __ __ __ __ _
 72
65
 73
2
 40
19.0499999999999972
 49
12.6999999999999993
 74
0
 49
-6.3499999999999996
 74
0
  0
LTYPE
  5
41
100
AcDbSymbolTableRecord
100
AcDbLinetypeTableRecord
  2
HIDDEN
 70
0
  3
Hidden __ __ __ __ __ __ __ __ __ __ __ __ __ __
 72
65
 73
2
 40
9.5249999999999986
 49
6.3499999999999996
 74
0
 49
-3.1749999999999998
 74
0
  0
LTYPE
  5
42
100
AcDbSymbolTableRecord
100
AcDbLinetypeTableRecord
  2
DIVIDE2
 70
0
  3
Divide (.5x) __..__..__..__..__..__..__..__.._
 72
65
 73
6
 40
15.8749999999999982
 49
6.3499999999999996
 74
0
 49
-3.125
 74
0
 49
0.1
 74
0
 49
-3.0750000000000002
 74
0
 49
0.1
 74
0
 49
-3.125
 74
0
  0
LTYPE
  5
43
100
AcDbSymbolTableRecord
100
AcDbLinetypeTableRecord
  2
ACAD_ISO07W100
 70
0
  3
ISO dot . . . . . . . . . . . . . . . . . . . . 
 72
65
 73
2
 40
3.0
 49
0.1
 74
0
 49
-2.8999999999999999
 74
0
  0
LTYPE
  5
44
100
AcDbSymbolTableRecord
100
AcDbLinetypeTableRecord
  2
PHANTOMX2
 70
0
  3
Phantom (2x) ____________    ____    ____   _
 72
65
 73
6
 40
127.0000000000000142
 49
63.5
 74
0
 49
-12.6999999999999993
 74
0
 49
12.6999999999999993
 74
0
 49
-12.6999999999999993
 74
0
 49
12.6999999999999993
 74
0
 49
-12.6999999999999993
 74
0
  0
LTYPE
  5
45
100
AcDbSymbolTableRecord
100
AcDbLinetypeTableRecord
  2
HIDDENX2
 70
0
  3
Hidden (2x) ____ ____ ____ ____ ____ ____ ____ 
 72
65
 73
2
 40
19.0499999999999972
 49
12.6999999999999993
 74
0
 49
-6.3499999999999996
 74
0
  0
LTYPE
  5
46
100
AcDbSymbolTableRecord
100
AcDbLinetypeTableRecord
  2
ACAD_ISO05W100
 70
0
  3
ISO long-dash double-dot ____ .. ____ .. ____ . 
 72
65
 73
6
 40
33.0000000000000071
 49
24.0
 74
0
 49
-2.9500000000000002
 74
0
 49
0.1
 74
0
 49
-2.9000000000000004
 74
0
 49
0.1
 74
0
 49
-2.9500000000000002
 74
0
  0
LTYPE
  5
47
100
AcDbSymbolTableRecord
100
AcDbLinetypeTableRecord
  2
BORDERX2
 70
0
  3
Border (2x) ____  ____  .  ____  ____  .  ___
 72
65
 73
6
 40
88.8999999999999773
 49
25.3999999999999986
 74
0
 49
-12.6999999999999993
 74
0
 49
25.3999999999999986
 74
0
 49
-12.6499999999999986
 74
0
 49
0.1
 74
0
 49
-12.6499999999999986
 74
0
  0
LTYPE
  5
48
100
AcDbSymbolTableRecord
100
AcDbLinetypeTableRecord
  2
DASHDOT
 70
0
  3
Dash dot __ . __ . __ . __ . __ . __ . __ . __
 72
65
 73
4
 40
25.4000000000000021
 49
12.6999999999999993
 74
0
 49
-6.2999999999999998
 74
0
 49
0.1
 74
0
 49
-6.2999999999999998
 74
0
  0
LTYPE
  5
49
100
AcDbSymbolTableRecord
100
AcDbLinetypeTableRecord
  2
BORDER
 70
0
  3
Border __ __ . __ __ . __ __ . __ __ . __ __ .
 72
65
 73
6
 40
44.4499999999999957
 49
12.6999999999999993
 74
0
 49
-6.3499999999999996
 74
0
 49
12.6999999999999993
 74
0
 49
-6.2999999999999998
 74
0
 49
0.1
 74
0
 49
-6.2999999999999998
 74
0
  0
LTYPE
  5
4A
100
AcDbSymbolTableRecord
100
AcDbLinetypeTableRecord
  2
ACAD_ISO12W100
 70
0
  3
ISO dash double-dot __ . . __ . . __ . . __ . . 
 72
65
 73
6
 40
21.0
 49
12.0
 74
0
 49
-2.9500000000000002
 74
0
 49
0.1
 74
0
 49
-2.9000000000000004
 74
0
 49
0.1
 74
0
 49
-2.9500000000000002
 74
0
  0
LTYPE
  5
4B
100
AcDbSymbolTableRecord
100
AcDbLinetypeTableRecord
  2
PHANTOM2
 70
0
  3
Phantom (.5x) ___ _ _ ___ _ _ ___ _ _ ___ _ _
 72
65
 73
6
 40
31.7500000000000036
 49
15.875
 74
0
 49
-3.1749999999999998
 74
0
 49
3.1749999999999998
 74
0
 49
-3.1749999999999998
 74
0
 49
3.1749999999999998
 74
0
 49
-3.1749999999999998
 74
0
  0
LTYPE
  5
4C
100
AcDbSymbolTableRecord
100
AcDbLinetypeTableRecord
  2
BORDER2
 70
0
  3
Border (.5x) __.__.__.__.__.__.__.__.__.__.__.
 72
65
 73
6
 40
22.2250000000000014
 49
6.3499999999999996
 74
0
 49
-3.1749999999999998
 74
0
 49
6.3499999999999996
 74
0
 49
-3.125
 74
0
 49
0.1
 74
0
 49
-3.125
 74
0
  0
LTYPE
  5
4D
100
AcDbSymbolTableRecord
100
AcDbLinetypeTableRecord
  2
ACAD_ISO02W100
 70
0
  3
ISO dash __ __ __ __ __ __ __ __ __ __ __ __ __
 72
65
 73
2
 40
15.0
 49
12.0
 74
0
 49
-3.0
 74
0
  0
LTYPE
  5
4E
100
AcDbSymbolTableRecord
100
AcDbLinetypeTableRecord
  2
ACAD_ISO14W100
 70
0
  3
ISO dash triple-dot __ . . . __ . . . __ . . . _
 72
65
 73
8
 40
24.0000000000000036
 49
12.0
 74
0
 49
-2.9500000000000002
 74
0
 49
0.1
 74
0
 49
-2.9000000000000004
 74
0
 49
0.1
 74
0
 49
-2.9000000000000004
 74
0
 49
0.1
 74
0
 49
-2.9500000000000002
 74
0
  0
LTYPE
  5
4F
100
AcDbSymbolTableRecord
100
AcDbLinetypeTableRecord
  2
DOTX2
 70
0
  3
Dot (2x) .  .  .  .  .  .  .  .  .  .  .  .  .  .
 72
65
 73
2
 40
12.6999999999999993
 49
0.1
 74
0
 49
-12.5999999999999996
 74
0
  0
LTYPE
  5
50
100
AcDbSymbolTableRecord
100
AcDbLinetypeTableRecord
  2
ACAD_ISO10W100
 70
0
  3
ISO dash dot __ . __ . __ . __ . __ . __ . __ . 
 72
65
 73
4
 40
18.0
 49
12.0
 74
0
 49
-2.9500000000000002
 74
0
 49
0.1
 74
0
 49
-2.9500000000000002
 74
0
  0
LTYPE
  5
51
100
AcDbSymbolTableRecord
100
AcDbLinetypeTableRecord
  2
DASHEDX2
 70
0
  3
Dashed (2x) ____  ____  ____  ____  ____  ___
 72
65
 73
2
 40
38.0999999999999943
 49
25.3999999999999986
 74
0
 49
-12.6999999999999993
 74
0
  0
LTYPE
  5
52
100
AcDbSymbolTableRecord
100
AcDbLinetypeTableRecord
  2
K5LT_BASIC
 70
0
  3

 72
65
 73
0
 40
0.0
  0
LTYPE
  5
53
100
AcDbSymbolTableRecord
100
AcDbLinetypeTableRecord
  2
ACAD_ISO06W100
 70
0
  3
ISO long-dash triple-dot ____ ... ____ ... ____
 72
65
 73
8
 40
36.0000000000000071
 49
24.0
 74
0
 49
-2.9500000000000002
 74
0
 49
0.1
 74
0
 49
-2.9000000000000004
 74
0
 49
0.1
 74
0
 49
-2.9000000000000004
 74
0
 49
0.1
 74
0
 49
-2.9500000000000002
 74
0
  0
LTYPE
  5
54
100
AcDbSymbolTableRecord
100
AcDbLinetypeTableRecord
  2
PHANTOM
 70
0
  3
Phantom ______  __  __  ______  __  __  ______ 
 72
65
 73
6
 40
63.5000000000000071
 49
31.75
 74
0
 49
-6.3499999999999996
 74
0
 49
6.3499999999999996
 74
0
 49
-6.3499999999999996
 74
0
 49
6.3499999999999996
 74
0
 49
-6.3499999999999996
 74
0
  0
LTYPE
  5
55
100
AcDbSymbolTableRecord
100
AcDbLinetypeTableRecord
  2
ACAD_ISO15W100
 70
0
  3
ISO double-dash triple-dot __ __ . . . __ __ . .
 72
65
 73
10
 40
39.0000000000000071
 49
12.0
 74
0
 49
-3.0
 74
0
 49
12.0
 74
0
 49
-2.9500000000000002
 74
0
 49
0.1
 74
0
 49
-2.9000000000000004
 74
0
 49
0.1
 74
0
 49
-2.9000000000000004
 74
0
 49
0.1
 74
0
 49
-2.9500000000000002
 74
0
  0
LTYPE
  5
56
100
AcDbSymbolTableRecord
100
AcDbLinetypeTableRecord
  2
DIVIDE
 70
0
  3
Divide ____ . . ____ . . ____ . . ____ . . ____
 72
65
 73
6
 40
31.7500000000000036
 49
12.6999999999999993
 74
0
 49
-6.2999999999999998
 74
0
 49
0.1
 74
0
 49
-6.25
 74
0
 49
0.1
 74
0
 49
-6.2999999999999998
 74
0
  0
LTYPE
  5
57
100
AcDbSymbolTableRecord
100
AcDbLinetypeTableRecord
  2
ACAD_ISO04W100
 70
0
  3
ISO long-dash dot ____ . ____ . ____ . ____ . _
 72
65
 73
4
 40
30.0
 49
24.0
 74
0
 49
-2.9500000000000002
 74
0
 49
0.1
 74
0
 49
-2.9500000000000002
 74
0
  0
LTYPE
  5
15
100
AcDbSymbolTableRecord
100
AcDbLinetypeTableRecord
  2
BYLAYER
 70
0
  3

 72
65
 73
0
 40
0.0
  0
ENDTAB
  0
TABLE
  2
LAYER
  5
2
100
AcDbSymbolTable
 70
2
  0
LAYER
  5
58
100
AcDbSymbolTableRecord
100
AcDbLayerTableRecord
  2
\U+0421\U+0438\U+0441\U+0442\U+0435\U+043c\U+043d\U+044b\U+0439 \U+0441\U+043b\U+043e\U+0439
 70
0
 62
7
420
16777215
  6
Continuous
370
-3
390
F
  0
LAYER
  5
10
100
AcDbSymbolTableRecord
100
AcDbLayerTableRecord
  2
0
 70
0
 62
7
420
16777215
  6
Continuous
370
25
390
F
  0
ENDTAB
  0
TABLE
  2
STYLE
  5
3
100
AcDbSymbolTable
 70
1
  0
STYLE
  5
59
100
AcDbSymbolTableRecord
100
AcDbTextStyleTableRecord
  2
Standard
 70
0
 40
0.0
 41
1.0
 50
0.0
 71
0
 42
2.5
  3

  4

1001
ACAD
1000
txt
1071
0
  0
ENDTAB
  0
TABLE
  2
VIEW
  5
6
100
AcDbSymbolTable
 70
0
  0
ENDTAB
  0
TABLE
  2
UCS
  5
7
100
AcDbSymbolTable
 70
0
  0
ENDTAB
  0
TABLE
  2
APPID
  5
9
100
AcDbSymbolTable
 70
1
  0
APPID
  5
12
100
AcDbSymbolTableRecord
100
AcDbRegAppTableRecord
  2
ACAD
 70
0
  0
APPID
  5
5A
100
AcDbSymbolTableRecord
100
AcDbRegAppTableRecord
  2
QCAD
 70
0
  0
ENDTAB
  0
TABLE
  2
DIMSTYLE
  5
A
100
AcDbSymbolTable
 70
1
100
AcDbDimStyleTable
 71
0
  0
DIMSTYLE
105
27
100
AcDbSymbolTableRecord
100
AcDbDimStyleTableRecord
  2
Standard
 41
0.18
 42
0.0625
 43
3.75
 44
0.18
 70
0
 73
0
 74
0
 77
0
 78
8
140
0.18
141
2.5
143
0.03937007874016
147
0.09
171
3
172
1
271
2
272
2
274
3
278
44
283
0
284
8
340
59
  0
ENDTAB
  0
TABLE
  2
BLOCK_RECORD
  5
1
100
AcDbSymbolTable
 70
1
  0
BLOCK_RECORD
  5
1F
100
AcDbSymbolTableRecord
100
AcDbBlockTableRecord
  2
*Model_Space
340
22
  0
BLOCK_RECORD
  5
1B
100
AcDbSymbolTableRecord
100
AcDbBlockTableRecord
  2
*Paper_Space
340
1E
  0
BLOCK_RECORD
  5
23
100
AcDbSymbolTableRecord
100
AcDbBlockTableRecord
  2
*Paper_Space0
340
26
  0
ENDTAB
  0
ENDSEC
  0
SECTION
  2
BLOCKS
  0
BLOCK
  5
20
100
AcDbEntity
  8
0
100
AcDbBlockBegin
  2
*Model_Space
 70
0
 10
0.0
 20
0.0
 30
0.0
  3
*Model_Space
  1

  0
ENDBLK
  5
21
100
AcDbEntity
  8
0
100
AcDbBlockEnd
  0
BLOCK
  5
1C
100
AcDbEntity
 67
1
  8
0
100
AcDbBlockBegin
  2
*Paper_Space
 70
0
 10
0.0
 20
0.0
 30
0.0
  3
*Paper_Space
  1

  0
ENDBLK
  5
1D
100
AcDbEntity
 67
1
  8
0
100
AcDbBlockEnd
  0
BLOCK
  5
24
100
AcDbEntity
  8
0
100
AcDbBlockBegin
  2
*Paper_Space0
 70
0
 10
0.0
 20
0.0
 30
0.0
  3
*Paper_Space0
  1

  0
ENDBLK
  5
25
100
AcDbEntity
  8
0
100
AcDbBlockEnd
  0
ENDSEC
  0
SECTION
  2
ENTITIES
  0
ARC
  5
5B
100
AcDbEntity
  8
0
 62
256
370
-1
 48
1.0
  6
BYLAYER
100
AcDbCircle
 10
-724.2499827257323659
 20
-122.5613052872964204
 30
0.0
 40
108.5
100
AcDbArc
 50
180.0
 51
241.2374808956890604
  0
LINE
  5
5C
100
AcDbEntity
  8
0
 62
256
370
-1
 48
1.0
  6
BYLAYER
100
AcDbLine
 10
-822.2499827257323659
 20
-122.561302657296423
 30
0.0
 11
-822.2499827257323659
 21
-122.561302657296423
 31
0.0
  0
LINE
  5
5D
100
AcDbEntity
  8
0
 62
256
370
-1
 48
1.0
  6
BYLAYER
100
AcDbLine
 10
-822.2499827257323659
 20
-122.561302657296423
 30
0.0
 11
-822.6948552657323717
 21
-123.5660788472964242
 31
0.0
  0
LINE
  5
5E
100
AcDbEntity
  8
0
 62
256
370
-1
 48
1.0
  6
BYLAYER
100
AcDbLine
 10
-822.6948552657323717
 20
-123.5660788472964242
 30
0.0
 11
-823.1430864857323968
 21
-123.729221647296427
 31
0.0
  0
LINE
  5
5F
100
AcDbEntity
  8
0
 62
256
370
-1
 48
1.0
  6
BYLAYER
100
AcDbLine
 10
-823.1430864857323968
 20
-123.729221647296427
 30
0.0
 11
-823.5910669957323762
 21
-123.8922732072964266
 31
0.0
  0
LINE
  5
60
100
AcDbEntity
  8
0
 62
256
370
-1
 48
1.0
  6
BYLAYER
100
AcDbLine
 10
-823.5910669957323762
 20
-123.8922732072964266
 30
0.0
 11
-824.038777095732371
 21
-124.0568048572964273
 31
0.0
  0
LINE
  5
61
100
AcDbEntity
  8
0
 62
256
370
-1
 48
1.0
  6
BYLAYER
100
AcDbLine
 10
-824.038777095732371
 20
-124.0568048572964273
 30
0.0
 11
-824.4861266757324074
 21
-124.2280223572964246
 31
0.0
  0
LINE
  5
62
100
AcDbEntity
  8
0
 62
256
370
-1
 48
1.0
  6
BYLAYER
100
AcDbLine
 10
-824.4861266757324074
 20
-124.2280223572964246
 30
0.0
 11
-824.9330819457323969
 21
-124.4061717872964152
 31
0.0
  0
LINE
  5
63
100
AcDbEntity
  8
0
 62
256
370
-1
 48
1.0
  6
BYLAYER
100
AcDbLine
 10
-824.9330819457323969
 20
-124.4061717872964152
 30
0.0
 11
-825.3796148357323545
 21
-124.5910860872964179
 31
0.0
  0
LINE
  5
64
100
AcDbEntity
  8
0
 62
256
370
-1
 48
1.0
  6
BYLAYER
100
AcDbLine
 10
-825.3796148357323545
 20
-124.5910860872964179
 30
0.0
 11
-825.8256972757324093
 21
-124.7826140672964215
 31
0.0
  0
LINE
  5
65
100
AcDbEntity
  8
0
 62
256
370
-1
 48
1.0
  6
BYLAYER
100
AcDbLine
 10
-825.8256972757324093
 20
-124.7826140672964215
 30
0.0
 11
-826.271301115732399
 21
-124.9806219472964131
 31
0.0
  0
LINE
  5
66
100
AcDbEntity
  8
0
 62
256
370
-1
 48
1.0
  6
BYLAYER
100
AcDbLine
 10
-826.271301115732399
 20
-124.9806219472964131
 30
0.0
 11
-826.7163981857323733
 21
-125.1849862772964173
 31
0.0
  0
LINE
  5
67
100
AcDbEntity
  8
0
 62
256
370
-1
 48
1.0
  6
BYLAYER
100
AcDbLine
 10
-826.7163981857323733
 20
-125.1849862772964173
 30
0.0
 11
-826.6789466257323511
 21
-126.3767153972964223
 31
0.0
  0
LINE
  5
68
100
AcDbEntity
  8
0
 62
256
370
-1
 48
1.0
  6
BYLAYER
100
AcDbLine
 10
-826.6789466257323511
 20
-126.3767153972964223
 30
0.0
 11
-826.2218957257323382
 21
-126.5527286072964159
 31
0.0
  0
LINE
  5
69
100
AcDbEntity
  8
0
 62
256
370
-1
 48
1.0
  6
BYLAYER
100
AcDbLine
 10
-826.2218957257323382
 20
-126.5527286072964159
 30
0.0
 11
-825.7647381657324104
 21
-126.7223660872964217
 31
0.0
  0
LINE
  5
6A
100
AcDbEntity
  8
0
 62
256
370
-1
 48
1.0
  6
BYLAYER
100
AcDbLine
 10
-825.7647381657324104
 20
-126.7223660872964217
 30
0.0
 11
-825.3075098357323895
 21
-126.8855064072964183
 31
0.0
  0
LINE
  5
6B
100
AcDbEntity
  8
0
 62
256
370
-1
 48
1.0
  6
BYLAYER
100
AcDbLine
 10
-825.3075098357323895
 20
-126.8855064072964183
 30
0.0
 11
-824.8502472157323382
 21
-127.0420178172964256
 31
0.0
  0
LINE
  5
6C
100
AcDbEntity
  8
0
 62
256
370
-1
 48
1.0
  6
BYLAYER
100
AcDbLine
 10
-824.8502472157323382
 20
-127.0420178172964256
 30
0.0
 11
-824.392987825732348
 21
-127.1917511772964247
 31
0.0
  0
LINE
  5
6D
100
AcDbEntity
  8
0
 62
256
370
-1
 48
1.0
  6
BYLAYER
100
AcDbLine
 10
-824.392987825732348
 20
-127.1917511772964247
 30
0.0
 11
-823.9357701557323708
 21
-127.3345415372964169
 31
0.0
  0
LINE
  5
6E
100
AcDbEntity
  8
0
 62
256
370
-1
 48
1.0
  6
BYLAYER
100
AcDbLine
 10
-823.9357701557323708
 20
-127.3345415372964169
 30
0.0
 11
-823.4786124957323636
 21
-127.4706365972964193
 31
0.0
  0
LINE
  5
6F
100
AcDbEntity
  8
0
 62
256
370
-1
 48
1.0
  6
BYLAYER
100
AcDbLine
 10
-823.4786124957323636
 20
-127.4706365972964193
 30
0.0
 11
-823.0212778857323883
 21
-127.6052375072964225
 31
0.0
  0
LINE
  5
70
100
AcDbEntity
  8
0
 62
256
370
-1
 48
1.0
  6
BYLAYER
100
AcDbLine
 10
-823.0212778857323883
 20
-127.6052375072964225
 30
0.0
 11
-822.5636873357323111
 21
-127.7399137372964191
 31
0.0
  0
LINE
  5
71
100
AcDbEntity
  8
0
 62
256
370
-1
 48
1.0
  6
BYLAYER
100
AcDbLine
 10
-822.5636873357323111
 20
-127.7399137372964191
 30
0.0
 11
-822.0566022857324242
 21
-128.7147734772964327
 31
0.0
  0
LINE
  5
72
100
AcDbEntity
  8
0
 62
256
370
-1
 48
1.0
  6
BYLAYER
100
AcDbLine
 10
-822.0566022857324242
 20
-128.7147734772964327
 30
0.0
 11
-822.0566022857324242
 21
-128.7147734772964327
 31
0.0
  0
LINE
  5
73
100
AcDbEntity
  8
0
 62
256
370
-1
 48
1.0
  6
BYLAYER
100
AcDbLine
 10
-822.0566022857324242
 20
-128.7147734772964327
 30
0.0
 11
-822.4375065557323978
 21
-129.7455007372964246
 31
0.0
  0
LINE
  5
74
100
AcDbEntity
  8
0
 62
256
370
-1
 48
1.0
  6
BYLAYER
100
AcDbLine
 10
-822.4375065557323978
 20
-129.7455007372964246
 30
0.0
 11
-822.8746094657324193
 21
-129.9364662872964118
 31
0.0
  0
LINE
  5
75
100
AcDbEntity
  8
0
 62
256
370
-1
 48
1.0
  6
BYLAYER
100
AcDbLine
 10
-822.8746094657324193
 20
-129.9364662872964118
 30
0.0
 11
-823.3114679057323428
 21
-130.1273250272964219
 31
0.0
  0
LINE
  5
76
100
AcDbEntity
  8
0
 62
256
370
-1
 48
1.0
  6
BYLAYER
100
AcDbLine
 10
-823.3114679057323428
 20
-130.1273250272964219
 30
0.0
 11
-823.7479635157324083
 21
-130.3196439672964289
 31
0.0
  0
LINE
  5
77
100
AcDbEntity
  8
0
 62
256
370
-1
 48
1.0
  6
BYLAYER
100
AcDbLine
 10
-823.7479635157324083
 20
-130.3196439672964289
 30
0.0
 11
-824.1836795257323729
 21
-130.5186129172964229
 31
0.0
  0
LINE
  5
78
100
AcDbEntity
  8
0
 62
256
370
-1
 48
1.0
  6
BYLAYER
100
AcDbLine
 10
-824.1836795257323729
 20
-130.5186129172964229
 30
0.0
 11
-824.6185667257323075
 21
-130.7244753672964066
 31
0.0
  0
LINE
  5
79
100
AcDbEntity
  8
0
 62
256
370
-1
 48
1.0
  6
BYLAYER
100
AcDbLine
 10
-824.6185667257323075
 20
-130.7244753672964066
 30
0.0
 11
-825.0526076257323211
 21
-130.937062807296428
 31
0.0
  0
LINE
  5
7A
100
AcDbEntity
  8
0
 62
256
370
-1
 48
1.0
  6
BYLAYER
100
AcDbLine
 10
-825.0526076257323211
 20
-130.937062807296428
 30
0.0
 11
-825.4857836857323719
 21
-131.1562226072964279
 31
0.0
  0
LINE
  5
7B
100
AcDbEntity
  8
0
 62
256
370
-1
 48
1.0
  6
BYLAYER
100
AcDbLine
 10
-825.4857836857323719
 20
-131.1562226072964279
 30
0.0
 11
-825.918075215732415
 21
-131.381819457296416
 31
0.0
  0
LINE
  5
7C
100
AcDbEntity
  8
0
 62
256
370
-1
 48
1.0
  6
BYLAYER
100
AcDbLine
 10
-825.918075215732415
 20
-131.381819457296416
 30
0.0
 11
-826.3494618457323213
 21
-131.6137283972964269
 31
0.0
  0
LINE
  5
7D
100
AcDbEntity
  8
0
 62
256
370
-1
 48
1.0
  6
BYLAYER
100
AcDbLine
 10
-826.3494618457323213
 20
-131.6137283972964269
 30
0.0
 11
-826.2372548957323488
 21
-132.8007543072964154
 31
0.0
  0
LINE
  5
7E
100
AcDbEntity
  8
0
 62
256
370
-1
 48
1.0
  6
BYLAYER
100
AcDbLine
 10
-826.2372548957323488
 20
-132.8007543072964154
 30
0.0
 11
-825.7700539157323192
 21
-132.9477217272964253
 31
0.0
  0
LINE
  5
7F
100
AcDbEntity
  8
0
 62
256
370
-1
 48
1.0
  6
BYLAYER
100
AcDbLine
 10
-825.7700539157323192
 20
-132.9477217272964253
 30
0.0
 11
-825.3031468357323774
 21
-133.0883193172964241
 31
0.0
  0
LINE
  5
80
100
AcDbEntity
  8
0
 62
256
370
-1
 48
1.0
  6
BYLAYER
100
AcDbLine
 10
-825.3031468357323774
 20
-133.0883193172964241
 30
0.0
 11
-824.8365770657323992
 21
-133.2224281072964231
 31
0.0
  0
LINE
  5
81
100
AcDbEntity
  8
0
 62
256
370
-1
 48
1.0
  6
BYLAYER
100
AcDbLine
 10
-824.8365770657323992
 20
-133.2224281072964231
 30
0.0
 11
-824.3703893157323819
 21
-133.3499189172964066
 31
0.0
  0
LINE
  5
82
100
AcDbEntity
  8
0
 62
256
370
-1
 48
1.0
  6
BYLAYER
100
AcDbLine
 10
-824.3703893157323819
 20
-133.3499189172964066
 30
0.0
 11
-823.9046303957323971
 21
-133.470645267296419
 31
0.0
  0
LINE
  5
83
100
AcDbEntity
  8
0
 62
256
370
-1
 48
1.0
  6
BYLAYER
100
AcDbLine
 10
-823.9046303957323971
 20
-133.470645267296419
 30
0.0
 11
-823.4393490557323503
 21
-133.5844449172964232
 31
0.0
  0
LINE
  5
84
100
AcDbEntity
  8
0
 62
256
370
-1
 48
1.0
  6
BYLAYER
100
AcDbLine
 10
-823.4393490557323503
 20
-133.5844449172964232
 30
0.0
 11
-822.9745480057323448
 21
-133.6915662672964231
 31
0.0
  0
LINE
  5
85
100
AcDbEntity
  8
0
 62
256
370
-1
 48
1.0
  6
BYLAYER
100
AcDbLine
 10
-822.9745480057323448
 20
-133.6915662672964231
 30
0.0
 11
-822.5096641857323903
 21
-133.7971852872964291
 31
0.0
  0
LINE
  5
86
100
AcDbEntity
  8
0
 62
256
370
-1
 48
1.0
  6
BYLAYER
100
AcDbLine
 10
-822.5096641857323903
 20
-133.7971852872964291
 30
0.0
 11
-822.0445201957323889
 21
-133.9028634172964303
 31
0.0
  0
LINE
  5
87
100
AcDbEntity
  8
0
 62
256
370
-1
 48
1.0
  6
BYLAYER
100
AcDbLine
 10
-822.0445201957323889
 20
-133.9028634172964303
 30
0.0
 11
-821.4772238057323648
 21
-134.8439593672964065
 31
0.0
  0
LINE
  5
88
100
AcDbEntity
  8
0
 62
256
370
-1
 48
1.0
  6
BYLAYER
100
AcDbLine
 10
-821.4772238057323648
 20
-134.8439593672964065
 30
0.0
 11
-821.4772238057323648
 21
-134.8439593672964065
 31
0.0
  0
LINE
  5
89
100
AcDbEntity
  8
0
 62
256
370
-1
 48
1.0
  6
BYLAYER
100
AcDbLine
 10
-821.4772238057323648
 20
-134.8439593672964065
 30
0.0
 11
-821.7926565557323784
 21
-135.8965698972964162
 31
0.0
  0
LINE
  5
8A
100
AcDbEntity
  8
0
 62
256
370
-1
 48
1.0
  6
BYLAYER
100
AcDbLine
 10
-821.7926565557323784
 20
-135.8965698972964162
 30
0.0
 11
-822.2169061157323995
 21
-136.1146045372964295
 31
0.0
  0
LINE
  5
8B
100
AcDbEntity
  8
0
 62
256
370
-1
 48
1.0
  6
BYLAYER
100
AcDbLine
 10
-822.2169061157323995
 20
-136.1146045372964295
 30
0.0
 11
-822.6409183957323421
 21
-136.3325172372964289
 31
0.0
  0
LINE
  5
8C
100
AcDbEntity
  8
0
 62
256
370
-1
 48
1.0
  6
BYLAYER
100
AcDbLine
 10
-822.6409183957323421
 20
-136.3325172372964289
 30
0.0
 11
-823.0644768757323391
 21
-136.551864457296432
 31
0.0
  0
LINE
  5
8D
100
AcDbEntity
  8
0
 62
256
370
-1
 48
1.0
  6
BYLAYER
100
AcDbLine
 10
-823.0644768757323391
 20
-136.551864457296432
 30
0.0
 11
-823.4868397357323602
 21
-136.7777996272964174
 31
0.0
  0
LINE
  5
8E
100
AcDbEntity
  8
0
 62
256
370
-1
 48
1.0
  6
BYLAYER
100
AcDbLine
 10
-823.4868397357323602
 20
-136.7777996272964174
 30
0.0
 11
-823.9079425757323634
 21
-137.0105626472964104
 31
0.0
  0
LINE
  5
8F
100
AcDbEntity
  8
0
 62
256
370
-1
 48
1.0
  6
BYLAYER
100
AcDbLine
 10
-823.9079425757323634
 20
-137.0105626472964104
 30
0.0
 11
-824.3277785157323478
 21
-137.2499842472964247
 31
0.0
  0
LINE
  5
90
100
AcDbEntity
  8
0
 62
256
370
-1
 48
1.0
  6
BYLAYER
100
AcDbLine
 10
-824.3277785157323478
 20
-137.2499842472964247
 30
0.0
 11
-824.7463386557324156
 21
-137.4959109272964213
 31
0.0
  0
LINE
  5
91
100
AcDbEntity
  8
0
 62
256
370
-1
 48
1.0
  6
BYLAYER
100
AcDbLine
 10
-824.7463386557324156
 20
-137.4959109272964213
 30
0.0
 11
-825.1636118057323301
 21
-137.7482064172964158
 31
0.0
  0
LINE
  5
92
100
AcDbEntity
  8
0
 62
256
370
-1
 48
1.0
  6
BYLAYER
100
AcDbLine
 10
-825.1636118057323301
 20
-137.7482064172964158
 30
0.0
 11
-825.5795855057323251
 21
-138.0067447272964216
 31
0.0
  0
LINE
  5
93
100
AcDbEntity
  8
0
 62
256
370
-1
 48
1.0
  6
BYLAYER
100
AcDbLine
 10
-825.5795855057323251
 20
-138.0067447272964216
 30
0.0
 11
-825.3930660057324076
 21
-139.1843827872964141
 31
0.0
  0
LINE
  5
94
100
AcDbEntity
  8
0
 62
256
370
-1
 48
1.0
  6
BYLAYER
100
AcDbLine
 10
-825.3930660057324076
 20
-139.1843827872964141
 30
0.0
 11
-824.9175587757323456
 21
-139.3017244172964126
 31
0.0
  0
LINE
  5
95
100
AcDbEntity
  8
0
 62
256
370
-1
 48
1.0
  6
BYLAYER
100
AcDbLine
 10
-824.9175587757323456
 20
-139.3017244172964126
 30
0.0
 11
-824.4427448357323556
 21
-139.4127272272964149
 31
0.0
  0
LINE
  5
96
100
AcDbEntity
  8
0
 62
256
370
-1
 48
1.0
  6
BYLAYER
100
AcDbLine
 10
-824.4427448357323556
 20
-139.4127272272964149
 30
0.0
 11
-823.9686749757323696
 21
-139.517275227296409
 31
0.0
  0
LINE
  5
97
100
AcDbEntity
  8
0
 62
256
370
-1
 48
1.0
  6
BYLAYER
100
AcDbLine
 10
-823.9686749757323696
 20
-139.517275227296409
 30
0.0
 11
-823.4954019257323807
 21
-139.615242287296411
 31
0.0
  0
LINE
  5
98
100
AcDbEntity
  8
0
 62
256
370
-1
 48
1.0
  6
BYLAYER
100
AcDbLine
 10
-823.4954019257323807
 20
-139.615242287296411
 30
0.0
 11
-823.0229816057324115
 21
-139.706485167296421
 31
0.0
  0
LINE
  5
99
100
AcDbEntity
  8
0
 62
256
370
-1
 48
1.0
  6
BYLAYER
100
AcDbLine
 10
-823.0229816057324115
 20
-139.706485167296421
 30
0.0
 11
-822.5514728557324133
 21
-139.7908450072964115
 31
0.0
  0
LINE
  5
9A
100
AcDbEntity
  8
0
 62
256
370
-1
 48
1.0
  6
BYLAYER
100
AcDbLine
 10
-822.5514728557324133
 20
-139.7908450072964115
 30
0.0
 11
-822.0808627857323927
 21
-139.8685698772964088
 31
0.0
  0
LINE
  5
9B
100
AcDbEntity
  8
0
 62
256
370
-1
 48
1.0
  6
BYLAYER
100
AcDbLine
 10
-822.0808627857323927
 20
-139.8685698772964088
 30
0.0
 11
-821.6102644257323391
 21
-139.9447901872964053
 31
0.0
  0
LINE
  5
9C
100
AcDbEntity
  8
0
 62
256
370
-1
 48
1.0
  6
BYLAYER
100
AcDbLine
 10
-821.6102644257323391
 20
-139.9447901872964053
 30
0.0
 11
-821.1394027057323228
 21
-140.0210531572964214
 31
0.0
  0
LINE
  5
9D
100
AcDbEntity
  8
0
 62
256
370
-1
 48
1.0
  6
BYLAYER
100
AcDbLine
 10
-821.1394027057323228
 20
-140.0210531572964214
 30
0.0
 11
-820.5141338457323172
 21
-140.9246712272964146
 31
0.0
  0
LINE
  5
9E
100
AcDbEntity
  8
0
 62
256
370
-1
 48
1.0
  6
BYLAYER
100
AcDbLine
 10
-820.5141338457323172
 20
-140.9246712272964146
 30
0.0
 11
-820.5141338457323172
 21
-140.9246712272964146
 31
0.0
  0
LINE
  5
9F
100
AcDbEntity
  8
0
 62
256
370
-1
 48
1.0
  6
BYLAYER
100
AcDbLine
 10
-820.5141338457323172
 20
-140.9246712272964146
 30
0.0
 11
-820.7628501957324261
 21
-141.9950108672964291
 31
0.0
  0
LINE
  5
A0
100
AcDbEntity
  8
0
 62
256
370
-1
 48
1.0
  6
BYLAYER
100
AcDbLine
 10
-820.7628501957324261
 20
-141.9950108672964291
 30
0.0
 11
-821.1725720957323347
 21
-142.2392541172964116
 31
0.0
  0
LINE
  5
A1
100
AcDbEntity
  8
0
 62
256
370
-1
 48
1.0
  6
BYLAYER
100
AcDbLine
 10
-821.1725720957323347
 20
-142.2392541172964116
 30
0.0
 11
-821.5820648257323455
 21
-142.483360757296424
 31
0.0
  0
LINE
  5
A2
100
AcDbEntity
  8
0
 62
256
370
-1
 48
1.0
  6
BYLAYER
100
AcDbLine
 10
-821.5820648257323455
 20
-142.483360757296424
 30
0.0
 11
-821.9910145857323869
 21
-142.7288706072964146
 31
0.0
  0
LINE
  5
A3
100
AcDbEntity
  8
0
 62
256
370
-1
 48
1.0
  6
BYLAYER
100
AcDbLine
 10
-821.9910145857323869
 20
-142.7288706072964146
 30
0.0
 11
-822.3983574257323426
 21
-142.9808803272964326
 31
0.0
  0
LINE
  5
A4
100
AcDbEntity
  8
0
 62
256
370
-1
 48
1.0
  6
BYLAYER
100
AcDbLine
 10
-822.3983574257323426
 20
-142.9808803272964326
 30
0.0
 11
-822.8040140057323697
 21
-143.2396253072964214
 31
0.0
  0
LINE
  5
A5
100
AcDbEntity
  8
0
 62
256
370
-1
 48
1.0
  6
BYLAYER
100
AcDbLine
 10
-822.8040140057323697
 20
-143.2396253072964214
 30
0.0
 11
-823.2079880857323815
 21
-143.5049361772964289
 31
0.0
  0
LINE
  5
A6
100
AcDbEntity
  8
0
 62
256
370
-1
 48
1.0
  6
BYLAYER
100
AcDbLine
 10
-823.2079880857323815
 20
-143.5049361772964289
 30
0.0
 11
-823.6102804257324124
 21
-143.776659187296417
 31
0.0
  0
LINE
  5
A7
100
AcDbEntity
  8
0
 62
256
370
-1
 48
1.0
  6
BYLAYER
100
AcDbLine
 10
-823.6102804257324124
 20
-143.776659187296417
 30
0.0
 11
-824.0108884157323246
 21
-144.0546576272964217
 31
0.0
  0
LINE
  5
A8
100
AcDbEntity
  8
0
 62
256
370
-1
 48
1.0
  6
BYLAYER
100
AcDbLine
 10
-824.0108884157323246
 20
-144.0546576272964217
 30
0.0
 11
-824.4098075457324057
 21
-144.3388049772964337
 31
0.0
  0
LINE
  5
A9
100
AcDbEntity
  8
0
 62
256
370
-1
 48
1.0
  6
BYLAYER
100
AcDbLine
 10
-824.4098075457324057
 20
-144.3388049772964337
 30
0.0
 11
-824.1497115857323479
 21
-145.5024075772964238
 31
0.0
  0
LINE
  5
AA
100
AcDbEntity
  8
0
 62
256
370
-1
 48
1.0
  6
BYLAYER
100
AcDbLine
 10
-824.1497115857323479
 20
-145.5024075772964238
 30
0.0
 11
-823.6677747157323211
 21
-145.5896603172964205
 31
0.0
  0
LINE
  5
AB
100
AcDbEntity
  8
0
 62
256
370
-1
 48
1.0
  6
BYLAYER
100
AcDbLine
 10
-823.6677747157323211
 20
-145.5896603172964205
 30
0.0
 11
-823.1869277857323368
 21
-145.6706302672964171
 31
0.0
  0
LINE
  5
AC
100
AcDbEntity
  8
0
 62
256
370
-1
 48
1.0
  6
BYLAYER
100
AcDbLine
 10
-823.1869277857323368
 20
-145.6706302672964171
 30
0.0
 11
-822.7072287757323465
 21
-145.7452048772964304
 31
0.0
  0
LINE
  5
AD
100
AcDbEntity
  8
0
 62
256
370
-1
 48
1.0
  6
BYLAYER
100
AcDbLine
 10
-822.7072287757323465
 20
-145.7452048772964304
 30
0.0
 11
-822.2287382257323998
 21
-145.8132615672964221
 31
0.0
  0
LINE
  5
AE
100
AcDbEntity
  8
0
 62
256
370
-1
 48
1.0
  6
BYLAYER
100
AcDbLine
 10
-822.2287382257323998
 20
-145.8132615672964221
 30
0.0
 11
-821.7515209257323932
 21
-145.8746608872964146
 31
0.0
  0
LINE
  5
AF
100
AcDbEntity
  8
0
 62
256
370
-1
 48
1.0
  6
BYLAYER
100
AcDbLine
 10
-821.7515209257323932
 20
-145.8746608872964146
 30
0.0
 11
-821.2756455857323772
 21
-145.9292479772964271
 31
0.0
  0
LINE
  5
B0
100
AcDbEntity
  8
0
 62
256
370
-1
 48
1.0
  6
BYLAYER
100
AcDbLine
 10
-821.2756455857323772
 20
-145.9292479772964271
 30
0.0
 11
-820.8010837757324225
 21
-145.9772696272964083
 31
0.0
  0
LINE
  5
B1
100
AcDbEntity
  8
0
 62
256
370
-1
 48
1.0
  6
BYLAYER
100
AcDbLine
 10
-820.8010837757324225
 20
-145.9772696272964083
 30
0.0
 11
-820.3266281257323271
 21
-146.0237904172964249
 31
0.0
  0
LINE
  5
B2
100
AcDbEntity
  8
0
 62
256
370
-1
 48
1.0
  6
BYLAYER
100
AcDbLine
 10
-820.3266281257323271
 20
-146.0237904172964249
 30
0.0
 11
-819.8519069557323746
 21
-146.0703372472964361
 31
0.0
  0
LINE
  5
B3
100
AcDbEntity
  8
0
 62
256
370
-1
 48
1.0
  6
BYLAYER
100
AcDbLine
 10
-819.8519069557323746
 20
-146.0703372472964361
 30
0.0
 11
-819.1711332757323589
 21
-146.9329112772964265
 31
0.0
  0
LINE
  5
B4
100
AcDbEntity
  8
0
 62
256
370
-1
 48
1.0
  6
BYLAYER
100
AcDbLine
 10
-819.1711332757323589
 20
-146.9329112772964265
 30
0.0
 11
-819.1711332757323589
 21
-146.9329112772964265
 31
0.0
  0
LINE
  5
B5
100
AcDbEntity
  8
0
 62
256
370
-1
 48
1.0
  6
BYLAYER
100
AcDbLine
 10
-819.1711332757323589
 20
-146.9329112772964265
 30
0.0
 11
-819.3521516557323139
 21
-148.0167558772964185
 31
0.0
  0
LINE
  5
B6
100
AcDbEntity
  8
0
 62
256
370
-1
 48
1.0
  6
BYLAYER
100
AcDbLine
 10
-819.3521516557323139
 20
-148.0167558772964185
 30
0.0
 11
-819.7457289057323351
 21
-148.2862438172964232
 31
0.0
  0
LINE
  5
B7
100
AcDbEntity
  8
0
 62
256
370
-1
 48
1.0
  6
BYLAYER
100
AcDbLine
 10
-819.7457289057323351
 20
-148.2862438172964232
 30
0.0
 11
-820.139086005732338
 21
-148.5555810272964266
 31
0.0
  0
LINE
  5
B8
100
AcDbEntity
  8
0
 62
256
370
-1
 48
1.0
  6
BYLAYER
100
AcDbLine
 10
-820.139086005732338
 20
-148.5555810272964266
 30
0.0
 11
-820.5318131057323399
 21
-148.8262845872964135
 31
0.0
  0
LINE
  5
B9
100
AcDbEntity
  8
0
 62
256
370
-1
 48
1.0
  6
BYLAYER
100
AcDbLine
 10
-820.5318131057323399
 20
-148.8262845872964135
 30
0.0
 11
-820.9225283257324008
 21
-149.1033742972964262
 31
0.0
  0
LINE
  5
BA
100
AcDbEntity
  8
0
 62
256
370
-1
 48
1.0
  6
BYLAYER
100
AcDbLine
 10
-820.9225283257324008
 20
-149.1033742972964262
 30
0.0
 11
-821.3111377057323352
 21
-149.3870800872964253
 31
0.0
  0
LINE
  5
BB
100
AcDbEntity
  8
0
 62
256
370
-1
 48
1.0
  6
BYLAYER
100
AcDbLine
 10
-821.3111377057323352
 20
-149.3870800872964253
 30
0.0
 11
-821.6976556357324171
 21
-149.6772331672964356
 31
0.0
  0
LINE
  5
BC
100
AcDbEntity
  8
0
 62
256
370
-1
 48
1.0
  6
BYLAYER
100
AcDbLine
 10
-821.6976556357324171
 20
-149.6772331672964356
 30
0.0
 11
-822.082092505732362
 21
-149.9736801372964123
 31
0.0
  0
LINE
  5
BD
100
AcDbEntity
  8
0
 62
256
370
-1
 48
1.0
  6
BYLAYER
100
AcDbLine
 10
-822.082092505732362
 20
-149.9736801372964123
 30
0.0
 11
-822.4644543257323903
 21
-150.2762844072964299
 31
0.0
  0
LINE
  5
BE
100
AcDbEntity
  8
0
 62
256
370
-1
 48
1.0
  6
BYLAYER
100
AcDbLine
 10
-822.4644543257323903
 20
-150.2762844072964299
 30
0.0
 11
-822.8447445157323727
 21
-150.5849193872964236
 31
0.0
  0
LINE
  5
BF
100
AcDbEntity
  8
0
 62
256
370
-1
 48
1.0
  6
BYLAYER
100
AcDbLine
 10
-822.8447445157323727
 20
-150.5849193872964236
 30
0.0
 11
-822.5120985857323603
 21
-151.7298943272964209
 31
0.0
  0
LINE
  5
C0
100
AcDbEntity
  8
0
 62
256
370
-1
 48
1.0
  6
BYLAYER
100
AcDbLine
 10
-822.5120985857323603
 20
-151.7298943272964209
 30
0.0
 11
-822.0256340657323335
 21
-151.7867138272964098
 31
0.0
  0
LINE
  5
C1
100
AcDbEntity
  8
0
 62
256
370
-1
 48
1.0
  6
BYLAYER
100
AcDbLine
 10
-822.0256340657323335
 20
-151.7867138272964098
 30
0.0
 11
-821.5406518357323193
 21
-151.8373313772964082
 31
0.0
  0
LINE
  5
C2
100
AcDbEntity
  8
0
 62
256
370
-1
 48
1.0
  6
BYLAYER
100
AcDbLine
 10
-821.5406518357323193
 20
-151.8373313772964082
 30
0.0
 11
-821.0572168257323256
 21
-151.8816382772964175
 31
0.0
  0
LINE
  5
C3
100
AcDbEntity
  8
0
 62
256
370
-1
 48
1.0
  6
BYLAYER
100
AcDbLine
 10
-821.0572168257323256
 20
-151.8816382772964175
 30
0.0
 11
-820.5753971457323814
 21
-151.9195160072964086
 31
0.0
  0
LINE
  5
C4
100
AcDbEntity
  8
0
 62
256
370
-1
 48
1.0
  6
BYLAYER
100
AcDbLine
 10
-820.5753971457323814
 20
-151.9195160072964086
 30
0.0
 11
-820.0952662357324243
 21
-151.9508294372964201
 31
0.0
  0
LINE
  5
C5
100
AcDbEntity
  8
0
 62
256
370
-1
 48
1.0
  6
BYLAYER
100
AcDbLine
 10
-820.0952662357324243
 20
-151.9508294372964201
 30
0.0
 11
-819.6169023757323657
 21
-151.9754283572964084
 31
0.0
  0
LINE
  5
C6
100
AcDbEntity
  8
0
 62
256
370
-1
 48
1.0
  6
BYLAYER
100
AcDbLine
 10
-819.6169023757323657
 20
-151.9754283572964084
 30
0.0
 11
-819.1402616957323062
 21
-151.9935572572964304
 31
0.0
  0
LINE
  5
C7
100
AcDbEntity
  8
0
 62
256
370
-1
 48
1.0
  6
BYLAYER
100
AcDbLine
 10
-819.1402616957323062
 20
-151.9935572572964304
 30
0.0
 11
-818.6638212157323551
 21
-152.0101949472964122
 31
0.0
  0
LINE
  5
C8
100
AcDbEntity
  8
0
 62
256
370
-1
 48
1.0
  6
BYLAYER
100
AcDbLine
 10
-818.6638212157323551
 20
-152.0101949472964122
 30
0.0
 11
-818.1871140957323405
 21
-152.0268419372964104
 31
0.0
  0
LINE
  5
C9
100
AcDbEntity
  8
0
 62
256
370
-1
 48
1.0
  6
BYLAYER
100
AcDbLine
 10
-818.1871140957323405
 20
-152.0268419372964104
 30
0.0
 11
-817.4535222957323413
 21
-152.8449677372964288
 31
0.0
  0
LINE
  5
CA
100
AcDbEntity
  8
0
 62
256
370
-1
 48
1.0
  6
BYLAYER
100
AcDbLine
 10
-817.4535222957323413
 20
-152.8449677372964288
 30
0.0
 11
-817.4535222957323413
 21
-152.8449677372964288
 31
0.0
  0
LINE
  5
CB
100
AcDbEntity
  8
0
 62
256
370
-1
 48
1.0
  6
BYLAYER
100
AcDbLine
 10
-817.4535222957323413
 20
-152.8449677372964288
 30
0.0
 11
-817.5661283157323851
 21
-153.9380398472964089
 31
0.0
  0
LINE
  5
CC
100
AcDbEntity
  8
0
 62
256
370
-1
 48
1.0
  6
BYLAYER
100
AcDbLine
 10
-817.5661283157323851
 20
-153.9380398472964089
 30
0.0
 11
-817.9420076357323524
 21
-154.2317089372964176
 31
0.0
  0
LINE
  5
CD
100
AcDbEntity
  8
0
 62
256
370
-1
 48
1.0
  6
BYLAYER
100
AcDbLine
 10
-817.9420076357323524
 20
-154.2317089372964176
 30
0.0
 11
-818.3176767257323263
 21
-154.5252137772964147
 31
0.0
  0
LINE
  5
CE
100
AcDbEntity
  8
0
 62
256
370
-1
 48
1.0
  6
BYLAYER
100
AcDbLine
 10
-818.3176767257323263
 20
-154.5252137772964147
 30
0.0
 11
-818.6926312457324002
 21
-154.8200426972964294
 31
0.0
  0
LINE
  5
CF
100
AcDbEntity
  8
0
 62
256
370
-1
 48
1.0
  6
BYLAYER
100
AcDbLine
 10
-818.6926312457324002
 20
-154.8200426972964294
 30
0.0
 11
-819.0651768757323907
 21
-155.1211188472964295
 31
0.0
  0
LINE
  5
D0
100
AcDbEntity
  8
0
 62
256
370
-1
 48
1.0
  6
BYLAYER
100
AcDbLine
 10
-819.0651768757323907
 20
-155.1211188472964295
 30
0.0
 11
-819.4352053857323881
 21
-155.4286657872964099
 31
0.0
  0
LINE
  5
D1
100
AcDbEntity
  8
0
 62
256
370
-1
 48
1.0
  6
BYLAYER
100
AcDbLine
 10
-819.4352053857323881
 20
-155.4286657872964099
 30
0.0
 11
-819.8027417457324191
 21
-155.7425159872964286
 31
0.0
  0
LINE
  5
D2
100
AcDbEntity
  8
0
 62
256
370
-1
 48
1.0
  6
BYLAYER
100
AcDbLine
 10
-819.8027417457324191
 20
-155.7425159872964286
 30
0.0
 11
-820.1678059657323274
 21
-156.0625169772964114
 31
0.0
  0
LINE
  5
D3
100
AcDbEntity
  8
0
 62
256
370
-1
 48
1.0
  6
BYLAYER
100
AcDbLine
 10
-820.1678059657323274
 20
-156.0625169772964114
 30
0.0
 11
-820.5304126057324083
 21
-156.3885328172964364
 31
0.0
  0
LINE
  5
D4
100
AcDbEntity
  8
0
 62
256
370
-1
 48
1.0
  6
BYLAYER
100
AcDbLine
 10
-820.5304126057324083
 20
-156.3885328172964364
 30
0.0
 11
-820.8905730257323512
 21
-156.720437397296422
 31
0.0
  0
LINE
  5
D5
100
AcDbEntity
  8
0
 62
256
370
-1
 48
1.0
  6
BYLAYER
100
AcDbLine
 10
-820.8905730257323512
 20
-156.720437397296422
 30
0.0
 11
-820.4866899257323212
 21
-157.8422659772964209
 31
0.0
  0
LINE
  5
D6
100
AcDbEntity
  8
0
 62
256
370
-1
 48
1.0
  6
BYLAYER
100
AcDbLine
 10
-820.4866899257323212
 20
-157.8422659772964209
 30
0.0
 11
-819.99761760573233
 21
-157.8684279972964077
 31
0.0
  0
LINE
  5
D7
100
AcDbEntity
  8
0
 62
256
370
-1
 48
1.0
  6
BYLAYER
100
AcDbLine
 10
-819.99761760573233
 20
-157.8684279972964077
 30
0.0
 11
-819.5104140757323421
 21
-157.8884933772964132
 31
0.0
  0
LINE
  5
D8
100
AcDbEntity
  8
0
 62
256
370
-1
 48
1.0
  6
BYLAYER
100
AcDbLine
 10
-819.5104140757323421
 20
-157.8884933772964132
 30
0.0
 11
-819.0251509557323288
 21
-157.902357717296411
 31
0.0
  0
LINE
  5
D9
100
AcDbEntity
  8
0
 62
256
370
-1
 48
1.0
  6
BYLAYER
100
AcDbLine
 10
-819.0251509557323288
 20
-157.902357717296411
 30
0.0
 11
-818.5419036757323283
 21
-157.9099069972964173
 31
0.0
  0
LINE
  5
DA
100
AcDbEntity
  8
0
 62
256
370
-1
 48
1.0
  6
BYLAYER
100
AcDbLine
 10
-818.5419036757323283
 20
-157.9099069972964173
 30
0.0
 11
-818.0607540057324059
 21
-157.9110109672964199
 31
0.0
  0
LINE
  5
DB
100
AcDbEntity
  8
0
 62
256
370
-1
 48
1.0
  6
BYLAYER
100
AcDbLine
 10
-818.0607540057324059
 20
-157.9110109672964199
 30
0.0
 11
-817.5817895157323392
 21
-157.9055246372964234
 31
0.0
  0
LINE
  5
DC
100
AcDbEntity
  8
0
 62
256
370
-1
 48
1.0
  6
BYLAYER
100
AcDbLine
 10
-817.5817895157323392
 20
-157.9055246372964234
 30
0.0
 11
-817.1049510557323856
 21
-157.893689247296436
 31
0.0
  0
LINE
  5
DD
100
AcDbEntity
  8
0
 62
256
370
-1
 48
1.0
  6
BYLAYER
100
AcDbLine
 10
-817.1049510557323856
 20
-157.893689247296436
 30
0.0
 11
-816.6284060257323745
 21
-157.880378157296434
 31
0.0
  0
LINE
  5
DE
100
AcDbEntity
  8
0
 62
256
370
-1
 48
1.0
  6
BYLAYER
100
AcDbLine
 10
-816.6284060257323745
 20
-157.880378157296434
 30
0.0
 11
-816.1515943057323739
 21
-157.8670596172964338
 31
0.0
  0
LINE
  5
DF
100
AcDbEntity
  8
0
 62
256
370
-1
 48
1.0
  6
BYLAYER
100
AcDbLine
 10
-816.1515943057323739
 20
-157.8670596172964338
 30
0.0
 11
-815.3680795457323711
 21
-158.6375084272964102
 31
0.0
  0
LINE
  5
E0
100
AcDbEntity
  8
0
 62
256
370
-1
 48
1.0
  6
BYLAYER
100
AcDbLine
 10
-815.3680795457323711
 20
-158.6375084272964102
 30
0.0
 11
-815.3680795457323711
 21
-158.6375084272964102
 31
0.0
  0
LINE
  5
E1
100
AcDbEntity
  8
0
 62
256
370
-1
 48
1.0
  6
BYLAYER
100
AcDbLine
 10
-815.3680795457323711
 20
-158.6375084272964102
 30
0.0
 11
-815.4118287957323901
 21
-159.7354941972964184
 31
0.0
  0
LINE
  5
E2
100
AcDbEntity
  8
0
 62
256
370
-1
 48
1.0
  6
BYLAYER
100
AcDbLine
 10
-815.4118287957323901
 20
-159.7354941972964184
 30
0.0
 11
-815.7685267757324254
 21
-160.0521854572964173
 31
0.0
  0
LINE
  5
E3
100
AcDbEntity
  8
0
 62
256
370
-1
 48
1.0
  6
BYLAYER
100
AcDbLine
 10
-815.7685267757324254
 20
-160.0521854572964173
 30
0.0
 11
-816.1250252357323234
 21
-160.368699577296411
 31
0.0
  0
LINE
  5
E4
100
AcDbEntity
  8
0
 62
256
370
-1
 48
1.0
  6
BYLAYER
100
AcDbLine
 10
-816.1250252357323234
 20
-160.368699577296411
 30
0.0
 11
-816.4807274157324173
 21
-160.6864903172964318
 31
0.0
  0
LINE
  5
E5
100
AcDbEntity
  8
0
 62
256
370
-1
 48
1.0
  6
BYLAYER
100
AcDbLine
 10
-816.4807274157324173
 20
-160.6864903172964318
 30
0.0
 11
-816.8336331757323023
 21
-161.0103646872964305
 31
0.0
  0
LINE
  5
E6
100
AcDbEntity
  8
0
 62
256
370
-1
 48
1.0
  6
BYLAYER
100
AcDbLine
 10
-816.8336331757323023
 20
-161.0103646872964305
 30
0.0
 11
-817.1836204957323844
 21
-161.3405390472964314
 31
0.0
  0
LINE
  5
E7
100
AcDbEntity
  8
0
 62
256
370
-1
 48
1.0
  6
BYLAYER
100
AcDbLine
 10
-817.1836204957323844
 20
-161.3405390472964314
 30
0.0
 11
-817.5307247857323318
 21
-161.6768477272964333
 31
0.0
  0
LINE
  5
E8
100
AcDbEntity
  8
0
 62
256
370
-1
 48
1.0
  6
BYLAYER
100
AcDbLine
 10
-817.5307247857323318
 20
-161.6768477272964333
 30
0.0
 11
-817.8749756057324021
 21
-162.0191398372964215
 31
0.0
  0
LINE
  5
E9
100
AcDbEntity
  8
0
 62
256
370
-1
 48
1.0
  6
BYLAYER
100
AcDbLine
 10
-817.8749756057324021
 20
-162.0191398372964215
 30
0.0
 11
-818.2163960257323652
 21
-162.3672806172964158
 31
0.0
  0
LINE
  5
EA
100
AcDbEntity
  8
0
 62
256
370
-1
 48
1.0
  6
BYLAYER
100
AcDbLine
 10
-818.2163960257323652
 20
-162.3672806172964158
 30
0.0
 11
-818.5550052857323635
 21
-162.7211449272964217
 31
0.0
  0
LINE
  5
EB
100
AcDbEntity
  8
0
 62
256
370
-1
 48
1.0
  6
BYLAYER
100
AcDbLine
 10
-818.5550052857323635
 20
-162.7211449272964217
 30
0.0
 11
-818.0814789557323365
 21
-163.8153998072964157
 31
0.0
  0
LINE
  5
EC
100
AcDbEntity
  8
0
 62
256
370
-1
 48
1.0
  6
BYLAYER
100
AcDbLine
 10
-818.0814789557323365
 20
-163.8153998072964157
 30
0.0
 11
-817.5917289857324022
 21
-163.8108010972964053
 31
0.0
  0
LINE
  5
ED
100
AcDbEntity
  8
0
 62
256
370
-1
 48
1.0
  6
BYLAYER
100
AcDbLine
 10
-817.5917289857324022
 20
-163.8108010972964053
 30
0.0
 11
-817.1042269257324051
 21
-163.8002351172964097
 31
0.0
  0
LINE
  5
EE
100
AcDbEntity
  8
0
 62
256
370
-1
 48
1.0
  6
BYLAYER
100
AcDbLine
 10
-817.1042269257324051
 20
-163.8002351172964097
 30
0.0
 11
-816.6190508157324075
 21
-163.7836021772964159
 31
0.0
  0
LINE
  5
EF
100
AcDbEntity
  8
0
 62
256
370
-1
 48
1.0
  6
BYLAYER
100
AcDbLine
 10
-816.6190508157324075
 20
-163.7836021772964159
 30
0.0
 11
-816.136283095732324
 21
-163.7607932072964161
 31
0.0
  0
LINE
  5
F0
100
AcDbEntity
  8
0
 62
256
370
-1
 48
1.0
  6
BYLAYER
100
AcDbLine
 10
-816.136283095732324
 20
-163.7607932072964161
 30
0.0
 11
-815.656013535732427
 21
-163.7316833672964265
 31
0.0
  0
LINE
  5
F1
100
AcDbEntity
  8
0
 62
256
370
-1
 48
1.0
  6
BYLAYER
100
AcDbLine
 10
-815.656013535732427
 20
-163.7316833672964265
 30
0.0
 11
-815.1783386657323263
 21
-163.6961334372964245
 31
0.0
  0
LINE
  5
F2
100
AcDbEntity
  8
0
 62
256
370
-1
 48
1.0
  6
BYLAYER
100
AcDbLine
 10
-815.1783386657323263
 20
-163.6961334372964245
 30
0.0
 11
-814.7031842857323909
 21
-163.65438046729642
 31
0.0
  0
LINE
  5
F3
100
AcDbEntity
  8
0
 62
256
370
-1
 48
1.0
  6
BYLAYER
100
AcDbLine
 10
-814.7031842857323909
 20
-163.65438046729642
 30
0.0
 11
-814.2284154157323428
 21
-163.6111731272964107
 31
0.0
  0
LINE
  5
F4
100
AcDbEntity
  8
0
 62
256
370
-1
 48
1.0
  6
BYLAYER
100
AcDbLine
 10
-814.2284154157323428
 20
-163.6111731272964107
 30
0.0
 11
-813.7533808557323027
 21
-163.5679416072964045
 31
0.0
  0
LINE
  5
F5
100
AcDbEntity
  8
0
 62
256
370
-1
 48
1.0
  6
BYLAYER
100
AcDbLine
 10
-813.7533808557323027
 20
-163.5679416072964045
 30
0.0
 11
-812.9230352957323475
 21
-164.2876728172964249
 31
0.0
  0
LINE
  5
F6
100
AcDbEntity
  8
0
 62
256
370
-1
 48
1.0
  6
BYLAYER
100
AcDbLine
 10
-812.9230352957323475
 20
-164.2876728172964249
 30
0.0
 11
-812.9230352957323475
 21
-164.2876728172964249
 31
0.0
  0
LINE
  5
F7
100
AcDbEntity
  8
0
 62
256
370
-1
 48
1.0
  6
BYLAYER
100
AcDbLine
 10
-812.9230352957323475
 20
-164.2876728172964249
 30
0.0
 11
-812.8977551257323739
 21
-165.3862390072964104
 31
0.0
  0
LINE
  5
F8
100
AcDbEntity
  8
0
 62
256
370
-1
 48
1.0
  6
BYLAYER
100
AcDbLine
 10
-812.8977551257323739
 20
-165.3862390072964104
 30
0.0
 11
-813.2338640357323811
 21
-165.7247025972964138
 31
0.0
  0
LINE
  5
F9
100
AcDbEntity
  8
0
 62
256
370
-1
 48
1.0
  6
BYLAYER
100
AcDbLine
 10
-813.2338640357323811
 20
-165.7247025972964138
 30
0.0
 11
-813.5697849457324082
 21
-166.0629768772964212
 31
0.0
  0
LINE
  5
FA
100
AcDbEntity
  8
0
 62
256
370
-1
 48
1.0
  6
BYLAYER
100
AcDbLine
 10
-813.5697849457324082
 20
-166.0629768772964212
 30
0.0
 11
-813.9048309857323602
 21
-166.4024752572964303
 31
0.0
  0
LINE
  5
FB
100
AcDbEntity
  8
0
 62
256
370
-1
 48
1.0
  6
BYLAYER
100
AcDbLine
 10
-813.9048309857323602
 20
-166.4024752572964303
 30
0.0
 11
-814.2367041257323308
 21
-166.7478696672964134
 31
0.0
  0
LINE
  5
FC
100
AcDbEntity
  8
0
 62
256
370
-1
 48
1.0
  6
BYLAYER
100
AcDbLine
 10
-814.2367041257323308
 20
-166.7478696672964134
 30
0.0
 11
-814.5652690057323753
 21
-167.0993683872964084
 31
0.0
  0
LINE
  5
FD
100
AcDbEntity
  8
0
 62
256
370
-1
 48
1.0
  6
BYLAYER
100
AcDbLine
 10
-814.5652690057323753
 20
-167.0993683872964084
 30
0.0
 11
-814.8905713657323986
 21
-167.4568082972964191
 31
0.0
  0
LINE
  5
FE
100
AcDbEntity
  8
0
 62
256
370
-1
 48
1.0
  6
BYLAYER
100
AcDbLine
 10
-814.8905713657323986
 20
-167.4568082972964191
 30
0.0
 11
-815.2126501857324001
 21
-167.8200406672964107
 31
0.0
  0
LINE
  5
FF
100
AcDbEntity
  8
0
 62
256
370
-1
 48
1.0
  6
BYLAYER
100
AcDbLine
 10
-815.2126501857324001
 20
-167.8200406672964107
 30
0.0
 11
-815.5315369457323413
 21
-168.1889324372964154
 31
0.0
  0
LINE
  5
100
100
AcDbEntity
  8
0
 62
256
370
-1
 48
1.0
  6
BYLAYER
100
AcDbLine
 10
-815.5315369457323413
 20
-168.1889324372964154
 30
0.0
 11
-815.8472587157323233
 21
-168.5633599172964239
 31
0.0
  0
LINE
  5
101
100
AcDbEntity
  8
0
 62
256
370
-1
 48
1.0
  6
BYLAYER
100
AcDbLine
 10
-815.8472587157323233
 20
-168.5633599172964239
 30
0.0
 11
-815.3059579557323104
 21
-169.6257225772964148
 31
0.0
  0
LINE
  5
102
100
AcDbEntity
  8
0
 62
256
370
-1
 48
1.0
  6
BYLAYER
100
AcDbLine
 10
-815.3059579557323104
 20
-169.6257225772964148
 30
0.0
 11
-814.8174631557324119
 21
-169.5903812772964159
 31
0.0
  0
LINE
  5
103
100
AcDbEntity
  8
0
 62
256
370
-1
 48
1.0
  6
BYLAYER
100
AcDbLine
 10
-814.8174631557324119
 20
-169.5903812772964159
 30
0.0
 11
-814.331586505732389
 21
-169.5492256472964243
 31
0.0
  0
LINE
  5
104
100
AcDbEntity
  8
0
 62
256
370
-1
 48
1.0
  6
BYLAYER
100
AcDbLine
 10
-814.331586505732389
 20
-169.5492256472964243
 30
0.0
 11
-813.848412165732384
 21
-169.502161067296413
 31
0.0
  0
LINE
  5
105
100
AcDbEntity
  8
0
 62
256
370
-1
 48
1.0
  6
BYLAYER
100
AcDbLine
 10
-813.848412165732384
 20
-169.502161067296413
 30
0.0
 11
-813.3680292657323889
 21
-169.449083877296431
 31
0.0
  0
LINE
  5
106
100
AcDbEntity
  8
0
 62
256
370
-1
 48
1.0
  6
BYLAYER
100
AcDbLine
 10
-813.3680292657323889
 20
-169.449083877296431
 30
0.0
 11
-812.8905352357323864
 21
-169.3898750972964251
 31
0.0
  0
LINE
  5
107
100
AcDbEntity
  8
0
 62
256
370
-1
 48
1.0
  6
BYLAYER
100
AcDbLine
 10
-812.8905352357323864
 20
-169.3898750972964251
 30
0.0
 11
-812.4160351457323941
 21
-169.3244018572964364
 31
0.0
  0
LINE
  5
108
100
AcDbEntity
  8
0
 62
256
370
-1
 48
1.0
  6
BYLAYER
100
AcDbLine
 10
-812.4160351457323941
 20
-169.3244018572964364
 30
0.0
 11
-811.9444400657323513
 21
-169.2528960972964285
 31
0.0
  0
LINE
  5
109
100
AcDbEntity
  8
0
 62
256
370
-1
 48
1.0
  6
BYLAYER
100
AcDbLine
 10
-811.9444400657323513
 20
-169.2528960972964285
 30
0.0
 11
-811.4733210557324128
 21
-169.1799630372964316
 31
0.0
  0
LINE
  5
10A
100
AcDbEntity
  8
0
 62
256
370
-1
 48
1.0
  6
BYLAYER
100
AcDbLine
 10
-811.4733210557324128
 20
-169.1799630372964316
 30
0.0
 11
-811.0019383957323953
 21
-169.1069891572964252
 31
0.0
  0
LINE
  5
10B
100
AcDbEntity
  8
0
 62
256
370
-1
 48
1.0
  6
BYLAYER
100
AcDbLine
 10
-811.0019383957323953
 20
-169.1069891572964252
 30
0.0
 11
-810.1280390357323995
 21
-169.7731623072964169
 31
0.0
  0
LINE
  5
10C
100
AcDbEntity
  8
0
 62
256
370
-1
 48
1.0
  6
BYLAYER
100
AcDbLine
 10
-810.1280390357323995
 20
-169.7731623072964169
 30
0.0
 11
-810.1280390357323995
 21
-169.7731623072964169
 31
0.0
  0
LINE
  5
10D
100
AcDbEntity
  8
0
 62
256
370
-1
 48
1.0
  6
BYLAYER
100
AcDbLine
 10
-810.1280390357323995
 20
-169.7731623072964169
 30
0.0
 11
-810.0338292157323394
 21
-170.8679733772964369
 31
0.0
  0
LINE
  5
10E
100
AcDbEntity
  8
0
 62
256
370
-1
 48
1.0
  6
BYLAYER
100
AcDbLine
 10
-810.0338292157323394
 20
-170.8679733772964369
 30
0.0
 11
-810.3480225757323296
 21
-171.2268735372964272
 31
0.0
  0
LINE
  5
10F
100
AcDbEntity
  8
0
 62
256
370
-1
 48
1.0
  6
BYLAYER
100
AcDbLine
 10
-810.3480225757323296
 20
-171.2268735372964272
 30
0.0
 11
-810.6620402157323042
 21
-171.5855729572964208
 31
0.0
  0
LINE
  5
110
100
AcDbEntity
  8
0
 62
256
370
-1
 48
1.0
  6
BYLAYER
100
AcDbLine
 10
-810.6620402157323042
 20
-171.5855729572964208
 30
0.0
 11
-810.9751078357323877
 21
-171.9454391272964244
 31
0.0
  0
LINE
  5
111
100
AcDbEntity
  8
0
 62
256
370
-1
 48
1.0
  6
BYLAYER
100
AcDbLine
 10
-810.9751078357323877
 20
-171.9454391272964244
 30
0.0
 11
-811.2846386057324253
 21
-172.3109904672964205
 31
0.0
  0
LINE
  5
112
100
AcDbEntity
  8
0
 62
256
370
-1
 48
1.0
  6
BYLAYER
100
AcDbLine
 10
-811.2846386057324253
 20
-172.3109904672964205
 30
0.0
 11
-811.5904843457324205
 21
-172.6824263472964276
 31
0.0
  0
LINE
  5
113
100
AcDbEntity
  8
0
 62
256
370
-1
 48
1.0
  6
BYLAYER
100
AcDbLine
 10
-811.5904843457324205
 20
-172.6824263472964276
 30
0.0
 11
-811.8927009657323879
 21
-173.0595868372964219
 31
0.0
  0
LINE
  5
114
100
AcDbEntity
  8
0
 62
256
370
-1
 48
1.0
  6
BYLAYER
100
AcDbLine
 10
-811.8927009657323879
 20
-173.0595868372964219
 30
0.0
 11
-812.1913366857323808
 21
-173.4423259472964105
 31
0.0
  0
LINE
  5
115
100
AcDbEntity
  8
0
 62
256
370
-1
 48
1.0
  6
BYLAYER
100
AcDbLine
 10
-812.1913366857323808
 20
-173.4423259472964105
 30
0.0
 11
-812.4864312957323591
 21
-173.8305128572964122
 31
0.0
  0
LINE
  5
116
100
AcDbEntity
  8
0
 62
256
370
-1
 48
1.0
  6
BYLAYER
100
AcDbLine
 10
-812.4864312957323591
 20
-173.8305128572964122
 30
0.0
 11
-812.7780195657323929
 21
-174.2240258272964297
 31
0.0
  0
LINE
  5
117
100
AcDbEntity
  8
0
 62
256
370
-1
 48
1.0
  6
BYLAYER
100
AcDbLine
 10
-812.7780195657323929
 20
-174.2240258272964297
 30
0.0
 11
-812.1710806357323236
 21
-175.2503035972964085
 31
0.0
  0
LINE
  5
118
100
AcDbEntity
  8
0
 62
256
370
-1
 48
1.0
  6
BYLAYER
100
AcDbLine
 10
-812.1710806357323236
 20
-175.2503035972964085
 30
0.0
 11
-811.6857688657323706
 21
-175.1843591972964305
 31
0.0
  0
LINE
  5
119
100
AcDbEntity
  8
0
 62
256
370
-1
 48
1.0
  6
BYLAYER
100
AcDbLine
 10
-811.6857688657323706
 20
-175.1843591972964305
 30
0.0
 11
-811.2034351657323441
 21
-175.112776327296416
 31
0.0
  0
LINE
  5
11A
100
AcDbEntity
  8
0
 62
256
370
-1
 48
1.0
  6
BYLAYER
100
AcDbLine
 10
-811.2034351657323441
 20
-175.112776327296416
 30
0.0
 11
-810.7241694657323023
 21
-175.0354658572964297
 31
0.0
  0
LINE
  5
11B
100
AcDbEntity
  8
0
 62
256
370
-1
 48
1.0
  6
BYLAYER
100
AcDbLine
 10
-810.7241694657323023
 20
-175.0354658572964297
 30
0.0
 11
-810.2480672357323783
 21
-174.9523298972964085
 31
0.0
  0
LINE
  5
11C
100
AcDbEntity
  8
0
 62
256
370
-1
 48
1.0
  6
BYLAYER
100
AcDbLine
 10
-810.2480672357323783
 20
-174.9523298972964085
 30
0.0
 11
-809.7752331857323043
 21
-174.8632558672964308
 31
0.0
  0
LINE
  5
11D
100
AcDbEntity
  8
0
 62
256
370
-1
 48
1.0
  6
BYLAYER
100
AcDbLine
 10
-809.7752331857323043
 20
-174.8632558672964308
 30
0.0
 11
-809.3057805057324003
 21
-174.768117717296434
 31
0.0
  0
LINE
  5
11E
100
AcDbEntity
  8
0
 62
256
370
-1
 48
1.0
  6
BYLAYER
100
AcDbLine
 10
-809.3057805057324003
 20
-174.768117717296434
 30
0.0
 11
-808.8396058957323476
 21
-174.6671413572964298
 31
0.0
  0
LINE
  5
11F
100
AcDbEntity
  8
0
 62
256
370
-1
 48
1.0
  6
BYLAYER
100
AcDbLine
 10
-808.8396058957323476
 20
-174.6671413572964298
 30
0.0
 11
-808.3739960357323753
 21
-174.564770397296428
 31
0.0
  0
LINE
  5
120
100
AcDbEntity
  8
0
 62
256
370
-1
 48
1.0
  6
BYLAYER
100
AcDbLine
 10
-808.3739960357323753
 20
-174.564770397296428
 30
0.0
 11
-807.9081256157323878
 21
-174.4623421572964048
 31
0.0
  0
LINE
  5
121
100
AcDbEntity
  8
0
 62
256
370
-1
 48
1.0
  6
BYLAYER
100
AcDbLine
 10
-807.9081256157323878
 20
-174.4623421572964048
 30
0.0
 11
-806.9941213357324159
 21
-175.0723281772964128
 31
0.0
  0
LINE
  5
122
100
AcDbEntity
  8
0
 62
256
370
-1
 48
1.0
  6
BYLAYER
100
AcDbLine
 10
-806.9941213357324159
 20
-175.0723281772964128
 30
0.0
 11
-806.9941213357324159
 21
-175.0723281772964128
 31
0.0
  0
LINE
  5
123
100
AcDbEntity
  8
0
 62
256
370
-1
 48
1.0
  6
BYLAYER
100
AcDbLine
 10
-806.9941213357324159
 20
-175.0723281772964128
 30
0.0
 11
-806.8313536557324142
 21
-176.1590633972964213
 31
0.0
  0
LINE
  5
124
100
AcDbEntity
  8
0
 62
256
370
-1
 48
1.0
  6
BYLAYER
100
AcDbLine
 10
-806.8313536557324142
 20
-176.1590633972964213
 30
0.0
 11
-807.1223915057323666
 21
-176.5369837172964367
 31
0.0
  0
LINE
  5
125
100
AcDbEntity
  8
0
 62
256
370
-1
 48
1.0
  6
BYLAYER
100
AcDbLine
 10
-807.1223915057323666
 20
-176.5369837172964367
 30
0.0
 11
-807.4132665757323366
 21
-176.9146926572964276
 31
0.0
  0
LINE
  5
126
100
AcDbEntity
  8
0
 62
256
370
-1
 48
1.0
  6
BYLAYER
100
AcDbLine
 10
-807.4132665757323366
 20
-176.9146926572964276
 30
0.0
 11
-807.7031202457324071
 21
-177.2935063972964258
 31
0.0
  0
LINE
  5
127
100
AcDbEntity
  8
0
 62
256
370
-1
 48
1.0
  6
BYLAYER
100
AcDbLine
 10
-807.7031202457324071
 20
-177.2935063972964258
 30
0.0
 11
-807.9890870757324137
 21
-177.6777719972964178
 31
0.0
  0
LINE
  5
128
100
AcDbEntity
  8
0
 62
256
370
-1
 48
1.0
  6
BYLAYER
100
AcDbLine
 10
-807.9890870757324137
 20
-177.6777719972964178
 30
0.0
 11
-808.2710066457323137
 21
-178.0676791472964169
 31
0.0
  0
LINE
  5
129
100
AcDbEntity
  8
0
 62
256
370
-1
 48
1.0
  6
BYLAYER
100
AcDbLine
 10
-808.2710066457323137
 20
-178.0676791472964169
 30
0.0
 11
-808.5489448057323898
 21
-178.463071737296417
 31
0.0
  0
LINE
  5
12A
100
AcDbEntity
  8
0
 62
256
370
-1
 48
1.0
  6
BYLAYER
100
AcDbLine
 10
-808.5489448057323898
 20
-178.463071737296417
 30
0.0
 11
-808.822958855732395
 21
-178.8638070872964363
 31
0.0
  0
LINE
  5
12B
100
AcDbEntity
  8
0
 62
256
370
-1
 48
1.0
  6
BYLAYER
100
AcDbLine
 10
-808.822958855732395
 20
-178.8638070872964363
 30
0.0
 11
-809.0930966957323562
 21
-179.2697571372964376
 31
0.0
  0
LINE
  5
12C
100
AcDbEntity
  8
0
 62
256
370
-1
 48
1.0
  6
BYLAYER
100
AcDbLine
 10
-809.0930966957323562
 20
-179.2697571372964376
 30
0.0
 11
-809.3594007057323552
 21
-179.6808025872964265
 31
0.0
  0
LINE
  5
12D
100
AcDbEntity
  8
0
 62
256
370
-1
 48
1.0
  6
BYLAYER
100
AcDbLine
 10
-809.3594007057323552
 20
-179.6808025872964265
 30
0.0
 11
-808.6892189157323401
 21
-180.6669452172964156
 31
0.0
  0
LINE
  5
12E
100
AcDbEntity
  8
0
 62
256
370
-1
 48
1.0
  6
BYLAYER
100
AcDbLine
 10
-808.6892189157323401
 20
-180.6669452172964156
 30
0.0
 11
-808.2090054757323969
 21
-180.5706579672964267
 31
0.0
  0
LINE
  5
12F
100
AcDbEntity
  8
0
 62
256
370
-1
 48
1.0
  6
BYLAYER
100
AcDbLine
 10
-808.2090054757323969
 20
-180.5706579672964267
 30
0.0
 11
-807.7321182857323265
 21
-180.4689303672964229
 31
0.0
  0
LINE
  5
130
100
AcDbEntity
  8
0
 62
256
370
-1
 48
1.0
  6
BYLAYER
100
AcDbLine
 10
-807.7321182857323265
 20
-180.4689303672964229
 30
0.0
 11
-807.2586526757323782
 21
-180.3616791072964247
 31
0.0
  0
LINE
  5
131
100
AcDbEntity
  8
0
 62
256
370
-1
 48
1.0
  6
BYLAYER
100
AcDbLine
 10
-807.2586526757323782
 20
-180.3616791072964247
 30
0.0
 11
-806.7887100657324027
 21
-180.2488124972964272
 31
0.0
  0
LINE
  5
132
100
AcDbEntity
  8
0
 62
256
370
-1
 48
1.0
  6
BYLAYER
100
AcDbLine
 10
-806.7887100657324027
 20
-180.2488124972964272
 30
0.0
 11
-806.3224020457323604
 21
-180.1302247372964302
 31
0.0
  0
LINE
  5
133
100
AcDbEntity
  8
0
 62
256
370
-1
 48
1.0
  6
BYLAYER
100
AcDbLine
 10
-806.3224020457323604
 20
-180.1302247372964302
 30
0.0
 11
-805.8598495057324271
 21
-180.0057971372964118
 31
0.0
  0
LINE
  5
134
100
AcDbEntity
  8
0
 62
256
370
-1
 48
1.0
  6
BYLAYER
100
AcDbLine
 10
-805.8598495057324271
 20
-180.0057971372964118
 30
0.0
 11
-805.4009351457323191
 21
-179.8757486872964364
 31
0.0
  0
LINE
  5
135
100
AcDbEntity
  8
0
 62
256
370
-1
 48
1.0
  6
BYLAYER
100
AcDbLine
 10
-805.4009351457323191
 20
-179.8757486872964364
 30
0.0
 11
-804.9426719857323178
 21
-179.7443438572964283
 31
0.0
  0
LINE
  5
136
100
AcDbEntity
  8
0
 62
256
370
-1
 48
1.0
  6
BYLAYER
100
AcDbLine
 10
-804.9426719857323178
 20
-179.7443438572964283
 30
0.0
 11
-804.4841523657323705
 21
-179.6128654872964034
 31
0.0
  0
LINE
  5
137
100
AcDbEntity
  8
0
 62
256
370
-1
 48
1.0
  6
BYLAYER
100
AcDbLine
 10
-804.4841523657323705
 20
-179.6128654872964034
 30
0.0
 11
-803.5336503357323181
 21
-180.1642570372964087
 31
0.0
  0
LINE
  5
138
100
AcDbEntity
  8
0
 62
256
370
-1
 48
1.0
  6
BYLAYER
100
AcDbLine
 10
-803.5336503357323181
 20
-180.1642570372964087
 30
0.0
 11
-803.5336503357323181
 21
-180.1642570372964087
 31
0.0
  0
LINE
  5
139
100
AcDbEntity
  8
0
 62
256
370
-1
 48
1.0
  6
BYLAYER
100
AcDbLine
 10
-803.5336503357323181
 20
-180.1642570372964087
 30
0.0
 11
-803.3029671757324195
 21
-181.2386275672964189
 31
0.0
  0
LINE
  5
13A
100
AcDbEntity
  8
0
 62
256
370
-1
 48
1.0
  6
BYLAYER
100
AcDbLine
 10
-803.3029671757324195
 20
-181.2386275672964189
 30
0.0
 11
-803.5697009157323691
 21
-181.6340765672964039
 31
0.0
  0
LINE
  5
13B
100
AcDbEntity
  8
0
 62
256
370
-1
 48
1.0
  6
BYLAYER
100
AcDbLine
 10
-803.5697009157323691
 20
-181.6340765672964039
 30
0.0
 11
-803.8362854657323169
 21
-182.0293043772964268
 31
0.0
  0
LINE
  5
13C
100
AcDbEntity
  8
0
 62
256
370
-1
 48
1.0
  6
BYLAYER
100
AcDbLine
 10
-803.8362854657323169
 20
-182.0293043772964268
 30
0.0
 11
-804.1017812657323702
 21
-182.4255706772964345
 31
0.0
  0
LINE
  5
13D
100
AcDbEntity
  8
0
 62
256
370
-1
 48
1.0
  6
BYLAYER
100
AcDbLine
 10
-804.1017812657323702
 20
-182.4255706772964345
 30
0.0
 11
-804.3630555657323384
 21
-182.8270340272964063
 31
0.0
  0
LINE
  5
13E
100
AcDbEntity
  8
0
 62
256
370
-1
 48
1.0
  6
BYLAYER
100
AcDbLine
 10
-804.3630555657323384
 20
-182.8270340272964063
 30
0.0
 11
-804.6199363657324284
 21
-183.2338736572964137
 31
0.0
  0
LINE
  5
13F
100
AcDbEntity
  8
0
 62
256
370
-1
 48
1.0
  6
BYLAYER
100
AcDbLine
 10
-804.6199363657324284
 20
-183.2338736572964137
 30
0.0
 11
-804.8724991657323926
 21
-183.6459379072964282
 31
0.0
  0
LINE
  5
140
100
AcDbEntity
  8
0
 62
256
370
-1
 48
1.0
  6
BYLAYER
100
AcDbLine
 10
-804.8724991657323926
 20
-183.6459379072964282
 30
0.0
 11
-805.1208101357324267
 21
-184.0630879772964192
 31
0.0
  0
LINE
  5
141
100
AcDbEntity
  8
0
 62
256
370
-1
 48
1.0
  6
BYLAYER
100
AcDbLine
 10
-805.1208101357324267
 20
-184.0630879772964192
 30
0.0
 11
-805.3649251057323681
 21
-184.4851990772964143
 31
0.0
  0
LINE
  5
142
100
AcDbEntity
  8
0
 62
256
370
-1
 48
1.0
  6
BYLAYER
100
AcDbLine
 10
-805.3649251057323681
 20
-184.4851990772964143
 30
0.0
 11
-805.6048938657323788
 21
-184.91215478729643
 31
0.0
  0
LINE
  5
143
100
AcDbEntity
  8
0
 62
256
370
-1
 48
1.0
  6
BYLAYER
100
AcDbLine
 10
-805.6048938657323788
 20
-184.91215478729643
 30
0.0
 11
-804.8741141257323761
 21
-185.8542704272964272
 31
0.0
  0
LINE
  5
144
100
AcDbEntity
  8
0
 62
256
370
-1
 48
1.0
  6
BYLAYER
100
AcDbLine
 10
-804.8741141257323761
 20
-185.8542704272964272
 30
0.0
 11
-804.4008941957323486
 21
-185.7280203372964138
 31
0.0
  0
LINE
  5
145
100
AcDbEntity
  8
0
 62
256
370
-1
 48
1.0
  6
BYLAYER
100
AcDbLine
 10
-804.4008941957323486
 20
-185.7280203372964138
 30
0.0
 11
-803.9313355657324109
 21
-185.5965494772964348
 31
0.0
  0
LINE
  5
146
100
AcDbEntity
  8
0
 62
256
370
-1
 48
1.0
  6
BYLAYER
100
AcDbLine
 10
-803.9313355657324109
 20
-185.5965494772964348
 30
0.0
 11
-803.4655385857323608
 21
-185.4597806972964236
 31
0.0
  0
LINE
  5
147
100
AcDbEntity
  8
0
 62
256
370
-1
 48
1.0
  6
BYLAYER
100
AcDbLine
 10
-803.4655385857323608
 20
-185.4597806972964236
 30
0.0
 11
-803.0036102657323909
 21
-185.3176288672964347
 31
0.0
  0
LINE
  5
148
100
AcDbEntity
  8
0
 62
256
370
-1
 48
1.0
  6
BYLAYER
100
AcDbLine
 10
-803.0036102657323909
 20
-185.3176288672964347
 30
0.0
 11
-802.5456685857324146
 21
-185.1699953872964102
 31
0.0
  0
LINE
  5
149
100
AcDbEntity
  8
0
 62
256
370
-1
 48
1.0
  6
BYLAYER
100
AcDbLine
 10
-802.5456685857324146
 20
-185.1699953872964102
 30
0.0
 11
-802.0918416557324235
 21
-185.0167694072964082
 31
0.0
  0
LINE
  5
14A
100
AcDbEntity
  8
0
 62
256
370
-1
 48
1.0
  6
BYLAYER
100
AcDbLine
 10
-802.0918416557324235
 20
-185.0167694072964082
 30
0.0
 11
-801.6419986657323307
 21
-184.8581621072964367
 31
0.0
  0
LINE
  5
14B
100
AcDbEntity
  8
0
 62
256
370
-1
 48
1.0
  6
BYLAYER
100
AcDbLine
 10
-801.6419986657323307
 20
-184.8581621072964367
 30
0.0
 11
-801.1928907657323862
 21
-184.6982419872964272
 31
0.0
  0
LINE
  5
14C
100
AcDbEntity
  8
0
 62
256
370
-1
 48
1.0
  6
BYLAYER
100
AcDbLine
 10
-801.1928907657323862
 20
-184.6982419872964272
 30
0.0
 11
-800.7435315257323509
 21
-184.5382323772964241
 31
0.0
  0
LINE
  5
14D
100
AcDbEntity
  8
0
 62
256
370
-1
 48
1.0
  6
BYLAYER
100
AcDbLine
 10
-800.7435315257323509
 20
-184.5382323772964241
 30
0.0
 11
-799.7602829257323265
 21
-185.0288533672964206
 31
0.0
  0
LINE
  5
14E
100
AcDbEntity
  8
0
 62
256
370
-1
 48
1.0
  6
BYLAYER
100
AcDbLine
 10
-799.7602829257323265
 20
-185.0288533672964206
 30
0.0
 11
-799.7602829257323265
 21
-185.0288533672964206
 31
0.0
  0
LINE
  5
14F
100
AcDbEntity
  8
0
 62
256
370
-1
 48
1.0
  6
BYLAYER
100
AcDbLine
 10
-799.7602829257323265
 20
-185.0288533672964206
 30
0.0
 11
-799.4625946857323697
 21
-186.0866191572964112
 31
0.0
  0
LINE
  5
150
100
AcDbEntity
  8
0
 62
256
370
-1
 48
1.0
  6
BYLAYER
100
AcDbLine
 10
-799.4625946857323697
 20
-186.0866191572964112
 30
0.0
 11
-799.7039716357323869
 21
-186.4980361772964272
 31
0.0
  0
LINE
  5
151
100
AcDbEntity
  8
0
 62
256
370
-1
 48
1.0
  6
BYLAYER
100
AcDbLine
 10
-799.7039716357323869
 20
-186.4980361772964272
 30
0.0
 11
-799.9452135857324038
 21
-186.9092230872964251
 31
0.0
  0
LINE
  5
152
100
AcDbEntity
  8
0
 62
256
370
-1
 48
1.0
  6
BYLAYER
100
AcDbLine
 10
-799.9452135857324038
 20
-186.9092230872964251
 30
0.0
 11
-800.1853037257324104
 21
-187.321378057296414
 31
0.0
  0
LINE
  5
153
100
AcDbEntity
  8
0
 62
256
370
-1
 48
1.0
  6
BYLAYER
100
AcDbLine
 10
-800.1853037257324104
 20
-187.321378057296414
 30
0.0
 11
-800.4208543657323389
 21
-187.7384547572964379
 31
0.0
  0
LINE
  5
154
100
AcDbEntity
  8
0
 62
256
370
-1
 48
1.0
  6
BYLAYER
100
AcDbLine
 10
-800.4208543657323389
 20
-187.7384547572964379
 30
0.0
 11
-800.6516825957323817
 21
-188.1606212572964409
 31
0.0
  0
LINE
  5
155
100
AcDbEntity
  8
0
 62
256
370
-1
 48
1.0
  6
BYLAYER
100
AcDbLine
 10
-800.6516825957323817
 20
-188.1606212572964409
 30
0.0
 11
-800.8778733057323507
 21
-188.5877309472964214
 31
0.0
  0
LINE
  5
156
100
AcDbEntity
  8
0
 62
256
370
-1
 48
1.0
  6
BYLAYER
100
AcDbLine
 10
-800.8778733057323507
 20
-188.5877309472964214
 30
0.0
 11
-801.0995012157324027
 21
-189.0196494472964162
 31
0.0
  0
LINE
  5
157
100
AcDbEntity
  8
0
 62
256
370
-1
 48
1.0
  6
BYLAYER
100
AcDbLine
 10
-801.0995012157324027
 20
-189.0196494472964162
 30
0.0
 11
-801.316629905732384
 21
-189.4562557172964148
 31
0.0
  0
LINE
  5
158
100
AcDbEntity
  8
0
 62
256
370
-1
 48
1.0
  6
BYLAYER
100
AcDbLine
 10
-801.316629905732384
 20
-189.4562557172964148
 30
0.0
 11
-801.5293163757323782
 21
-189.8974366872964197
 31
0.0
  0
LINE
  5
159
100
AcDbEntity
  8
0
 62
256
370
-1
 48
1.0
  6
BYLAYER
100
AcDbLine
 10
-801.5293163757323782
 20
-189.8974366872964197
 30
0.0
 11
-800.7408227257324143
 21
-190.7918072372964389
 31
0.0
  0
LINE
  5
15A
100
AcDbEntity
  8
0
 62
256
370
-1
 48
1.0
  6
BYLAYER
100
AcDbLine
 10
-800.7408227257324143
 20
-190.7918072372964389
 30
0.0
 11
-800.2764639057323848
 21
-190.6360925372964061
 31
0.0
  0
LINE
  5
15B
100
AcDbEntity
  8
0
 62
256
370
-1
 48
1.0
  6
BYLAYER
100
AcDbLine
 10
-800.2764639057323848
 20
-190.6360925372964061
 30
0.0
 11
-799.8160869557323167
 21
-190.4753972872964027
 31
0.0
  0
LINE
  5
15C
100
AcDbEntity
  8
0
 62
256
370
-1
 48
1.0
  6
BYLAYER
100
AcDbLine
 10
-799.8160869557323167
 20
-190.4753972872964027
 30
0.0
 11
-799.3597969057323098
 21
-190.3096507572964242
 31
0.0
  0
LINE
  5
15D
100
AcDbEntity
  8
0
 62
256
370
-1
 48
1.0
  6
BYLAYER
100
AcDbLine
 10
-799.3597969057323098
 20
-190.3096507572964242
 30
0.0
 11
-798.9077058857324118
 21
-190.1387747072964203
 31
0.0
  0
LINE
  5
15E
100
AcDbEntity
  8
0
 62
256
370
-1
 48
1.0
  6
BYLAYER
100
AcDbLine
 10
-798.9077058857324118
 20
-190.1387747072964203
 30
0.0
 11
-798.4599378257323679
 21
-189.9626781472964012
 31
0.0
  0
LINE
  5
15F
100
AcDbEntity
  8
0
 62
256
370
-1
 48
1.0
  6
BYLAYER
100
AcDbLine
 10
-798.4599378257323679
 20
-189.9626781472964012
 30
0.0
 11
-798.0166275557323843
 21
-189.7812584972964203
 31
0.0
  0
LINE
  5
160
100
AcDbEntity
  8
0
 62
256
370
-1
 48
1.0
  6
BYLAYER
100
AcDbLine
 10
-798.0166275557323843
 20
-189.7812584972964203
 30
0.0
 11
-797.577631265732407
 21
-189.5947182972964242
 31
0.0
  0
LINE
  5
161
100
AcDbEntity
  8
0
 62
256
370
-1
 48
1.0
  6
BYLAYER
100
AcDbLine
 10
-797.577631265732407
 20
-189.5947182972964242
 30
0.0
 11
-797.1394510457323577
 21
-189.4069140272964091
 31
0.0
  0
LINE
  5
162
100
AcDbEntity
  8
0
 62
256
370
-1
 48
1.0
  6
BYLAYER
100
AcDbLine
 10
-797.1394510457323577
 20
-189.4069140272964091
 30
0.0
 11
-796.7010256057324113
 21
-189.2190046672964172
 31
0.0
  0
LINE
  5
163
100
AcDbEntity
  8
0
 62
256
370
-1
 48
1.0
  6
BYLAYER
100
AcDbLine
 10
-796.7010256057324113
 20
-189.2190046672964172
 30
0.0
 11
-795.6889108757324038
 21
-189.6469188372964254
 31
0.0
  0
LINE
  5
164
100
AcDbEntity
  8
0
 62
256
370
-1
 48
1.0
  6
BYLAYER
100
AcDbLine
 10
-795.6889108757324038
 20
-189.6469188372964254
 30
0.0
 11
-795.6889108757324038
 21
-189.6469188372964254
 31
0.0
  0
LINE
  5
165
100
AcDbEntity
  8
0
 62
256
370
-1
 48
1.0
  6
BYLAYER
100
AcDbLine
 10
-795.6889108757324038
 20
-189.6469188372964254
 30
0.0
 11
-795.3253923857323571
 21
-190.6839053672964042
 31
0.0
  0
LINE
  5
166
100
AcDbEntity
  8
0
 62
256
370
-1
 48
1.0
  6
BYLAYER
100
AcDbLine
 10
-795.3253923857323571
 20
-190.6839053672964042
 30
0.0
 11
-795.5404599557323309
 21
-191.1096667372964362
 31
0.0
  0
LINE
  5
167
100
AcDbEntity
  8
0
 62
256
370
-1
 48
1.0
  6
BYLAYER
100
AcDbLine
 10
-795.5404599557323309
 20
-191.1096667372964362
 30
0.0
 11
-795.7554072257323696
 21
-191.5351899572964385
 31
0.0
  0
LINE
  5
168
100
AcDbEntity
  8
0
 62
256
370
-1
 48
1.0
  6
BYLAYER
100
AcDbLine
 10
-795.7554072257323696
 20
-191.5351899572964385
 30
0.0
 11
-795.9691441757323673
 21
-191.9616070272964237
 31
0.0
  0
LINE
  5
169
100
AcDbEntity
  8
0
 62
256
370
-1
 48
1.0
  6
BYLAYER
100
AcDbLine
 10
-795.9691441757323673
 20
-191.9616070272964237
 30
0.0
 11
-796.1780415457324125
 21
-192.3926510672964127
 31
0.0
  0
LINE
  5
16A
100
AcDbEntity
  8
0
 62
256
370
-1
 48
1.0
  6
BYLAYER
100
AcDbLine
 10
-796.1780415457324125
 20
-192.3926510672964127
 30
0.0
 11
-796.3819062457323525
 21
-192.828478347296425
 31
0.0
  0
LINE
  5
16B
100
AcDbEntity
  8
0
 62
256
370
-1
 48
1.0
  6
BYLAYER
100
AcDbLine
 10
-796.3819062457323525
 20
-192.828478347296425
 30
0.0
 11
-796.5808321657323177
 21
-193.2689478672964185
 31
0.0
  0
LINE
  5
16C
100
AcDbEntity
  8
0
 62
256
370
-1
 48
1.0
  6
BYLAYER
100
AcDbLine
 10
-796.5808321657323177
 20
-193.2689478672964185
 30
0.0
 11
-796.7749023657323733
 21
-193.7139301972964063
 31
0.0
  0
LINE
  5
16D
100
AcDbEntity
  8
0
 62
256
370
-1
 48
1.0
  6
BYLAYER
100
AcDbLine
 10
-796.7749023657323733
 20
-193.7139301972964063
 30
0.0
 11
-796.9641878657323559
 21
-194.163308547296424
 31
0.0
  0
LINE
  5
16E
100
AcDbEntity
  8
0
 62
256
370
-1
 48
1.0
  6
BYLAYER
100
AcDbLine
 10
-796.9641878657323559
 20
-194.163308547296424
 30
0.0
 11
-797.1487526657323315
 21
-194.6169736372964394
 31
0.0
  0
LINE
  5
16F
100
AcDbEntity
  8
0
 62
256
370
-1
 48
1.0
  6
BYLAYER
100
AcDbLine
 10
-797.1487526657323315
 20
-194.6169736372964394
 30
0.0
 11
-796.3056569357323724
 21
-195.4600694272964176
 31
0.0
  0
LINE
  5
170
100
AcDbEntity
  8
0
 62
256
370
-1
 48
1.0
  6
BYLAYER
100
AcDbLine
 10
-796.3056569357323724
 20
-195.4600694272964176
 30
0.0
 11
-795.851991825732398
 21
-195.2755046772964249
 31
0.0
  0
LINE
  5
171
100
AcDbEntity
  8
0
 62
256
370
-1
 48
1.0
  6
BYLAYER
100
AcDbLine
 10
-795.851991825732398
 20
-195.2755046772964249
 30
0.0
 11
-795.4026134657324292
 21
-195.0862192072964376
 31
0.0
  0
LINE
  5
172
100
AcDbEntity
  8
0
 62
256
370
-1
 48
1.0
  6
BYLAYER
100
AcDbLine
 10
-795.4026134657324292
 20
-195.0862192072964376
 30
0.0
 11
-794.9576311157323971
 21
-194.8921490472964138
 31
0.0
  0
LINE
  5
173
100
AcDbEntity
  8
0
 62
256
370
-1
 48
1.0
  6
BYLAYER
100
AcDbLine
 10
-794.9576311157323971
 20
-194.8921490472964138
 30
0.0
 11
-794.5171615857323104
 21
-194.6932231572964156
 31
0.0
  0
LINE
  5
174
100
AcDbEntity
  8
0
 62
256
370
-1
 48
1.0
  6
BYLAYER
100
AcDbLine
 10
-794.5171615857323104
 20
-194.6932231572964156
 30
0.0
 11
-794.081334285732396
 21
-194.489358497296422
 31
0.0
  0
LINE
  5
175
100
AcDbEntity
  8
0
 62
256
370
-1
 48
1.0
  6
BYLAYER
100
AcDbLine
 10
-794.081334285732396
 20
-194.489358497296422
 30
0.0
 11
-793.6502902257323058
 21
-194.2804611572964291
 31
0.0
  0
LINE
  5
176
100
AcDbEntity
  8
0
 62
256
370
-1
 48
1.0
  6
BYLAYER
100
AcDbLine
 10
-793.6502902257323058
 20
-194.2804611572964291
 30
0.0
 11
-793.2238731457323411
 21
-194.0667242372964267
 31
0.0
  0
LINE
  5
177
100
AcDbEntity
  8
0
 62
256
370
-1
 48
1.0
  6
BYLAYER
100
AcDbLine
 10
-793.2238731457323411
 20
-194.0667242372964267
 30
0.0
 11
-792.7983499057323797
 21
-193.8517770072964197
 31
0.0
  0
LINE
  5
178
100
AcDbEntity
  8
0
 62
256
370
-1
 48
1.0
  6
BYLAYER
100
AcDbLine
 10
-792.7983499057323797
 20
-193.8517770072964197
 30
0.0
 11
-792.3725885157323319
 21
-193.6367094672964413
 31
0.0
  0
LINE
  5
179
100
AcDbEntity
  8
0
 62
256
370
-1
 48
1.0
  6
BYLAYER
100
AcDbLine
 10
-792.3725885157323319
 20
-193.6367094672964413
 30
0.0
 11
-791.3356020157323201
 21
-194.0002280472964173
 31
0.0
  0
LINE
  5
17A
100
AcDbEntity
  8
0
 62
256
370
-1
 48
1.0
  6
BYLAYER
100
AcDbLine
 10
-791.3356020157323201
 20
-194.0002280472964173
 30
0.0
 11
-791.3356020157323201
 21
-194.0002280472964173
 31
0.0
  0
LINE
  5
17B
100
AcDbEntity
  8
0
 62
256
370
-1
 48
1.0
  6
BYLAYER
100
AcDbLine
 10
-791.3356020157323201
 20
-194.0002280472964173
 30
0.0
 11
-790.9076879257323753
 21
-195.0123428072964202
 31
0.0
  0
LINE
  5
17C
100
AcDbEntity
  8
0
 62
256
370
-1
 48
1.0
  6
BYLAYER
100
AcDbLine
 10
-790.9076879257323753
 20
-195.0123428072964202
 30
0.0
 11
-791.0955973257323421
 21
-195.4507682272964075
 31
0.0
  0
LINE
  5
17D
100
AcDbEntity
  8
0
 62
256
370
-1
 48
1.0
  6
BYLAYER
100
AcDbLine
 10
-791.0955973257323421
 20
-195.4507682272964075
 30
0.0
 11
-791.283401625732381
 21
-195.8889484372964205
 31
0.0
  0
LINE
  5
17E
100
AcDbEntity
  8
0
 62
256
370
-1
 48
1.0
  6
BYLAYER
100
AcDbLine
 10
-791.283401625732381
 20
-195.8889484372964205
 30
0.0
 11
-791.4699418657323804
 21
-196.3279447172964183
 31
0.0
  0
LINE
  5
17F
100
AcDbEntity
  8
0
 62
256
370
-1
 48
1.0
  6
BYLAYER
100
AcDbLine
 10
-791.4699418657323804
 20
-196.3279447172964183
 30
0.0
 11
-791.6513615557323646
 21
-196.7712549672964144
 31
0.0
  0
LINE
  5
180
100
AcDbEntity
  8
0
 62
256
370
-1
 48
1.0
  6
BYLAYER
100
AcDbLine
 10
-791.6513615557323646
 20
-196.7712549672964144
 30
0.0
 11
-791.8274581457324075
 21
-197.2190230072964141
 31
0.0
  0
LINE
  5
181
100
AcDbEntity
  8
0
 62
256
370
-1
 48
1.0
  6
BYLAYER
100
AcDbLine
 10
-791.8274581457324075
 20
-197.2190230072964141
 30
0.0
 11
-791.9983342257323784
 21
-197.6711140272964258
 31
0.0
  0
LINE
  5
182
100
AcDbEntity
  8
0
 62
256
370
-1
 48
1.0
  6
BYLAYER
100
AcDbLine
 10
-791.9983342257323784
 20
-197.6711140272964258
 30
0.0
 11
-792.1640807957323887
 21
-198.1274040572964168
 31
0.0
  0
LINE
  5
183
100
AcDbEntity
  8
0
 62
256
370
-1
 48
1.0
  6
BYLAYER
100
AcDbLine
 10
-792.1640807957323887
 20
-198.1274040572964168
 30
0.0
 11
-792.324776095732318
 21
-198.5877809972964201
 31
0.0
  0
LINE
  5
184
100
AcDbEntity
  8
0
 62
256
370
-1
 48
1.0
  6
BYLAYER
100
AcDbLine
 10
-792.324776095732318
 20
-198.5877809972964201
 30
0.0
 11
-792.4804908257323177
 21
-199.0521397972964337
 31
0.0
  0
LINE
  5
185
100
AcDbEntity
  8
0
 62
256
370
-1
 48
1.0
  6
BYLAYER
100
AcDbLine
 10
-792.4804908257323177
 20
-199.0521397972964337
 30
0.0
 11
-791.586120335732403
 21
-199.8406335172964248
 31
0.0
  0
LINE
  5
186
100
AcDbEntity
  8
0
 62
256
370
-1
 48
1.0
  6
BYLAYER
100
AcDbLine
 10
-791.586120335732403
 20
-199.8406335172964248
 30
0.0
 11
-791.1449393457323822
 21
-199.6279470872964339
 31
0.0
  0
LINE
  5
187
100
AcDbEntity
  8
0
 62
256
370
-1
 48
1.0
  6
BYLAYER
100
AcDbLine
 10
-791.1449393457323822
 20
-199.6279470872964339
 30
0.0
 11
-790.7083330657324041
 21
-199.4108184272964195
 31
0.0
  0
LINE
  5
188
100
AcDbEntity
  8
0
 62
256
370
-1
 48
1.0
  6
BYLAYER
100
AcDbLine
 10
-790.7083330657324041
 20
-199.4108184272964195
 30
0.0
 11
-790.2764145457323366
 21
-199.1891905572963992
 31
0.0
  0
LINE
  5
189
100
AcDbEntity
  8
0
 62
256
370
-1
 48
1.0
  6
BYLAYER
100
AcDbLine
 10
-790.2764145457323366
 20
-199.1891905572963992
 30
0.0
 11
-789.8493048457323766
 21
-198.9629998872964052
 31
0.0
  0
LINE
  5
18A
100
AcDbEntity
  8
0
 62
256
370
-1
 48
1.0
  6
BYLAYER
100
AcDbLine
 10
-789.8493048457323766
 20
-198.9629998872964052
 30
0.0
 11
-789.4271383257323578
 21
-198.7321716872964146
 31
0.0
  0
LINE
  5
18B
100
AcDbEntity
  8
0
 62
256
370
-1
 48
1.0
  6
BYLAYER
100
AcDbLine
 10
-789.4271383257323578
 20
-198.7321716872964146
 30
0.0
 11
-789.0100615957323953
 21
-198.4966210772964246
 31
0.0
  0
LINE
  5
18C
100
AcDbEntity
  8
0
 62
256
370
-1
 48
1.0
  6
BYLAYER
100
AcDbLine
 10
-789.0100615957323953
 20
-198.4966210772964246
 30
0.0
 11
-788.5979066057323053
 21
-198.2565309772964213
 31
0.0
  0
LINE
  5
18D
100
AcDbEntity
  8
0
 62
256
370
-1
 48
1.0
  6
BYLAYER
100
AcDbLine
 10
-788.5979066057323053
 20
-198.2565309772964213
 30
0.0
 11
-788.1867196857323279
 21
-198.0152890572963997
 31
0.0
  0
LINE
  5
18E
100
AcDbEntity
  8
0
 62
256
370
-1
 48
1.0
  6
BYLAYER
100
AcDbLine
 10
-788.1867196857323279
 20
-198.0152890572963997
 30
0.0
 11
-787.7753026457323813
 21
-197.7739121372964064
 31
0.0
  0
LINE
  5
18F
100
AcDbEntity
  8
0
 62
256
370
-1
 48
1.0
  6
BYLAYER
100
AcDbLine
 10
-787.7753026457323813
 20
-197.7739121372964064
 30
0.0
 11
-786.7175368757323213
 21
-198.0716004672964345
 31
0.0
  0
LINE
  5
190
100
AcDbEntity
  8
0
 62
256
370
-1
 48
1.0
  6
BYLAYER
100
AcDbLine
 10
-786.7175368757323213
 20
-198.0716004672964345
 30
0.0
 11
-786.7175368757323213
 21
-198.0716004672964345
 31
0.0
  0
LINE
  5
191
100
AcDbEntity
  8
0
 62
256
370
-1
 48
1.0
  6
BYLAYER
100
AcDbLine
 10
-786.7175368757323213
 20
-198.0716004672964345
 30
0.0
 11
-786.2269159657323598
 21
-199.0548491072964339
 31
0.0
  0
LINE
  5
192
100
AcDbEntity
  8
0
 62
256
370
-1
 48
1.0
  6
BYLAYER
100
AcDbLine
 10
-786.2269159657323598
 20
-199.0548491072964339
 30
0.0
 11
-786.3869256157323662
 21
-199.5042083272964248
 31
0.0
  0
LINE
  5
193
100
AcDbEntity
  8
0
 62
256
370
-1
 48
1.0
  6
BYLAYER
100
AcDbLine
 10
-786.3869256157323662
 20
-199.5042083272964248
 30
0.0
 11
-786.5468457657323142
 21
-199.9533162172964182
 31
0.0
  0
LINE
  5
194
100
AcDbEntity
  8
0
 62
256
370
-1
 48
1.0
  6
BYLAYER
100
AcDbLine
 10
-786.5468457657323142
 20
-199.9533162172964182
 30
0.0
 11
-786.7054531057323175
 21
-200.4031591972964179
 31
0.0
  0
LINE
  5
195
100
AcDbEntity
  8
0
 62
256
370
-1
 48
1.0
  6
BYLAYER
100
AcDbLine
 10
-786.7054531057323175
 20
-200.4031591972964179
 30
0.0
 11
-786.8586791157323432
 21
-200.8569861172964011
 31
0.0
  0
LINE
  5
196
100
AcDbEntity
  8
0
 62
256
370
-1
 48
1.0
  6
BYLAYER
100
AcDbLine
 10
-786.8586791157323432
 20
-200.8569861172964011
 30
0.0
 11
-787.0063126357323426
 21
-201.3149277772964183
 31
0.0
  0
LINE
  5
197
100
AcDbEntity
  8
0
 62
256
370
-1
 48
1.0
  6
BYLAYER
100
AcDbLine
 10
-787.0063126357323426
 20
-201.3149277772964183
 30
0.0
 11
-787.1484645057323632
 21
-201.7768560972964167
 31
0.0
  0
LINE
  5
198
100
AcDbEntity
  8
0
 62
256
370
-1
 48
1.0
  6
BYLAYER
100
AcDbLine
 10
-787.1484645057323632
 20
-201.7768560972964167
 30
0.0
 11
-787.2852333257324062
 21
-202.2426530572964225
 31
0.0
  0
LINE
  5
199
100
AcDbEntity
  8
0
 62
256
370
-1
 48
1.0
  6
BYLAYER
100
AcDbLine
 10
-787.2852333257324062
 20
-202.2426530572964225
 30
0.0
 11
-787.4167042157323522
 21
-202.712211687296417
 31
0.0
  0
LINE
  5
19A
100
AcDbEntity
  8
0
 62
256
370
-1
 48
1.0
  6
BYLAYER
100
AcDbLine
 10
-787.4167042157323522
 20
-202.712211687296417
 30
0.0
 11
-787.5429543457323689
 21
-203.1854315972964287
 31
0.0
  0
LINE
  5
19B
100
AcDbEntity
  8
0
 62
256
370
-1
 48
1.0
  6
BYLAYER
100
AcDbLine
 10
-787.5429543457323689
 20
-203.1854315972964287
 30
0.0
 11
-786.6008387657323055
 21
-203.916211417296438
 31
0.0
  0
LINE
  5
19C
100
AcDbEntity
  8
0
 62
256
370
-1
 48
1.0
  6
BYLAYER
100
AcDbLine
 10
-786.6008387657323055
 20
-203.916211417296438
 30
0.0
 11
-786.1738830357323877
 21
-203.6762426872964227
 31
0.0
  0
LINE
  5
19D
100
AcDbEntity
  8
0
 62
256
370
-1
 48
1.0
  6
BYLAYER
100
AcDbLine
 10
-786.1738830357323877
 20
-203.6762426872964227
 30
0.0
 11
-785.7517719157323199
 21
-203.4321277472964198
 31
0.0
  0
LINE
  5
19E
100
AcDbEntity
  8
0
 62
256
370
-1
 48
1.0
  6
BYLAYER
100
AcDbLine
 10
-785.7517719157323199
 20
-203.4321277472964198
 30
0.0
 11
-785.3346218257323699
 21
-203.1838168172964174
 31
0.0
  0
LINE
  5
19F
100
AcDbEntity
  8
0
 62
256
370
-1
 48
1.0
  6
BYLAYER
100
AcDbLine
 10
-785.3346218257323699
 20
-203.1838168172964174
 30
0.0
 11
-784.9225575557323964
 21
-202.9312540472964201
 31
0.0
  0
LINE
  5
1A0
100
AcDbEntity
  8
0
 62
256
370
-1
 48
1.0
  6
BYLAYER
100
AcDbLine
 10
-784.9225575557323964
 20
-202.9312540472964201
 30
0.0
 11
-784.5157179057323447
 21
-202.6743732772964108
 31
0.0
  0
LINE
  5
1A1
100
AcDbEntity
  8
0
 62
256
370
-1
 48
1.0
  6
BYLAYER
100
AcDbLine
 10
-784.5157179057323447
 20
-202.6743732772964108
 30
0.0
 11
-784.1142545257323491
 21
-202.4130990172964175
 31
0.0
  0
LINE
  5
1A2
100
AcDbEntity
  8
0
 62
256
370
-1
 48
1.0
  6
BYLAYER
100
AcDbLine
 10
-784.1142545257323491
 20
-202.4130990172964175
 30
0.0
 11
-783.7179882157323618
 21
-202.1476032472964164
 31
0.0
  0
LINE
  5
1A3
100
AcDbEntity
  8
0
 62
256
370
-1
 48
1.0
  6
BYLAYER
100
AcDbLine
 10
-783.7179882157323618
 20
-202.1476032472964164
 30
0.0
 11
-783.3227603857324084
 21
-201.8810187272964072
 31
0.0
  0
LINE
  5
1A4
100
AcDbEntity
  8
0
 62
256
370
-1
 48
1.0
  6
BYLAYER
100
AcDbLine
 10
-783.3227603857324084
 20
-201.8810187272964072
 30
0.0
 11
-782.9273113657324075
 21
-201.6142850172964245
 31
0.0
  0
LINE
  5
1A5
100
AcDbEntity
  8
0
 62
256
370
-1
 48
1.0
  6
BYLAYER
100
AcDbLine
 10
-782.9273113657324075
 20
-201.6142850172964245
 30
0.0
 11
-781.8529408457324053
 21
-201.8449682672964229
 31
0.0
  0
LINE
  5
1A6
100
AcDbEntity
  8
0
 62
256
370
-1
 48
1.0
  6
BYLAYER
100
AcDbLine
 10
-781.8529408457324053
 20
-201.8449682672964229
 30
0.0
 11
-781.8529408457324053
 21
-201.8449682672964229
 31
0.0
  0
LINE
  5
1A7
100
AcDbEntity
  8
0
 62
256
370
-1
 48
1.0
  6
BYLAYER
100
AcDbLine
 10
-781.8529408457324053
 20
-201.8449682672964229
 30
0.0
 11
-781.3015493757324066
 21
-202.7954703472964297
 31
0.0
  0
LINE
  5
1A8
100
AcDbEntity
  8
0
 62
256
370
-1
 48
1.0
  6
BYLAYER
100
AcDbLine
 10
-781.3015493757324066
 20
-202.7954703472964297
 30
0.0
 11
-781.4330277857324063
 21
-203.253989947296418
 31
0.0
  0
LINE
  5
1A9
100
AcDbEntity
  8
0
 62
256
370
-1
 48
1.0
  6
BYLAYER
100
AcDbLine
 10
-781.4330277857324063
 20
-203.253989947296418
 30
0.0
 11
-781.5644326457323814
 21
-203.7122530972964114
 31
0.0
  0
LINE
  5
1AA
100
AcDbEntity
  8
0
 62
256
370
-1
 48
1.0
  6
BYLAYER
100
AcDbLine
 10
-781.5644326457323814
 20
-203.7122530972964114
 30
0.0
 11
-781.6944811457324249
 21
-204.1711674472964262
 31
0.0
  0
LINE
  5
1AB
100
AcDbEntity
  8
0
 62
256
370
-1
 48
1.0
  6
BYLAYER
100
AcDbLine
 10
-781.6944811457324249
 20
-204.1711674472964262
 30
0.0
 11
-781.8189087657323171
 21
-204.6337199872964163
 31
0.0
  0
LINE
  5
1AC
100
AcDbEntity
  8
0
 62
256
370
-1
 48
1.0
  6
BYLAYER
100
AcDbLine
 10
-781.8189087657323171
 20
-204.6337199872964163
 30
0.0
 11
-781.9374965757323253
 21
-205.1000279972964222
 31
0.0
  0
LINE
  5
1AD
100
AcDbEntity
  8
0
 62
256
370
-1
 48
1.0
  6
BYLAYER
100
AcDbLine
 10
-781.9374965757323253
 20
-205.1000279972964222
 30
0.0
 11
-782.0503632157323182
 21
-205.5699705872964387
 31
0.0
  0
LINE
  5
1AE
100
AcDbEntity
  8
0
 62
256
370
-1
 48
1.0
  6
BYLAYER
100
AcDbLine
 10
-782.0503632157323182
 20
-205.5699705872964387
 30
0.0
 11
-782.1576145157323481
 21
-206.0434361872964359
 31
0.0
  0
LINE
  5
1AF
100
AcDbEntity
  8
0
 62
256
370
-1
 48
1.0
  6
BYLAYER
100
AcDbLine
 10
-782.1576145157323481
 20
-206.0434361872964359
 30
0.0
 11
-782.2593421557323836
 21
-206.5203233772964211
 31
0.0
  0
LINE
  5
1B0
100
AcDbEntity
  8
0
 62
256
370
-1
 48
1.0
  6
BYLAYER
100
AcDbLine
 10
-782.2593421557323836
 20
-206.5203233772964211
 30
0.0
 11
-782.3556294457323474
 21
-207.0005368072964416
 31
0.0
  0
LINE
  5
1B1
100
AcDbEntity
  8
0
 62
256
370
-1
 48
1.0
  6
BYLAYER
100
AcDbLine
 10
-782.3556294457323474
 20
-207.0005368072964416
 30
0.0
 11
-781.3694868657323696
 21
-207.6707186772964064
 31
0.0
  0
LINE
  5
1B2
100
AcDbEntity
  8
0
 62
256
370
-1
 48
1.0
  6
BYLAYER
100
AcDbLine
 10
-781.3694868657323696
 20
-207.6707186772964064
 30
0.0
 11
-780.9584413957323932
 21
-207.4044146972964313
 31
0.0
  0
LINE
  5
1B3
100
AcDbEntity
  8
0
 62
256
370
-1
 48
1.0
  6
BYLAYER
100
AcDbLine
 10
-780.9584413957323932
 20
-207.4044146972964313
 30
0.0
 11
-780.552491325732376
 21
-207.1342768872964371
 31
0.0
  0
LINE
  5
1B4
100
AcDbEntity
  8
0
 62
256
370
-1
 48
1.0
  6
BYLAYER
100
AcDbLine
 10
-780.552491325732376
 20
-207.1342768872964371
 30
0.0
 11
-780.1517559557323693
 21
-206.8602628772964067
 31
0.0
  0
LINE
  5
1B5
100
AcDbEntity
  8
0
 62
256
370
-1
 48
1.0
  6
BYLAYER
100
AcDbLine
 10
-780.1517559557323693
 20
-206.8602628772964067
 30
0.0
 11
-779.756363335732317
 21
-206.5823247472964113
 31
0.0
  0
LINE
  5
1B6
100
AcDbEntity
  8
0
 62
256
370
-1
 48
1.0
  6
BYLAYER
100
AcDbLine
 10
-779.756363335732317
 20
-206.5823247472964113
 30
0.0
 11
-779.3664561757323099
 21
-206.3004052072964214
 31
0.0
  0
LINE
  5
1B7
100
AcDbEntity
  8
0
 62
256
370
-1
 48
1.0
  6
BYLAYER
100
AcDbLine
 10
-779.3664561757323099
 20
-206.3004052072964214
 30
0.0
 11
-778.982190545732351
 21
-206.0144384072964385
 31
0.0
  0
LINE
  5
1B8
100
AcDbEntity
  8
0
 62
256
370
-1
 48
1.0
  6
BYLAYER
100
AcDbLine
 10
-778.982190545732351
 20
-206.0144384072964385
 30
0.0
 11
-778.6033767857323937
 21
-205.7245847672964203
 31
0.0
  0
LINE
  5
1B9
100
AcDbEntity
  8
0
 62
256
370
-1
 48
1.0
  6
BYLAYER
100
AcDbLine
 10
-778.6033767857323937
 20
-205.7245847672964203
 30
0.0
 11
-778.2256678257323301
 21
-205.4337097272964172
 31
0.0
  0
LINE
  5
1BA
100
AcDbEntity
  8
0
 62
256
370
-1
 48
1.0
  6
BYLAYER
100
AcDbLine
 10
-778.2256678257323301
 20
-205.4337097272964172
 30
0.0
 11
-777.8477474757323762
 21
-205.1426719072964033
 31
0.0
  0
LINE
  5
1BB
100
AcDbEntity
  8
0
 62
256
370
-1
 48
1.0
  6
BYLAYER
100
AcDbLine
 10
-777.8477474757323762
 20
-205.1426719072964033
 30
0.0
 11
-776.7610122657323473
 21
-205.3054396772964196
 31
0.0
  0
LINE
  5
1BC
100
AcDbEntity
  8
0
 62
256
370
-1
 48
1.0
  6
BYLAYER
100
AcDbLine
 10
-776.7610122657323473
 20
-205.3054396772964196
 30
0.0
 11
-776.7610122657323473
 21
-205.3054396772964196
 31
0.0
  0
LINE
  5
1BD
100
AcDbEntity
  8
0
 62
256
370
-1
 48
1.0
  6
BYLAYER
100
AcDbLine
 10
-776.7610122657323473
 20
-205.3054396772964196
 30
0.0
 11
-776.1510263257323459
 21
-206.2194440072964312
 31
0.0
  0
LINE
  5
1BE
100
AcDbEntity
  8
\U+0421\U+0438\U+0441\U+0442\U+0435\U+043c\U+043d\U+044b\U+0439 \U+0441\U+043b\U+043e\U+0439
 62
0
370
-1
 48
1.0
  6
K5LT_BASIC
100
AcDbLine
 10
-787.2499844914029836
 20
-122.5537876776801767
 30
0.0
 11
-822.2499838901853764
 21
-122.5613052872964062
 31
0.0
  0
ARC
  5
1BF
100
AcDbEntity
  8
0
 62
256
370
-1
 48
1.0
  6
BYLAYER
100
AcDbCircle
 10
-724.2499827257323659
 20
-122.5613052872964204
 30
0.0
 40
62.9999987252667992
100
AcDbArc
 50
179.9931630588926907
 51
237.1658865767516602
  0
ARC
  5
1C0
100
AcDbEntity
  8
0
 62
256
370
-1
 48
1.0
  6
BYLAYER
100
AcDbCircle
 10
-724.2499827257323659
 20
-122.5613052872964204
 30
0.0
 40
53.4978741356138414
100
AcDbArc
 50
179.8806759944384908
 51
237.4928498100119043
  0
LINE
  5
1C1
100
AcDbEntity
  8
0
 62
256
370
-1
 48
1.0
  6
BYLAYER
100
AcDbLine
 10
-748.9559722043222791
 20
-170.3647310822513532
 30
0.0
 11
-753.0
 21
-167.677367213835339
 31
0.0
  0
LINE
  5
1C2
100
AcDbEntity
  8
0
 62
256
370
-1
 48
1.0
  6
BYLAYER
100
AcDbLine
 10
-832.7499827257323659
 20
-122.5613052872964204
 30
0.0
 11
-832.7507435923480443
 21
-120.0072278538370227
 31
0.0
  0
LINE
  5
1C3
100
AcDbEntity
  8
0
 62
256
370
-1
 48
1.0
  6
BYLAYER
100
AcDbLine
 10
-832.7507435923480443
 20
-112.4498908677852
 30
0.0
 11
-777.7477408456489911
 21
-112.4498908677852143
 31
0.0
  0
LINE
  5
1C4
100
AcDbEntity
  8
0
 62
256
370
-1
 48
1.0
  6
BYLAYER
100
AcDbLine
 10
-777.7477408456489911
 20
-112.4498908677852143
 30
0.0
 11
-777.7477408456489911
 21
-122.4498908677852
 31
0.0
  0
LINE
  5
1C5
100
AcDbEntity
  8
0
 62
256
370
-1
 48
1.0
  6
BYLAYER
100
AcDbLine
 10
-832.7507435923480443
 20
-112.4491366959238547
 30
0.0
 11
-832.7507435923480443
 21
-120.0072278538370227
 31
0.0
  0
CIRCLE
  5
1C6
100
AcDbEntity
  8
0
 62
256
370
-1
 48
1.0
  6
BYLAYER
100
AcDbCircle
 10
-828.0
 20
-117.0
 30
0.0
 40
2.0
  0
CIRCLE
  5
1C7
100
AcDbEntity
  8
0
 62
256
370
-1
 48
1.0
  6
BYLAYER
100
AcDbCircle
 10
-783.0
 20
-117.0
 30
0.0
 40
2.0
  0
CIRCLE
  5
1C8
100
AcDbEntity
  8
0
 62
256
370
-1
 48
1.0
  6
BYLAYER
100
AcDbCircle
 10
-814.0
 20
-117.0
 30
0.0
 40
2.0
  0
CIRCLE
  5
1C9
100
AcDbEntity
  8
0
 62
256
370
-1
 48
1.0
  6
BYLAYER
100
AcDbCircle
 10
-796.0
 20
-117.0
 30
0.0
 40
2.0
  0
LINE
  5
1CA
100
AcDbEntity
  8
0
 62
256
370
-1
 48
1.0
  6
BYLAYER
100
AcDbLine
 10
-758.4091226057322501
 20
-175.4966715563817559
 30
0.0
 11
-776.1510263257323459
 21
-206.2194440072964596
 31
0.0
  0
LINE
  5
1CB
100
AcDbEntity
  8
0
 62
256
370
-1
 48
1.0
  6
BYLAYER
100
AcDbLine
 10
-748.9559722043222791
 20
-170.3647310822513248
 30
0.0
 11
-776.4580476488986278
 21
-217.674753111347286
 31
0.0
  0
ENDSEC
  0
SECTION
  2
OBJECTS
  0
DICTIONARY
  5
C
100
AcDbDictionary
280
0
281
1
  3
ACAD_GROUP
350
D
  3
ACAD_LAYOUT
350
1A
  3
ACAD_MLINESTYLE
350
17
  3
ACAD_PLOTSETTINGS
350
19
  3
ACAD_PLOTSTYLENAME
350
E
  3
AcDbVariableDictionary
350
1CC
  3
QCAD_OBJECTS
350
1CD
  0
DICTIONARY
  5
D
100
AcDbDictionary
280
0
281
1
  0
ACDBDICTIONARYWDFLT
  5
E
100
AcDbDictionary
281
1
  3
Normal
350
F
100
AcDbDictionaryWithDefault
340
F
  0
ACDBPLACEHOLDER
  5
F
  0
DICTIONARY
  5
17
100
AcDbDictionary
280
0
281
1
  3
Standard
350
18
  0
MLINESTYLE
  5
18
100
AcDbMlineStyle
  2
STANDARD
 70
0
  3

 62
256
 51
90.0
 52
90.0
 71
2
 49
0.5
 62
256
  6
BYLAYER
 49
-0.5
 62
256
  6
BYLAYER
  0
DICTIONARY
  5
19
100
AcDbDictionary
280
0
281
1
  0
DICTIONARY
  5
1A
100
AcDbDictionary
281
1
  3
Layout1
350
1E
  3
Layout2
350
26
  3
Model
350
22
  0
LAYOUT
  5
1E
100
AcDbPlotSettings
  1

  2
none_device
  4

  6

 40
0.0
 41
0.0
 42
0.0
 43
0.0
 44
0.0
 45
0.0
 46
0.0
 47
0.0
 48
0.0
 49
0.0
140
0.0
141
0.0
142
1.0
143
1.0
 70
688
 72
0
 73
0
 74
5
  7

 75
16
147
1.0
148
0.0
149
0.0
100
AcDbLayout
  1
Layout1
 70
1
 71
1
 10
0.0
 20
0.0
 11
420.0
 21
297.0
 12
0.0
 22
0.0
 32
0.0
 14
100000000000000000000.0
 24
100000000000000000000.0
 34
100000000000000000000.0
 15
-100000000000000000000.0
 25
-100000000000000000000.0
 35
-100000000000000000000.0
146
0.0
 13
0.0
 23
0.0
 33
0.0
 16
1.0
 26
0.0
 36
0.0
 17
0.0
 27
1.0
 37
0.0
 76
0
330
1B
  0
LAYOUT
  5
22
100
AcDbPlotSettings
  1

  2
none_device
  4

  6

 40
0.0
 41
0.0
 42
0.0
 43
0.0
 44
0.0
 45
0.0
 46
0.0
 47
0.0
 48
0.0
 49
0.0
140
0.0
141
0.0
142
1.0
143
1.0
 70
1712
 72
0
 73
0
 74
0
  7

 75
0
147
1.0
148
0.0
149
0.0
100
AcDbLayout
  1
Model
 70
1
 71
0
 10
0.0
 20
0.0
 11
12.0
 21
9.0
 12
0.0
 22
0.0
 32
0.0
 14
0.0
 24
0.0
 34
0.0
 15
0.0
 25
0.0
 35
0.0
146
0.0
 13
0.0
 23
0.0
 33
0.0
 16
1.0
 26
0.0
 36
0.0
 17
0.0
 27
1.0
 37
0.0
 76
0
330
1F
  0
LAYOUT
  5
26
100
AcDbPlotSettings
  1

  2
none_device
  4

  6

 40
0.0
 41
0.0
 42
0.0
 43
0.0
 44
0.0
 45
0.0
 46
0.0
 47
0.0
 48
0.0
 49
0.0
140
0.0
141
0.0
142
1.0
143
1.0
 70
688
 72
0
 73
0
 74
5
  7

 75
16
147
1.0
148
0.0
149
0.0
100
AcDbLayout
  1
Layout2
 70
1
 71
2
 10
0.0
 20
0.0
 11
12.0
 21
9.0
 12
0.0
 22
0.0
 32
0.0
 14
0.0
 24
0.0
 34
0.0
 15
0.0
 25
0.0
 35
0.0
146
0.0
 13
0.0
 23
0.0
 33
0.0
 16
1.0
 26
0.0
 36
0.0
 17
0.0
 27
1.0
 37
0.0
 76
0
330
23
  0
DICTIONARY
  5
1CC
100
AcDbDictionary
281
1
  3
DIMASSOC
350
1CF
  3
HIDETEXT
350
1CE
  0
DICTIONARYVAR
  5
1CE
100
DictionaryVariables
280
0
  1
2
  0
DICTIONARYVAR
  5
1CF
100
DictionaryVariables
280
0
  1
1
  0
DICTIONARY
  5
1CD
100
AcDbDictionary
281
1
  3
ColorSettings/BackgroundColor
350
1D0
  3
ColorSettings/ColorMode
350
1D1
  3
Grid/DisplayGrid00
350
1D2
  3
Grid/DisplayGrid01
350
1D3
  3
Grid/DisplayGrid02
350
1D4
  3
Grid/DisplayGrid03
350
1D5
  3
Grid/GridSpacingX00
350
1D6
  3
Grid/GridSpacingX01
350
1D7
  3
Grid/GridSpacingX02
350
1D8
  3
Grid/GridSpacingX03
350
1D9
  3
Grid/GridSpacingY00
350
1DA
  3
Grid/GridSpacingY01
350
1DB
  3
Grid/GridSpacingY02
350
1DC
  3
Grid/GridSpacingY03
350
1DD
  3
Grid/IsometricGrid00
350
1DE
  3
Grid/IsometricGrid01
350
1DF
  3
Grid/IsometricGrid02
350
1E0
  3
Grid/IsometricGrid03
350
1E1
  3
Grid/IsometricProjection00
350
1E2
  3
Grid/IsometricProjection01
350
1E3
  3
Grid/IsometricProjection02
350
1E4
  3
Grid/IsometricProjection03
350
1E5
  3
Grid/MetaGridSpacingX00
350
1E6
  3
Grid/MetaGridSpacingX01
350
1E7
  3
Grid/MetaGridSpacingX02
350
1E8
  3
Grid/MetaGridSpacingX03
350
1E9
  3
Grid/MetaGridSpacingY00
350
1EA
  3
Grid/MetaGridSpacingY01
350
1EB
  3
Grid/MetaGridSpacingY02
350
1EC
  3
Grid/MetaGridSpacingY03
350
1ED
  3
MultiPageSettings/Columns
350
1EE
  3
MultiPageSettings/GlueMarginsBottom
350
1EF
  3
MultiPageSettings/GlueMarginsLeft
350
1F0
  3
MultiPageSettings/GlueMarginsRight
350
1F1
  3
MultiPageSettings/GlueMarginsTop
350
1F2
  3
MultiPageSettings/PrintCropMarks
350
1F3
  3
MultiPageSettings/Rows
350
1F4
  3
PageSettings/OffsetX
350
1F5
  3
PageSettings/OffsetY
350
1F6
  3
PageSettings/PageOrientation
350
1F7
  3
PageSettings/PaperHeight
350
1F8
  3
PageSettings/PaperWidth
350
1F9
  3
PageSettings/Scale
350
1FA
  3
PageSettings/ShowPaperBorders
350
1FB
  3
PageTagSettings/EnablePageTags
350
1FC
  3
PageTagSettings/TagAlignment
350
1FD
  3
PageTagSettings/TagFont
350
1FE
  3
PageTagSettings/TagPosition
350
1FF
  3
QCADVersion
350
200
  3
UnitSettings/PaperUnit
350
201
  3
ViewportCenter
350
202
  3
ViewportHeight
350
203
  3
ViewportWidth
350
204
  0
XRECORD
  5
1D0
330
1CD
100
AcDbXrecord
280
1
1000
\U+0411\U+0435\U+043b\U+044b\U+0439
  0
XRECORD
  5
1D1
330
1CD
100
AcDbXrecord
280
1
1000
FullColor
  0
XRECORD
  5
1D2
330
1CD
100
AcDbXrecord
280
1
290
1
  0
XRECORD
  5
1D3
330
1CD
100
AcDbXrecord
280
1
290
1
  0
XRECORD
  5
1D4
330
1CD
100
AcDbXrecord
280
1
290
1
  0
XRECORD
  5
1D5
330
1CD
100
AcDbXrecord
280
1
290
1
  0
XRECORD
  5
1D6
330
1CD
100
AcDbXrecord
280
1
1000
auto
  0
XRECORD
  5
1D7
330
1CD
100
AcDbXrecord
280
1
1000
auto
  0
XRECORD
  5
1D8
330
1CD
100
AcDbXrecord
280
1
1000
auto
  0
XRECORD
  5
1D9
330
1CD
100
AcDbXrecord
280
1
1000
auto
  0
XRECORD
  5
1DA
330
1CD
100
AcDbXrecord
280
1
1000
auto
  0
XRECORD
  5
1DB
330
1CD
100
AcDbXrecord
280
1
1000
auto
  0
XRECORD
  5
1DC
330
1CD
100
AcDbXrecord
280
1
1000
auto
  0
XRECORD
  5
1DD
330
1CD
100
AcDbXrecord
280
1
1000
auto
  0
XRECORD
  5
1DE
330
1CD
100
AcDbXrecord
280
1
290
0
  0
XRECORD
  5
1DF
330
1CD
100
AcDbXrecord
280
1
290
0
  0
XRECORD
  5
1E0
330
1CD
100
AcDbXrecord
280
1
290
0
  0
XRECORD
  5
1E1
330
1CD
100
AcDbXrecord
280
1
290
0
  0
XRECORD
  5
1E2
330
1CD
100
AcDbXrecord
280
1
 90
65537
  0
XRECORD
  5
1E3
330
1CD
100
AcDbXrecord
280
1
 90
65537
  0
XRECORD
  5
1E4
330
1CD
100
AcDbXrecord
280
1
 90
65537
  0
XRECORD
  5
1E5
330
1CD
100
AcDbXrecord
280
1
 90
65537
  0
XRECORD
  5
1E6
330
1CD
100
AcDbXrecord
280
1
1000
auto
  0
XRECORD
  5
1E7
330
1CD
100
AcDbXrecord
280
1
1000
auto
  0
XRECORD
  5
1E8
330
1CD
100
AcDbXrecord
280
1
1000
auto
  0
XRECORD
  5
1E9
330
1CD
100
AcDbXrecord
280
1
1000
auto
  0
XRECORD
  5
1EA
330
1CD
100
AcDbXrecord
280
1
1000
auto
  0
XRECORD
  5
1EB
330
1CD
100
AcDbXrecord
280
1
1000
auto
  0
XRECORD
  5
1EC
330
1CD
100
AcDbXrecord
280
1
1000
auto
  0
XRECORD
  5
1ED
330
1CD
100
AcDbXrecord
280
1
1000
auto
  0
XRECORD
  5
1EE
330
1CD
100
AcDbXrecord
280
1
 90
1
  0
XRECORD
  5
1EF
330
1CD
100
AcDbXrecord
280
1
 40
10.0
  0
XRECORD
  5
1F0
330
1CD
100
AcDbXrecord
280
1
 40
10.0
  0
XRECORD
  5
1F1
330
1CD
100
AcDbXrecord
280
1
 40
10.0
  0
XRECORD
  5
1F2
330
1CD
100
AcDbXrecord
280
1
 40
10.0
  0
XRECORD
  5
1F3
330
1CD
100
AcDbXrecord
280
1
290
0
  0
XRECORD
  5
1F4
330
1CD
100
AcDbXrecord
280
1
 90
1
  0
XRECORD
  5
1F5
330
1CD
100
AcDbXrecord
280
1
 40
0.0
  0
XRECORD
  5
1F6
330
1CD
100
AcDbXrecord
280
1
 40
0.0
  0
XRECORD
  5
1F7
330
1CD
100
AcDbXrecord
280
1
1000
Portrait
  0
XRECORD
  5
1F8
330
1CD
100
AcDbXrecord
280
1
 40
297.0
  0
XRECORD
  5
1F9
330
1CD
100
AcDbXrecord
280
1
 40
210.0
  0
XRECORD
  5
1FA
330
1CD
100
AcDbXrecord
280
1
1000
1:1
  0
XRECORD
  5
1FB
330
1CD
100
AcDbXrecord
280
1
290
1
  0
XRECORD
  5
1FC
330
1CD
100
AcDbXrecord
280
1
290
0
  0
XRECORD
  5
1FD
330
1CD
100
AcDbXrecord
280
1
1000
Inside
  0
XRECORD
  5
1FE
330
1CD
100
AcDbXrecord
280
1
1000
Arial,10,-1,5,50,0,0,0,0,0
  0
XRECORD
  5
1FF
330
1CD
100
AcDbXrecord
280
1
1000
TopLeft
  0
XRECORD
  5
200
330
1CD
100
AcDbXrecord
280
1
1000
3.27.1
  0
XRECORD
  5
201
330
1CD
100
AcDbXrecord
280
1
 90
4
  0
XRECORD
  5
203
330
1CD
100
AcDbXrecord
280
1
 40
257.8465726748711404
  0
XRECORD
  5
204
330
1CD
100
AcDbXrecord
280
1
 40
569.6700634247529251
  0
ENDSEC
  0
EOF
